{
.appVersion = "1104";
DisplayStrings = (
"ca/ringcomb åæbcdefcgh/idotless/jdotless k lIHOEFABCDEFGHIJLMNOPBRSTUmno/oe pþqbfnrcsßtuv w xfyvnzuøz\012Fabèrge,.\012L/quoteright Oreal",
"/section.smcp n1z2345a"
);
classes = (
{
automatic = 1;

glyphs = (
{
glyphname = A;
lastChange = "2017-11-15 17:45:29 +0000";
layers = (
{
anchors = (
{
name = bottom;
position = "{315, 0}";
},
{
name = ogonek;
position = "{624, 0}";
},
{
name = top;
position = "{314, 708}";
}
);
hints = (
{
horizontal = 1;
origin = "{0, 2}";
target = down;
type = TopGhost;
},
{
horizontal = 1;
origin = "{0, 7}";
target = "{0, 6}";
},
{
horizontal = 1;
origin = "{1, 1}";
target = "{1, 0}";
}
);
layerId = UUID0;
paths = (
{
closed = 1;
nodes = (
"318 713 OFFCURVE",
"312 713 OFFCURVE",
"307 713 CURVE",
"72 107 LINE SMOOTH",
"49 47 OFFCURVE",
"19 26 OFFCURVE",
"-7 20 CURVE",
"-7 0 LINE",
"13 2 OFFCURVE",
"34 3 OFFCURVE",
"68 3 CURVE SMOOTH",
"103 3 OFFCURVE",
"145 2 OFFCURVE",
"183 0 CURVE",
"183 20 LINE",
"99 22 OFFCURVE",
"74 54 OFFCURVE",
"116 162 CURVE SMOOTH",
"290 614 LINE",
"274 601 LINE",
"460 104 LINE SMOOTH",
"486 36 OFFCURVE",
"469 23 OFFCURVE",
"401 20 CURVE",
"401 0 LINE",
"429 2 OFFCURVE",
"477 3 OFFCURVE",
"529 3 CURVE SMOOTH",
"567 3 OFFCURVE",
"609 2 OFFCURVE",
"636 0 CURVE",
"636 20 LINE",
"615 21 OFFCURVE",
"587 33 OFFCURVE",
"567 84 CURVE SMOOTH",
"323 713 LINE"
);
},
{
closed = 1;
nodes = (
"157 288 LINE",
"147 268 LINE",
"450 268 LINE",
"445 288 LINE"
);
}
);
width = 630;
},
{
anchors = (
{
name = bottom;
position = "{345, 0}";
},
{
name = ogonek;
position = "{681, 0}";
},
{
name = top;
position = "{339, 708}";
}
);
layerId = "39933D6F-F4A7-4C4E-8677-28C34DBED807";
paths = (
{
closed = 1;
nodes = (
"365 705 OFFCURVE",
"324 705 OFFCURVE",
"292 708 CURVE",
"70 137 LINE SMOOTH",
"38 54 OFFCURVE",
"9 25 OFFCURVE",
"-22 20 CURVE",
"-22 0 LINE",
"-2 2 OFFCURVE",
"29 3 OFFCURVE",
"55 3 CURVE SMOOTH",
"101 3 OFFCURVE",
"136 2 OFFCURVE",
"186 0 CURVE",
"186 20 LINE",
"106 23 OFFCURVE",
"61 50 OFFCURVE",
"128 223 CURVE SMOOTH",
"266 582 LINE",
"246 547 LINE",
"406 104 LINE SMOOTH",
"433 36 OFFCURVE",
"416 23 OFFCURVE",
"348 20 CURVE",
"348 0 LINE",
"384 2 OFFCURVE",
"448 3 OFFCURVE",
"516 3 CURVE SMOOTH",
"582 3 OFFCURVE",
"650 2 OFFCURVE",
"698 0 CURVE",
"698 20 LINE",
"680 21 OFFCURVE",
"657 38 OFFCURVE",
"639 84 CURVE SMOOTH",
"397 708 LINE"
);
},
{
closed = 1;
nodes = (
"144 288 LINE",
"134 268 LINE",
"437 268 LINE",
"432 288 LINE"
);
}
);
width = 691;
},
{
anchors = (
{
name = bottom;
position = "{315, 0}";
},
{
name = ogonek;
position = "{624, 0}";
},
{
name = top;
position = "{314, 708}";
}
);
background = {
anchors = (
{
name = bottom;
position = "{315, 0}";
},
{
name = ogonek;
position = "{624, 0}";
},
{
name = top;
position = "{314, 708}";
}
);
paths = (
{
closed = 1;
nodes = (
"318 713 OFFCURVE",
"312 713 OFFCURVE",
"307 713 CURVE",
"72 107 LINE SMOOTH",
"49 47 OFFCURVE",
"19 26 OFFCURVE",
"-7 20 CURVE",
"-7 0 LINE",
"13 2 OFFCURVE",
"34 3 OFFCURVE",
"68 3 CURVE SMOOTH",
"103 3 OFFCURVE",
"145 2 OFFCURVE",
"183 0 CURVE",
"183 20 LINE",
"99 22 OFFCURVE",
"74 54 OFFCURVE",
"116 162 CURVE SMOOTH",
"290 614 LINE",
"274 601 LINE",
"460 104 LINE SMOOTH",
"486 36 OFFCURVE",
"469 23 OFFCURVE",
"401 20 CURVE",
"401 0 LINE",
"429 2 OFFCURVE",
"477 3 OFFCURVE",
"529 3 CURVE SMOOTH",
"567 3 OFFCURVE",
"609 2 OFFCURVE",
"636 0 CURVE",
"636 20 LINE",
"615 21 OFFCURVE",
"587 33 OFFCURVE",
"567 84 CURVE SMOOTH",
"323 713 LINE"
);
},
{
closed = 1;
nodes = (
"157 288 LINE",
"147 268 LINE",
"445 268 LINE",
"445 288 LINE"
);
}
);
};
layerId = "DF17D77B-A5C4-4843-826A-BC0F1C4CB224";
paths = (
{
closed = 1;
nodes = (
"315 713 OFFCURVE",
"314 713 OFFCURVE",
"314 713 CURVE",
"72 88 LINE SMOOTH",
"49 28 OFFCURVE",
"19 7 OFFCURVE",
"-7 1 CURVE",
"-7 0 LINE",
"13 2 OFFCURVE",
"34 3 OFFCURVE",
"68 3 CURVE SMOOTH",
"103 3 OFFCURVE",
"145 2 OFFCURVE",
"183 0 CURVE",
"183 1 LINE",
"69 3 OFFCURVE",
"51 30 OFFCURVE",
"97 149 CURVE SMOOTH",
"278 617 LINE",
"273 605 LINE",
"460 85 LINE SMOOTH",
"485 16 OFFCURVE",
"469 4 OFFCURVE",
"401 1 CURVE",
"401 0 LINE",
"429 2 OFFCURVE",
"477 3 OFFCURVE",
"529 3 CURVE SMOOTH",
"567 3 OFFCURVE",
"609 2 OFFCURVE",
"636 0 CURVE",
"636 1 LINE",
"615 2 OFFCURVE",
"587 14 OFFCURVE",
"567 65 CURVE SMOOTH",
"315 713 LINE"
);
},
{
closed = 1;
nodes = (
"146 278 LINE",
"146 277 LINE",
"445 277 LINE",
"445 278 LINE"
);
}
);
width = 630;
},
{
anchors = (
{
name = bottom;
position = "{315, 0}";
},
{
name = ogonek;
position = "{624, 0}";
},
{
name = top;
position = "{314, 708}";
}
);
background = {
anchors = (
{
name = bottom;
position = "{315, 0}";
},
{
name = ogonek;
position = "{624, 0}";
},
{
name = top;
position = "{314, 708}";
}
);
paths = (
{
closed = 1;
nodes = (
"318 713 OFFCURVE",
"312 713 OFFCURVE",
"307 713 CURVE",
"72 107 LINE SMOOTH",
"49 47 OFFCURVE",
"19 26 OFFCURVE",
"-7 20 CURVE",
"-7 0 LINE",
"13 2 OFFCURVE",
"34 3 OFFCURVE",
"68 3 CURVE SMOOTH",
"103 3 OFFCURVE",
"145 2 OFFCURVE",
"183 0 CURVE",
"183 20 LINE",
"99 22 OFFCURVE",
"74 54 OFFCURVE",
"116 162 CURVE SMOOTH",
"290 614 LINE",
"274 601 LINE",
"460 104 LINE SMOOTH",
"486 36 OFFCURVE",
"469 23 OFFCURVE",
"401 20 CURVE",
"401 0 LINE",
"429 2 OFFCURVE",
"477 3 OFFCURVE",
"529 3 CURVE SMOOTH",
"567 3 OFFCURVE",
"609 2 OFFCURVE",
"636 0 CURVE",
"636 20 LINE",
"615 21 OFFCURVE",
"587 33 OFFCURVE",
"567 84 CURVE SMOOTH",
"323 713 LINE"
);
},
{
closed = 1;
nodes = (
"157 288 LINE",
"147 268 LINE",
"445 268 LINE",
"445 288 LINE"
);
}
);
};
layerId = "7300F074-2CFD-43CC-B20F-1BF1EAE6C2C7";
paths = (
{
closed = 1;
nodes = (
"324 706 OFFCURVE",
"306 706 OFFCURVE",
"282 708 CURVE",
"72 157 LINE SMOOTH",
"49 96 OFFCURVE",
"19 76 OFFCURVE",
"-7 70 CURVE",
"-7 0 LINE",
"26 2 OFFCURVE",
"61 3 OFFCURVE",
"118 3 CURVE SMOOTH",
"153 3 OFFCURVE",
"195 2 OFFCURVE",
"233 0 CURVE",
"233 70 LINE",
"150 72 OFFCURVE",
"125 103 OFFCURVE",
"166 212 CURVE SMOOTH",
"318 614 LINE",
"286 611 LINE",
"460 154 LINE SMOOTH",
"486 86 OFFCURVE",
"469 73 OFFCURVE",
"401 70 CURVE",
"401 0 LINE",
"429 2 OFFCURVE",
"477 3 OFFCURVE",
"529 3 CURVE SMOOTH",
"567 3 OFFCURVE",
"609 2 OFFCURVE",
"636 0 CURVE",
"636 70 LINE",
"615 71 OFFCURVE",
"587 82 OFFCURVE",
"567 134 CURVE SMOOTH",
"348 708 LINE"
);
},
{
closed = 1;
nodes = (
"167 313 LINE",
"139 243 LINE",
"470 243 LINE",
"445 313 LINE"
);
}
);
width = 630;
}
);
leftKerningGroup = A;
rightKerningGroup = A;
unicode = 0041;
},
{
glyphname = AE;
lastChange = "2017-11-14 23:31:14 +0000";
layers = (
{
anchors = (
{
name = bottom;
position = "{412, 0}";
},
{
name = top;
position = "{427, 708}";
}
);
layerId = UUID0;
paths = (
{
closed = 1;
nodes = (
"7 2 OFFCURVE",
"34 3 OFFCURVE",
"57 3 CURVE SMOOTH",
"93 3 OFFCURVE",
"128 2 OFFCURVE",
"148 0 CURVE",
"148 20 LINE",
"80 23 OFFCURVE",
"60 42 OFFCURVE",
"97 104 CURVE SMOOTH",
"500 772 LINE",
"476 772 LINE",
"59 84 LINE SMOOTH",
"31 37 OFFCURVE",
"11 21 OFFCURVE",
"-10 20 CURVE",
"-10 0 LINE"
);
},
{
closed = 1;
nodes = (
"451 346 LINE",
"451 366 LINE",
"241 366 LINE",
"231 346 LINE"
);
},
{
closed = 1;
nodes = (
"440 3 OFFCURVE",
"547 3 OFFCURVE",
"597 3 CURVE SMOOTH",
"658 3 OFFCURVE",
"744 3 OFFCURVE",
"806 0 CURVE",
"801 51 OFFCURVE",
"799 103 OFFCURVE",
"799 128 CURVE SMOOTH",
"799 156 OFFCURVE",
"800 182 OFFCURVE",
"802 200 CURVE",
"779 200 LINE",
"768 68 OFFCURVE",
"763 23 OFFCURVE",
"665 23 CURVE SMOOTH",
"592 23 LINE SMOOTH",
"524 23 OFFCURVE",
"511 33 OFFCURVE",
"511 106 CURVE SMOOTH",
"511 602 LINE SMOOTH",
"511 675 OFFCURVE",
"524 685 OFFCURVE",
"592 685 CURVE SMOOTH",
"655 685 LINE SMOOTH",
"737 685 OFFCURVE",
"749 646 OFFCURVE",
"759 528 CURVE",
"782 528 LINE",
"780 543 OFFCURVE",
"779 566 OFFCURVE",
"779 590 CURVE SMOOTH",
"779 613 OFFCURVE",
"781 661 OFFCURVE",
"786 708 CURVE",
"730 705 OFFCURVE",
"652 705 OFFCURVE",
"597 705 CURVE SMOOTH",
"543 705 OFFCURVE",
"426 705 OFFCURVE",
"337 708 CURVE",
"337 688 LINE",
"405 685 OFFCURVE",
"418 675 OFFCURVE",
"418 602 CURVE SMOOTH",
"418 106 LINE SMOOTH",
"418 33 OFFCURVE",
"409 23 OFFCURVE",
"357 20 CURVE",
"357 0 LINE"
);
},
{
closed = 1;
nodes = (
"651 346 LINE",
"651 366 LINE",
"481 366 LINE",
"481 346 LINE"
);
},
{
closed = 1;
nodes = (
"683 234 LINE",
"678 300 OFFCURVE",
"677 327 OFFCURVE",
"677 356 CURVE SMOOTH",
"677 385 OFFCURVE",
"675 412 OFFCURVE",
"680 478 CURVE",
"657 478 LINE",
"651 438 OFFCURVE",
"654 366 OFFCURVE",
"584 366 CURVE",
"584 346 LINE",
"653 346 OFFCURVE",
"654 288 OFFCURVE",
"660 234 CURVE"
);
}
);
width = 854;
},
{
anchors = (
{
name = bottom;
position = "{433, 0}";
},
{
name = top;
position = "{466, 708}";
}
);
layerId = "39933D6F-F4A7-4C4E-8677-28C34DBED807";
paths = (
{
closed = 1;
nodes = (
"-1 2 OFFCURVE",
"26 3 OFFCURVE",
"50 3 CURVE SMOOTH",
"86 3 OFFCURVE",
"121 2 OFFCURVE",
"141 0 CURVE",
"141 20 LINE",
"73 23 OFFCURVE",
"54 41 OFFCURVE",
"90 104 CURVE SMOOTH",
"473 772 LINE",
"449 772 LINE",
"52 84 LINE SMOOTH",
"24 36 OFFCURVE",
"4 21 OFFCURVE",
"-17 20 CURVE",
"-17 0 LINE"
);
},
{
closed = 1;
nodes = (
"424 346 LINE",
"424 366 LINE",
"227 366 LINE",
"217 346 LINE"
);
},
{
closed = 1;
nodes = (
"427 3 OFFCURVE",
"574 3 OFFCURVE",
"640 3 CURVE SMOOTH",
"707 3 OFFCURVE",
"801 3 OFFCURVE",
"869 0 CURVE",
"862 58 OFFCURVE",
"862 119 OFFCURVE",
"862 148 CURVE SMOOTH",
"862 184 OFFCURVE",
"863 216 OFFCURVE",
"865 240 CURVE",
"842 240 LINE",
"824 75 OFFCURVE",
"748 23 OFFCURVE",
"698 23 CURVE SMOOTH",
"665 23 LINE SMOOTH",
"606 23 OFFCURVE",
"594 33 OFFCURVE",
"594 106 CURVE SMOOTH",
"594 602 LINE SMOOTH",
"594 675 OFFCURVE",
"606 685 OFFCURVE",
"665 685 CURVE SMOOTH",
"678 685 LINE SMOOTH",
"740 685 OFFCURVE",
"801 638 OFFCURVE",
"822 488 CURVE",
"845 488 LINE",
"843 505 OFFCURVE",
"842 532 OFFCURVE",
"842 560 CURVE SMOOTH",
"842 589 OFFCURVE",
"844 649 OFFCURVE",
"849 708 CURVE",
"787 705 OFFCURVE",
"701 705 OFFCURVE",
"640 705 CURVE SMOOTH",
"574 705 OFFCURVE",
"427 705 OFFCURVE",
"320 708 CURVE",
"320 688 LINE",
"380 685 OFFCURVE",
"391 675 OFFCURVE",
"391 602 CURVE SMOOTH",
"391 106 LINE SMOOTH",
"391 33 OFFCURVE",
"381 23 OFFCURVE",
"320 20 CURVE",
"320 0 LINE"
);
},
{
closed = 1;
nodes = (
"724 346 LINE",
"724 366 LINE",
"564 366 LINE",
"564 346 LINE"
);
},
{
closed = 1;
nodes = (
"756 224 LINE",
"751 295 OFFCURVE",
"750 325 OFFCURVE",
"750 356 CURVE SMOOTH",
"750 387 OFFCURVE",
"748 417 OFFCURVE",
"753 488 CURVE",
"730 488 LINE",
"719 444 OFFCURVE",
"703 366 OFFCURVE",
"634 366 CURVE",
"634 346 LINE",
"703 346 OFFCURVE",
"722 283 OFFCURVE",
"733 224 CURVE"
);
}
);
width = 912;
},
{
anchors = (
{
name = bottom;
position = "{412, 0}";
},
{
name = top;
position = "{427, 708}";
}
);
background = {
paths = (
{
closed = 1;
nodes = (
"476 772 LINE",
"59 84 LINE SMOOTH",
"31 37 OFFCURVE",
"11 21 OFFCURVE",
"-10 20 CURVE",
"-10 0 LINE",
"7 2 OFFCURVE",
"34 3 OFFCURVE",
"57 3 CURVE SMOOTH",
"93 3 OFFCURVE",
"128 2 OFFCURVE",
"148 0 CURVE",
"148 20 LINE",
"80 23 OFFCURVE",
"60 42 OFFCURVE",
"97 104 CURVE SMOOTH",
"500 772 LINE"
);
},
{
closed = 1;
nodes = (
"730 705 OFFCURVE",
"652 705 OFFCURVE",
"597 705 CURVE SMOOTH",
"543 705 OFFCURVE",
"426 705 OFFCURVE",
"337 708 CURVE",
"337 688 LINE",
"405 685 OFFCURVE",
"418 675 OFFCURVE",
"418 602 CURVE SMOOTH",
"418 106 LINE SMOOTH",
"418 33 OFFCURVE",
"409 23 OFFCURVE",
"357 20 CURVE",
"357 0 LINE",
"440 3 OFFCURVE",
"547 3 OFFCURVE",
"597 3 CURVE SMOOTH",
"658 3 OFFCURVE",
"744 3 OFFCURVE",
"806 0 CURVE",
"801 51 OFFCURVE",
"799 103 OFFCURVE",
"799 128 CURVE SMOOTH",
"799 156 OFFCURVE",
"800 182 OFFCURVE",
"802 200 CURVE",
"779 200 LINE",
"768 68 OFFCURVE",
"763 23 OFFCURVE",
"665 23 CURVE SMOOTH",
"592 23 LINE SMOOTH",
"524 23 OFFCURVE",
"511 33 OFFCURVE",
"511 106 CURVE SMOOTH",
"511 602 LINE SMOOTH",
"511 675 OFFCURVE",
"524 685 OFFCURVE",
"592 685 CURVE SMOOTH",
"655 685 LINE SMOOTH",
"737 685 OFFCURVE",
"749 646 OFFCURVE",
"759 528 CURVE",
"782 528 LINE",
"780 543 OFFCURVE",
"779 566 OFFCURVE",
"779 590 CURVE SMOOTH",
"779 613 OFFCURVE",
"781 661 OFFCURVE",
"786 708 CURVE"
);
},
{
closed = 1;
nodes = (
"241 366 LINE",
"231 346 LINE",
"451 346 LINE",
"451 366 LINE"
);
},
{
closed = 1;
nodes = (
"481 366 LINE",
"481 366 OFFCURVE",
"481 346 OFFCURVE",
"481 346 CURVE",
"651 346 LINE",
"651 346 OFFCURVE",
"651 366 OFFCURVE",
"651 366 CURVE"
);
},
{
closed = 1;
nodes = (
"657 478 LINE",
"651 438 OFFCURVE",
"654 366 OFFCURVE",
"584 366 CURVE",
"584 346 LINE",
"653 346 OFFCURVE",
"654 288 OFFCURVE",
"660 234 CURVE",
"683 234 LINE",
"678 300 OFFCURVE",
"677 327 OFFCURVE",
"677 356 CURVE SMOOTH",
"677 385 OFFCURVE",
"675 412 OFFCURVE",
"680 478 CURVE"
);
}
);
};
layerId = "DF17D77B-A5C4-4843-826A-BC0F1C4CB224";
paths = (
{
closed = 1;
nodes = (
"7 2 OFFCURVE",
"34 3 OFFCURVE",
"57 3 CURVE SMOOTH",
"93 3 OFFCURVE",
"128 2 OFFCURVE",
"148 0 CURVE",
"148 1 LINE",
"52 9 OFFCURVE",
"39 29 OFFCURVE",
"90 111 CURVE SMOOTH",
"500 772 LINE",
"499 772 LINE",
"72 84 LINE SMOOTH",
"36 26 OFFCURVE",
"11 4 OFFCURVE",
"-10 1 CURVE",
"-10 0 LINE"
);
},
{
closed = 1;
nodes = (
"451 356 LINE",
"451 357 LINE",
"242 357 LINE",
"241 356 LINE"
);
},
{
closed = 1;
nodes = (
"435 3 OFFCURVE",
"567 3 OFFCURVE",
"627 3 CURVE SMOOTH",
"644 3 OFFCURVE",
"738 3 OFFCURVE",
"806 0 CURVE",
"801 51 OFFCURVE",
"799 103 OFFCURVE",
"799 128 CURVE SMOOTH",
"799 156 OFFCURVE",
"800 182 OFFCURVE",
"802 200 CURVE",
"801 200 LINE",
"785 54 OFFCURVE",
"757 4 OFFCURVE",
"615 4 CURVE SMOOTH",
"592 4 LINE SMOOTH",
"524 4 OFFCURVE",
"511 14 OFFCURVE",
"511 87 CURVE SMOOTH",
"511 621 LINE SMOOTH",
"511 694 OFFCURVE",
"524 704 OFFCURVE",
"592 704 CURVE SMOOTH",
"625 704 LINE SMOOTH",
"748 704 OFFCURVE",
"766 660 OFFCURVE",
"781 528 CURVE",
"782 528 LINE",
"780 543 OFFCURVE",
"779 566 OFFCURVE",
"779 590 CURVE SMOOTH",
"779 613 OFFCURVE",
"781 661 OFFCURVE",
"786 708 CURVE",
"724 705 OFFCURVE",
"638 705 OFFCURVE",
"627 705 CURVE SMOOTH",
"567 705 OFFCURVE",
"435 705 OFFCURVE",
"337 708 CURVE",
"337 707 LINE",
"405 704 OFFCURVE",
"418 694 OFFCURVE",
"418 621 CURVE SMOOTH",
"418 87 LINE SMOOTH",
"418 14 OFFCURVE",
"405 4 OFFCURVE",
"337 1 CURVE",
"337 0 LINE"
);
},
{
closed = 1;
nodes = (
"652 356 LINE",
"652 357 LINE",
"481 357 LINE",
"481 356 LINE"
);
},
{
closed = 1;
nodes = (
"684 234 LINE",
"679 299 OFFCURVE",
"678 328 OFFCURVE",
"678 356 CURVE SMOOTH",
"678 384 OFFCURVE",
"676 413 OFFCURVE",
"681 478 CURVE",
"680 478 LINE",
"670 434 OFFCURVE",
"673 357 OFFCURVE",
"565 357 CURVE",
"565 356 LINE",
"672 356 OFFCURVE",
"673 293 OFFCURVE",
"683 234 CURVE"
);
}
);
width = 854;
},
{
anchors = (
{
name = bottom;
position = "{412, 0}";
},
{
name = top;
position = "{427, 708}";
}
);
layerId = "7300F074-2CFD-43CC-B20F-1BF1EAE6C2C7";
paths = (
{
closed = 1;
nodes = (
"7 2 OFFCURVE",
"34 3 OFFCURVE",
"57 3 CURVE SMOOTH",
"93 3 OFFCURVE",
"128 2 OFFCURVE",
"148 0 CURVE",
"148 20 LINE",
"80 23 OFFCURVE",
"60 42 OFFCURVE",
"97 104 CURVE SMOOTH",
"500 772 LINE",
"476 772 LINE",
"59 84 LINE SMOOTH",
"31 37 OFFCURVE",
"11 21 OFFCURVE",
"-10 20 CURVE",
"-10 0 LINE"
);
},
{
closed = 1;
nodes = (
"451 346 LINE",
"451 366 LINE",
"241 366 LINE",
"231 346 LINE"
);
},
{
closed = 1;
nodes = (
"440 3 OFFCURVE",
"547 3 OFFCURVE",
"597 3 CURVE SMOOTH",
"658 3 OFFCURVE",
"744 3 OFFCURVE",
"806 0 CURVE",
"801 51 OFFCURVE",
"799 103 OFFCURVE",
"799 128 CURVE SMOOTH",
"799 156 OFFCURVE",
"800 182 OFFCURVE",
"802 200 CURVE",
"779 200 LINE",
"768 68 OFFCURVE",
"763 23 OFFCURVE",
"665 23 CURVE SMOOTH",
"592 23 LINE SMOOTH",
"524 23 OFFCURVE",
"511 33 OFFCURVE",
"511 106 CURVE SMOOTH",
"511 602 LINE SMOOTH",
"511 675 OFFCURVE",
"524 685 OFFCURVE",
"592 685 CURVE SMOOTH",
"655 685 LINE SMOOTH",
"737 685 OFFCURVE",
"749 646 OFFCURVE",
"759 528 CURVE",
"782 528 LINE",
"780 543 OFFCURVE",
"779 566 OFFCURVE",
"779 590 CURVE SMOOTH",
"779 613 OFFCURVE",
"781 661 OFFCURVE",
"786 708 CURVE",
"730 705 OFFCURVE",
"652 705 OFFCURVE",
"597 705 CURVE SMOOTH",
"543 705 OFFCURVE",
"426 705 OFFCURVE",
"337 708 CURVE",
"337 688 LINE",
"405 685 OFFCURVE",
"418 675 OFFCURVE",
"418 602 CURVE SMOOTH",
"418 106 LINE SMOOTH",
"418 33 OFFCURVE",
"409 23 OFFCURVE",
"357 20 CURVE",
"357 0 LINE"
);
},
{
closed = 1;
nodes = (
"651 346 LINE",
"651 366 LINE",
"481 366 LINE",
"481 346 LINE"
);
},
{
closed = 1;
nodes = (
"683 234 LINE",
"678 300 OFFCURVE",
"677 327 OFFCURVE",
"677 356 CURVE SMOOTH",
"677 385 OFFCURVE",
"675 412 OFFCURVE",
"680 478 CURVE",
"657 478 LINE",
"651 438 OFFCURVE",
"654 366 OFFCURVE",
"584 366 CURVE",
"584 346 LINE",
"653 346 OFFCURVE",
"654 288 OFFCURVE",
"660 234 CURVE"
);
}
);
width = 854;
}
);
leftKerningGroup = AE;
rightKerningGroup = E;
rightMetricsKey = E;
unicode = 00C6;
},
{
glyphname = B;
lastChange = "2017-11-15 16:17:39 +0000";
layers = (
{
anchors = (
{
name = bottom;
position = "{312, 0}";
},
{
name = top;
position = "{312, 708}";
}
);
hints = (
{
horizontal = 1;
origin = "{0, 33}";
target = "{0, 0}";
},
{
horizontal = 1;
origin = "{0, 8}";
target = "{0, 7}";
},
{
horizontal = 1;
origin = "{1, 8}";
target = "{1, 5}";
}
);
layerId = UUID0;
paths = (
{
closed = 1;
nodes = (
"42 688 LINE",
"112 685 OFFCURVE",
"123 673 OFFCURVE",
"123 602 CURVE SMOOTH",
"123 106 LINE SMOOTH",
"123 35 OFFCURVE",
"112 23 OFFCURVE",
"42 20 CURVE",
"42 0 LINE",
"67 2 OFFCURVE",
"112 3 OFFCURVE",
"166 3 CURVE SMOOTH",
"248 3 OFFCURVE",
"308 0 OFFCURVE",
"338 0 CURVE SMOOTH",
"484 0 OFFCURVE",
"578 76 OFFCURVE",
"578 194 CURVE SMOOTH",
"578 294 OFFCURVE",
"507 356 OFFCURVE",
"374 374 CURVE",
"374 376 LINE",
"472 406 OFFCURVE",
"526 467 OFFCURVE",
"526 550 CURVE SMOOTH",
"526 648 OFFCURVE",
"447 707 OFFCURVE",
"315 707 CURVE SMOOTH",
"291 707 OFFCURVE",
"227 705 OFFCURVE",
"164 705 CURVE SMOOTH",
"112 705 OFFCURVE",
"67 706 OFFCURVE",
"42 708 CURVE"
);
},
{
closed = 1;
nodes = (
"386 688 OFFCURVE",
"430 641 OFFCURVE",
"430 539 CURVE SMOOTH",
"430 430 OFFCURVE",
"381 376 OFFCURVE",
"283 376 CURVE SMOOTH",
"197 376 LINE",
"197 359 LINE",
"300 359 LINE SMOOTH",
"420 359 OFFCURVE",
"478 306 OFFCURVE",
"478 198 CURVE SMOOTH",
"478 81 OFFCURVE",
"416 23 OFFCURVE",
"291 23 CURVE SMOOTH",
"228 23 OFFCURVE",
"216 37 OFFCURVE",
"216 106 CURVE SMOOTH",
"216 602 LINE SMOOTH",
"216 672 OFFCURVE",
"230 688 OFFCURVE",
"290 688 CURVE SMOOTH"
);
}
);
width = 623;
},
{
anchors = (
{
name = bottom;
position = "{352, 0}";
},
{
name = top;
position = "{352, 708}";
}
);
layerId = "39933D6F-F4A7-4C4E-8677-28C34DBED807";
paths = (
{
closed = 1;
nodes = (
"28 688 LINE",
"89 685 OFFCURVE",
"99 673 OFFCURVE",
"99 602 CURVE SMOOTH",
"99 106 LINE SMOOTH",
"99 34 OFFCURVE",
"90 23 OFFCURVE",
"28 20 CURVE",
"28 0 LINE",
"59 2 OFFCURVE",
"124 3 OFFCURVE",
"196 3 CURVE SMOOTH",
"296 3 OFFCURVE",
"347 0 OFFCURVE",
"386 0 CURVE SMOOTH",
"574 0 OFFCURVE",
"684 68 OFFCURVE",
"684 184 CURVE SMOOTH",
"684 295 OFFCURVE",
"585 361 OFFCURVE",
"401 371 CURVE",
"401 373 LINE",
"539 391 OFFCURVE",
"632 463 OFFCURVE",
"632 553 CURVE SMOOTH",
"632 648 OFFCURVE",
"528 707 OFFCURVE",
"362 707 CURVE SMOOTH",
"331 707 OFFCURVE",
"273 705 OFFCURVE",
"194 705 CURVE SMOOTH",
"124 705 OFFCURVE",
"59 706 OFFCURVE",
"28 708 CURVE"
);
},
{
closed = 1;
nodes = (
"404 688 OFFCURVE",
"426 645 OFFCURVE",
"426 543 CURVE SMOOTH",
"426 429 OFFCURVE",
"395 376 OFFCURVE",
"329 376 CURVE SMOOTH",
"243 376 LINE",
"243 359 LINE",
"316 359 LINE SMOOTH",
"425 359 OFFCURVE",
"474 303 OFFCURVE",
"474 180 CURVE SMOOTH",
"474 73 OFFCURVE",
"438 23 OFFCURVE",
"360 23 CURVE SMOOTH",
"314 23 OFFCURVE",
"302 40 OFFCURVE",
"302 106 CURVE SMOOTH",
"302 602 LINE SMOOTH",
"302 670 OFFCURVE",
"312 688 OFFCURVE",
"351 688 CURVE SMOOTH"
);
}
);
width = 704;
},
{
anchors = (
{
name = bottom;
position = "{312, 0}";
},
{
name = top;
position = "{312, 708}";
}
);
background = {
anchors = (
{
name = bottom;
position = "{312, 0}";
},
{
name = top;
position = "{312, 708}";
}
);
paths = (
{
closed = 1;
nodes = (
"42 688 LINE",
"110 685 OFFCURVE",
"123 675 OFFCURVE",
"123 602 CURVE SMOOTH",
"123 106 LINE SMOOTH",
"123 33 OFFCURVE",
"110 23 OFFCURVE",
"42 20 CURVE",
"42 0 LINE",
"70 2 OFFCURVE",
"119 3 OFFCURVE",
"166 3 CURVE SMOOTH",
"248 3 OFFCURVE",
"308 0 OFFCURVE",
"338 0 CURVE SMOOTH",
"488 0 OFFCURVE",
"578 80 OFFCURVE",
"578 194 CURVE SMOOTH",
"578 275 OFFCURVE",
"532 353 OFFCURVE",
"374 374 CURVE",
"374 376 LINE",
"486 410 OFFCURVE",
"526 479 OFFCURVE",
"526 550 CURVE SMOOTH",
"526 642 OFFCURVE",
"455 707 OFFCURVE",
"315 707 CURVE SMOOTH",
"291 707 OFFCURVE",
"227 705 OFFCURVE",
"164 705 CURVE SMOOTH",
"120 705 OFFCURVE",
"70 706 OFFCURVE",
"42 708 CURVE"
);
},
{
closed = 1;
nodes = (
"390 688 OFFCURVE",
"430 637 OFFCURVE",
"430 539 CURVE SMOOTH",
"430 452 OFFCURVE",
"401 376 OFFCURVE",
"283 376 CURVE SMOOTH",
"197 376 LINE",
"197 376 OFFCURVE",
"197 359 OFFCURVE",
"197 359 CURVE",
"300 359 LINE SMOOTH",
"427 359 OFFCURVE",
"478 300 OFFCURVE",
"478 198 CURVE SMOOTH",
"478 86 OFFCURVE",
"422 23 OFFCURVE",
"291 23 CURVE SMOOTH",
"229 23 OFFCURVE",
"216 36 OFFCURVE",
"216 106 CURVE SMOOTH",
"216 602 LINE SMOOTH",
"216 671 OFFCURVE",
"229 688 OFFCURVE",
"290 688 CURVE SMOOTH"
);
}
);
};
layerId = "DF17D77B-A5C4-4843-826A-BC0F1C4CB224";
paths = (
{
closed = 1;
nodes = (
"42 707 LINE",
"112 704 OFFCURVE",
"123 692 OFFCURVE",
"123 621 CURVE SMOOTH",
"123 87 LINE SMOOTH",
"123 16 OFFCURVE",
"112 4 OFFCURVE",
"42 1 CURVE",
"42 0 LINE",
"67 2 OFFCURVE",
"112 3 OFFCURVE",
"166 3 CURVE SMOOTH",
"248 3 OFFCURVE",
"308 0 OFFCURVE",
"338 0 CURVE SMOOTH",
"484 0 OFFCURVE",
"578 76 OFFCURVE",
"578 194 CURVE SMOOTH",
"578 299 OFFCURVE",
"488 358 OFFCURVE",
"315 368 CURVE",
"315 369 LINE",
"442 386 OFFCURVE",
"526 458 OFFCURVE",
"526 550 CURVE SMOOTH",
"526 648 OFFCURVE",
"447 707 OFFCURVE",
"315 707 CURVE SMOOTH",
"291 707 OFFCURVE",
"227 705 OFFCURVE",
"164 705 CURVE SMOOTH",
"112 705 OFFCURVE",
"67 706 OFFCURVE",
"42 708 CURVE"
);
},
{
closed = 1;
nodes = (
"386 706 OFFCURVE",
"430 654 OFFCURVE",
"430 539 CURVE SMOOTH",
"430 425 OFFCURVE",
"381 368 OFFCURVE",
"283 368 CURVE SMOOTH",
"197 368 LINE",
"197 367 LINE",
"300 367 LINE SMOOTH",
"420 367 OFFCURVE",
"478 312 OFFCURVE",
"478 198 CURVE SMOOTH",
"478 67 OFFCURVE",
"416 2 OFFCURVE",
"291 2 CURVE SMOOTH",
"228 2 OFFCURVE",
"216 16 OFFCURVE",
"216 87 CURVE SMOOTH",
"216 621 LINE SMOOTH",
"216 690 OFFCURVE",
"230 706 OFFCURVE",
"290 706 CURVE SMOOTH"
);
}
);
width = 623;
},
{
anchors = (
{
name = bottom;
position = "{312, 0}";
},
{
name = top;
position = "{312, 708}";
}
);
layerId = "7300F074-2CFD-43CC-B20F-1BF1EAE6C2C7";
paths = (
{
closed = 1;
nodes = (
"42 638 LINE",
"112 635 OFFCURVE",
"123 623 OFFCURVE",
"123 552 CURVE SMOOTH",
"123 156 LINE SMOOTH",
"123 85 OFFCURVE",
"112 73 OFFCURVE",
"42 70 CURVE",
"42 0 LINE",
"65 2 OFFCURVE",
"111 3 OFFCURVE",
"162 3 CURVE SMOOTH",
"251 3 OFFCURVE",
"308 0 OFFCURVE",
"337 0 CURVE SMOOTH",
"486 0 OFFCURVE",
"578 79 OFFCURVE",
"578 202 CURVE SMOOTH",
"578 301 OFFCURVE",
"519 362 OFFCURVE",
"424 381 CURVE",
"424 383 LINE",
"488 409 OFFCURVE",
"526 465 OFFCURVE",
"526 539 CURVE SMOOTH",
"526 643 OFFCURVE",
"450 707 OFFCURVE",
"315 707 CURVE SMOOTH",
"291 707 OFFCURVE",
"230 705 OFFCURVE",
"160 705 CURVE SMOOTH",
"110 705 OFFCURVE",
"65 706 OFFCURVE",
"42 708 CURVE"
);
},
{
closed = 1;
nodes = (
"387 638 OFFCURVE",
"430 603 OFFCURVE",
"430 526 CURVE SMOOTH",
"430 443 OFFCURVE",
"380 401 OFFCURVE",
"283 401 CURVE SMOOTH",
"197 401 LINE",
"197 334 LINE",
"300 334 LINE SMOOTH",
"421 334 OFFCURVE",
"478 293 OFFCURVE",
"478 208 CURVE SMOOTH",
"478 118 OFFCURVE",
"415 73 OFFCURVE",
"293 73 CURVE SMOOTH",
"228 73 OFFCURVE",
"216 86 OFFCURVE",
"216 156 CURVE SMOOTH",
"216 552 LINE SMOOTH",
"216 623 OFFCURVE",
"230 638 OFFCURVE",
"292 638 CURVE SMOOTH"
);
}
);
width = 623;
}
);
leftKerningGroup = I;
unicode = 0042;
},
{
glyphname = C;
lastChange = "2017-11-16 11:54:42 +0000";
layers = (
{
anchors = (
{
name = bottom;
position = "{374, 0}";
},
{
name = top;
position = "{364, 708}";
}
);
hints = (
{
horizontal = 1;
origin = "{0, 25}";
target = "{0, 39}";
},
{
horizontal = 1;
origin = "{0, 5}";
target = "{0, 19}";
}
);
layerId = UUID0;
paths = (
{
closed = 1;
nodes = (
"183 722 OFFCURVE",
"53 571 OFFCURVE",
"53 345 CURVE SMOOTH",
"53 127 OFFCURVE",
"175 -14 OFFCURVE",
"368 -14 CURVE SMOOTH",
"507 -14 OFFCURVE",
"547 59 OFFCURVE",
"576 59 CURVE SMOOTH",
"589 59 OFFCURVE",
"596 42 OFFCURVE",
"600 0 CURVE",
"623 0 LINE",
"620 48 OFFCURVE",
"619 112 OFFCURVE",
"619 240 CURVE",
"596 240 LINE",
"578 83 OFFCURVE",
"495 6 OFFCURVE",
"383 6 CURVE SMOOTH",
"234 6 OFFCURVE",
"153 141 OFFCURVE",
"153 357 CURVE SMOOTH",
"153 567 OFFCURVE",
"230 704 OFFCURVE",
"374 704 CURVE SMOOTH",
"474 704 OFFCURVE",
"572 639 OFFCURVE",
"596 478 CURVE",
"619 478 LINE",
"619 600 OFFCURVE",
"620 661 OFFCURVE",
"623 708 CURVE",
"600 708 LINE",
"596 666 OFFCURVE",
"587 648 OFFCURVE",
"575 648 CURVE SMOOTH",
"551 648 OFFCURVE",
"504 722 OFFCURVE",
"372 722 CURVE SMOOTH"
);
}
);
width = 688;
},
{
anchors = (
{
name = bottom;
position = "{417, 0}";
},
{
name = top;
position = "{389, 708}";
}
);
background = {
anchors = (
{
name = bottom;
position = "{417, 0}";
},
{
name = top;
position = "{389, 708}";
}
);
paths = (
{
closed = 1;
nodes = (
"192 722 OFFCURVE",
"36 572 OFFCURVE",
"36 348 CURVE SMOOTH",
"36 119 OFFCURVE",
"187 -14 OFFCURVE",
"413 -14 CURVE SMOOTH",
"544 -14 OFFCURVE",
"590 59 OFFCURVE",
"619 59 CURVE SMOOTH",
"633 59 OFFCURVE",
"639 41 OFFCURVE",
"643 0 CURVE",
"666 0 LINE",
"663 55 OFFCURVE",
"662 129 OFFCURVE",
"662 260 CURVE",
"639 260 LINE",
"630 151 OFFCURVE",
"614 84 OFFCURVE",
"547 43 CURVE SMOOTH",
"519 25 OFFCURVE",
"487 13 OFFCURVE",
"454 13 CURVE SMOOTH",
"301 13 OFFCURVE",
"266 202 OFFCURVE",
"266 352 CURVE SMOOTH",
"266 502 OFFCURVE",
"301 691 OFFCURVE",
"454 691 CURVE SMOOTH",
"487 691 OFFCURVE",
"519 679 OFFCURVE",
"547 661 CURVE SMOOTH",
"614 617 OFFCURVE",
"630 554 OFFCURVE",
"639 458 CURVE",
"662 458 LINE",
"662 584 OFFCURVE",
"663 655 OFFCURVE",
"666 708 CURVE",
"643 708 LINE",
"639 667 OFFCURVE",
"631 648 OFFCURVE",
"617 648 CURVE SMOOTH",
"595 648 OFFCURVE",
"548 722 OFFCURVE",
"414 722 CURVE SMOOTH"
);
}
);
};
layerId = "39933D6F-F4A7-4C4E-8677-28C34DBED807";
paths = (
{
closed = 1;
nodes = (
"190 722 OFFCURVE",
"36 570 OFFCURVE",
"36 346 CURVE SMOOTH",
"36 125 OFFCURVE",
"187 -14 OFFCURVE",
"397 -14 CURVE SMOOTH",
"550 -14 OFFCURVE",
"583 59 OFFCURVE",
"617 59 CURVE SMOOTH",
"633 59 OFFCURVE",
"639 41 OFFCURVE",
"643 0 CURVE",
"666 0 LINE",
"663 52 OFFCURVE",
"662 122 OFFCURVE",
"662 260 CURVE",
"639 260 LINE",
"626 112 OFFCURVE",
"566 21 OFFCURVE",
"464 21 CURVE SMOOTH",
"346 21 OFFCURVE",
"266 143 OFFCURVE",
"266 351 CURVE SMOOTH",
"266 560 OFFCURVE",
"347 683 OFFCURVE",
"463 683 CURVE SMOOTH",
"566 683 OFFCURVE",
"626 585 OFFCURVE",
"639 458 CURVE",
"662 458 LINE",
"662 591 OFFCURVE",
"663 658 OFFCURVE",
"666 708 CURVE",
"643 708 LINE",
"639 667 OFFCURVE",
"631 648 OFFCURVE",
"617 648 CURVE SMOOTH",
"589 648 OFFCURVE",
"537 722 OFFCURVE",
"394 722 CURVE SMOOTH"
);
}
);
width = 717;
},
{
anchors = (
{
name = bottom;
position = "{374, 0}";
},
{
name = top;
position = "{364, 708}";
}
);
background = {
anchors = (
{
name = bottom;
position = "{374, 0}";
},
{
name = top;
position = "{364, 708}";
}
);
paths = (
{
closed = 1;
nodes = (
"185 722 OFFCURVE",
"53 572 OFFCURVE",
"53 348 CURVE SMOOTH",
"53 119 OFFCURVE",
"180 -14 OFFCURVE",
"370 -14 CURVE SMOOTH",
"456 -14 OFFCURVE",
"506 16 OFFCURVE",
"555 51 CURVE SMOOTH",
"584 70 OFFCURVE",
"595 57 OFFCURVE",
"600 0 CURVE",
"623 0 LINE",
"620 51 OFFCURVE",
"619 119 OFFCURVE",
"619 240 CURVE",
"596 240 LINE",
"586 159 OFFCURVE",
"579 121 OFFCURVE",
"550 82 CURVE SMOOTH",
"512 28 OFFCURVE",
"439 6 OFFCURVE",
"379 6 CURVE SMOOTH",
"250 6 OFFCURVE",
"153 129 OFFCURVE",
"153 352 CURVE SMOOTH",
"153 569 OFFCURVE",
"239 704 OFFCURVE",
"369 704 CURVE SMOOTH",
"438 704 OFFCURVE",
"504 680 OFFCURVE",
"546 626 CURVE SMOOTH",
"574 590 OFFCURVE",
"582 563 OFFCURVE",
"596 478 CURVE",
"619 478 LINE",
"619 594 OFFCURVE",
"620 659 OFFCURVE",
"623 708 CURVE",
"600 708 LINE",
"595 651 OFFCURVE",
"581 637 OFFCURVE",
"555 657 CURVE SMOOTH",
"511 691 OFFCURVE",
"459 722 OFFCURVE",
"371 722 CURVE SMOOTH"
);
}
);
};
layerId = "DF17D77B-A5C4-4843-826A-BC0F1C4CB224";
paths = (
{
closed = 1;
nodes = (
"183 722 OFFCURVE",
"53 570 OFFCURVE",
"53 345 CURVE SMOOTH",
"53 128 OFFCURVE",
"175 -14 OFFCURVE",
"368 -14 CURVE SMOOTH",
"493 -14 OFFCURVE",
"554 59 OFFCURVE",
"592 59 CURVE SMOOTH",
"609 59 OFFCURVE",
"618 45 OFFCURVE",
"622 0 CURVE",
"623 0 LINE",
"620 48 OFFCURVE",
"619 112 OFFCURVE",
"619 240 CURVE",
"618 240 LINE",
"601 79 OFFCURVE",
"505 -13 OFFCURVE",
"368 -13 CURVE SMOOTH",
"237 -13 OFFCURVE",
"153 134 OFFCURVE",
"153 355 CURVE SMOOTH",
"153 578 OFFCURVE",
"234 721 OFFCURVE",
"370 721 CURVE SMOOTH",
"496 721 OFFCURVE",
"594 632 OFFCURVE",
"618 478 CURVE",
"619 478 LINE",
"619 600 OFFCURVE",
"620 661 OFFCURVE",
"623 708 CURVE",
"622 708 LINE",
"618 665 OFFCURVE",
"609 648 OFFCURVE",
"590 648 CURVE SMOOTH",
"551 648 OFFCURVE",
"488 722 OFFCURVE",
"370 722 CURVE SMOOTH"
);
}
);
width = 688;
},
{
anchors = (
{
name = bottom;
position = "{374, 0}";
},
{
name = top;
position = "{364, 708}";
}
);
layerId = "7300F074-2CFD-43CC-B20F-1BF1EAE6C2C7";
paths = (
{
closed = 1;
nodes = (
"173 722 OFFCURVE",
"53 571 OFFCURVE",
"53 345 CURVE SMOOTH",
"53 127 OFFCURVE",
"165 -14 OFFCURVE",
"343 -14 CURVE SMOOTH",
"465 -14 OFFCURVE",
"500 59 OFFCURVE",
"526 59 CURVE SMOOTH",
"539 59 OFFCURVE",
"546 42 OFFCURVE",
"550 0 CURVE",
"623 0 LINE",
"620 58 OFFCURVE",
"619 135 OFFCURVE",
"619 290 CURVE",
"546 290 LINE",
"530 132 OFFCURVE",
"447 54 OFFCURVE",
"358 54 CURVE SMOOTH",
"225 54 OFFCURVE",
"153 171 OFFCURVE",
"153 357 CURVE SMOOTH",
"153 537 OFFCURVE",
"221 654 OFFCURVE",
"349 654 CURVE SMOOTH",
"438 654 OFFCURVE",
"525 589 OFFCURVE",
"546 428 CURVE",
"619 428 LINE",
"619 577 OFFCURVE",
"620 651 OFFCURVE",
"623 708 CURVE",
"550 708 LINE",
"546 666 OFFCURVE",
"537 648 OFFCURVE",
"525 648 CURVE SMOOTH",
"504 648 OFFCURVE",
"463 722 OFFCURVE",
"347 722 CURVE SMOOTH"
);
}
);
width = 688;
}
);
leftKerningGroup = O;
rightKerningGroup = C;
unicode = 0043;
},
{
glyphname = D;
lastChange = "2017-11-15 16:05:00 +0000";
layers = (
{
anchors = (
{
name = bottom;
position = "{342, 0}";
},
{
name = center;
position = "{186, 356}";
},
{
name = top;
position = "{315, 708}";
}
);
hints = (
{
horizontal = 1;
origin = "{0, 5}";
target = "{0, 6}";
},
{
horizontal = 1;
origin = "{0, 14}";
target = "{0, 13}";
}
);
layerId = UUID0;
paths = (
{
closed = 1;
nodes = (
"279 708 OFFCURVE",
"210 706 OFFCURVE",
"164 705 CURVE SMOOTH",
"118 704 OFFCURVE",
"76 705 OFFCURVE",
"42 708 CURVE",
"42 688 LINE",
"112 685 OFFCURVE",
"123 673 OFFCURVE",
"123 602 CURVE SMOOTH",
"123 106 LINE SMOOTH",
"123 35 OFFCURVE",
"112 23 OFFCURVE",
"42 20 CURVE",
"42 0 LINE",
"67 2 OFFCURVE",
"117 3 OFFCURVE",
"155 3 CURVE SMOOTH",
"220 3 OFFCURVE",
"272 0 OFFCURVE",
"306 0 CURVE SMOOTH",
"530 0 OFFCURVE",
"668 134 OFFCURVE",
"668 369 CURVE SMOOTH",
"668 588 OFFCURVE",
"548 708 OFFCURVE",
"310 708 CURVE SMOOTH"
);
},
{
closed = 1;
nodes = (
"487 690 OFFCURVE",
"568 591 OFFCURVE",
"568 354 CURVE SMOOTH",
"568 120 OFFCURVE",
"489 18 OFFCURVE",
"295 18 CURVE SMOOTH",
"229 18 OFFCURVE",
"216 30 OFFCURVE",
"216 104 CURVE SMOOTH",
"216 604 LINE SMOOTH",
"216 678 OFFCURVE",
"230 690 OFFCURVE",
"296 690 CURVE SMOOTH"
);
}
);
width = 723;
},
{
anchors = (
{
name = bottom;
position = "{386, 0}";
},
{
name = center;
position = "{210, 356}";
},
{
name = top;
position = "{361, 708}";
}
);
layerId = "39933D6F-F4A7-4C4E-8677-28C34DBED807";
paths = (
{
closed = 1;
nodes = (
"320 708 OFFCURVE",
"230 706 OFFCURVE",
"200 705 CURVE SMOOTH",
"145 704 OFFCURVE",
"74 705 OFFCURVE",
"28 708 CURVE",
"28 688 LINE",
"89 685 OFFCURVE",
"99 673 OFFCURVE",
"99 602 CURVE SMOOTH",
"99 106 LINE SMOOTH",
"99 34 OFFCURVE",
"90 23 OFFCURVE",
"28 20 CURVE",
"28 0 LINE",
"61 2 OFFCURVE",
"134 3 OFFCURVE",
"182 3 CURVE SMOOTH",
"266 3 OFFCURVE",
"313 0 OFFCURVE",
"352 0 CURVE SMOOTH",
"612 0 OFFCURVE",
"774 135 OFFCURVE",
"774 370 CURVE SMOOTH",
"774 588 OFFCURVE",
"634 708 OFFCURVE",
"356 708 CURVE SMOOTH"
);
},
{
closed = 1;
nodes = (
"505 690 OFFCURVE",
"564 590 OFFCURVE",
"564 356 CURVE SMOOTH",
"564 121 OFFCURVE",
"505 18 OFFCURVE",
"371 18 CURVE SMOOTH",
"315 18 OFFCURVE",
"302 36 OFFCURVE",
"302 104 CURVE SMOOTH",
"302 604 LINE SMOOTH",
"302 672 OFFCURVE",
"316 690 OFFCURVE",
"372 690 CURVE SMOOTH"
);
}
);
width = 811;
},
{
anchors = (
{
name = bottom;
position = "{342, 0}";
},
{
name = center;
position = "{186, 356}";
},
{
name = top;
position = "{315, 708}";
}
);
background = {
paths = (
{
closed = 1;
nodes = (
"277 708 OFFCURVE",
"210 706 OFFCURVE",
"164 705 CURVE SMOOTH",
"120 704 OFFCURVE",
"70 706 OFFCURVE",
"42 708 CURVE",
"42 688 LINE",
"110 685 OFFCURVE",
"123 675 OFFCURVE",
"123 602 CURVE SMOOTH",
"123 106 LINE SMOOTH",
"123 33 OFFCURVE",
"110 23 OFFCURVE",
"42 20 CURVE",
"42 0 LINE",
"70 2 OFFCURVE",
"119 3 OFFCURVE",
"166 3 CURVE SMOOTH",
"209 3 OFFCURVE",
"276 0 OFFCURVE",
"306 0 CURVE SMOOTH",
"536 0 OFFCURVE",
"668 144 OFFCURVE",
"668 362 CURVE SMOOTH",
"668 585 OFFCURVE",
"553 708 OFFCURVE",
"315 708 CURVE SMOOTH"
);
},
{
closed = 1;
nodes = (
"497 690 OFFCURVE",
"568 582 OFFCURVE",
"568 358 CURVE SMOOTH",
"568 140 OFFCURVE",
"509 18 OFFCURVE",
"291 18 CURVE SMOOTH",
"229 18 OFFCURVE",
"216 34 OFFCURVE",
"216 104 CURVE SMOOTH",
"216 604 LINE SMOOTH",
"216 673 OFFCURVE",
"229 690 OFFCURVE",
"290 690 CURVE SMOOTH"
);
}
);
};
layerId = "DF17D77B-A5C4-4843-826A-BC0F1C4CB224";
paths = (
{
closed = 1;
nodes = (
"279 708 OFFCURVE",
"210 705 OFFCURVE",
"164 705 CURVE SMOOTH",
"118 705 OFFCURVE",
"76 706 OFFCURVE",
"42 708 CURVE",
"42 707 LINE",
"112 702 OFFCURVE",
"123 692 OFFCURVE",
"123 621 CURVE SMOOTH",
"123 87 LINE SMOOTH",
"123 16 OFFCURVE",
"112 6 OFFCURVE",
"42 1 CURVE",
"42 0 LINE",
"67 1 OFFCURVE",
"117 3 OFFCURVE",
"155 3 CURVE SMOOTH",
"220 3 OFFCURVE",
"272 0 OFFCURVE",
"306 0 CURVE SMOOTH",
"530 0 OFFCURVE",
"668 134 OFFCURVE",
"668 369 CURVE SMOOTH",
"668 588 OFFCURVE",
"548 708 OFFCURVE",
"310 708 CURVE SMOOTH"
);
},
{
closed = 1;
nodes = (
"487 707 OFFCURVE",
"568 603 OFFCURVE",
"568 354 CURVE SMOOTH",
"568 108 OFFCURVE",
"489 1 OFFCURVE",
"297 1 CURVE SMOOTH",
"230 1 OFFCURVE",
"216 14 OFFCURVE",
"216 85 CURVE SMOOTH",
"216 623 LINE SMOOTH",
"216 694 OFFCURVE",
"230 707 OFFCURVE",
"297 707 CURVE SMOOTH"
);
}
);
width = 723;
},
{
anchors = (
{
name = bottom;
position = "{342, 0}";
},
{
name = center;
position = "{186, 356}";
},
{
name = top;
position = "{315, 708}";
}
);
layerId = "7300F074-2CFD-43CC-B20F-1BF1EAE6C2C7";
paths = (
{
closed = 1;
nodes = (
"279 708 OFFCURVE",
"210 706 OFFCURVE",
"164 705 CURVE SMOOTH",
"118 704 OFFCURVE",
"76 705 OFFCURVE",
"42 708 CURVE",
"42 638 LINE",
"112 635 OFFCURVE",
"123 623 OFFCURVE",
"123 552 CURVE SMOOTH",
"123 156 LINE SMOOTH",
"123 85 OFFCURVE",
"112 73 OFFCURVE",
"42 70 CURVE",
"42 0 LINE",
"67 2 OFFCURVE",
"117 3 OFFCURVE",
"155 3 CURVE SMOOTH",
"220 3 OFFCURVE",
"272 0 OFFCURVE",
"306 0 CURVE SMOOTH",
"530 0 OFFCURVE",
"668 134 OFFCURVE",
"668 369 CURVE SMOOTH",
"668 588 OFFCURVE",
"548 708 OFFCURVE",
"310 708 CURVE SMOOTH"
);
},
{
closed = 1;
nodes = (
"487 640 OFFCURVE",
"568 556 OFFCURVE",
"568 354 CURVE SMOOTH",
"568 155 OFFCURVE",
"489 68 OFFCURVE",
"295 68 CURVE SMOOTH",
"229 68 OFFCURVE",
"216 80 OFFCURVE",
"216 154 CURVE SMOOTH",
"216 554 LINE SMOOTH",
"216 628 OFFCURVE",
"230 640 OFFCURVE",
"296 640 CURVE SMOOTH"
);
}
);
width = 723;
}
);
leftKerningGroup = I;
rightKerningGroup = D;
unicode = 0044;
},
{
color = 5;
glyphname = Eth;
lastChange = "2017-11-14 23:31:14 +0000";
layers = (
{
background = {
components = (
{
name = D;
transform = "{1, 0, 0, 1, 1, 0}";
}
);
paths = (
{
closed = 1;
nodes = (
"43 366 LINE",
"43 346 LINE",
"356 346 LINE",
"356 366 LINE"
);
}
);
};
components = (
{
name = D;
},
{
name = strokeshortoverlaycomb;
transform = "{1, 0, 0, 1, -11, -262}";
}
);
layerId = UUID0;
width = 723;
},
{
background = {
components = (
{
name = D;
}
);
paths = (
{
closed = 1;
nodes = (
"28 366 LINE",
"28 346 LINE",
"416 346 LINE",
"416 366 LINE"
);
}
);
};
components = (
{
name = D;
},
{
name = strokeshortoverlaycomb;
transform = "{1, 0, 0, 1, -12, -262}";
}
);
layerId = "39933D6F-F4A7-4C4E-8677-28C34DBED807";
width = 811;
},
{
background = {
components = (
{
name = D;
transform = "{1, 0, 0, 1, 1, 0}";
}
);
paths = (
{
closed = 1;
nodes = (
"43 366 LINE",
"43 346 LINE",
"356 346 LINE",
"356 366 LINE"
);
}
);
};
components = (
{
name = D;
},
{
name = strokeshortoverlaycomb;
transform = "{1, 0, 0, 1, -11, -262}";
}
);
layerId = "DF17D77B-A5C4-4843-826A-BC0F1C4CB224";
width = 723;
},
{
background = {
components = (
{
name = D;
transform = "{1, 0, 0, 1, 1, 0}";
}
);
paths = (
{
closed = 1;
nodes = (
"43 366 LINE",
"43 346 LINE",
"356 346 LINE",
"356 366 LINE"
);
}
);
};
components = (
{
name = D;
},
{
name = strokeshortoverlaycomb;
transform = "{1, 0, 0, 1, -11, -262}";
}
);
layerId = "7300F074-2CFD-43CC-B20F-1BF1EAE6C2C7";
width = 723;
}
);
leftKerningGroup = I;
rightKerningGroup = D;
unicode = 00D0;
},
{
glyphname = E;
lastChange = "2017-11-15 22:30:28 +0000";
layers = (
{
anchors = (
{
name = bottom;
position = "{325, 0}";
},
{
name = ogonek;
position = "{561, 0}";
},
{
name = top;
position = "{306, 708}";
}
);
hints = (
{
horizontal = 1;
origin = "{0, 5}";
target = "{0, 6}";
},
{
horizontal = 1;
origin = "{0, 14}";
target = "{0, 13}";
},
{
horizontal = 1;
origin = "{2, 4}";
target = "{2, 3}";
}
);
layerId = UUID0;
paths = (
{
closed = 1;
nodes = (
"479 705 OFFCURVE",
"393 705 OFFCURVE",
"332 705 CURVE SMOOTH",
"272 705 OFFCURVE",
"140 705 OFFCURVE",
"42 708 CURVE",
"42 688 LINE",
"110 685 OFFCURVE",
"123 675 OFFCURVE",
"123 602 CURVE SMOOTH",
"123 106 LINE SMOOTH",
"123 33 OFFCURVE",
"110 23 OFFCURVE",
"42 20 CURVE",
"42 0 LINE",
"140 3 OFFCURVE",
"272 3 OFFCURVE",
"332 3 CURVE SMOOTH",
"399 3 OFFCURVE",
"493 3 OFFCURVE",
"561 0 CURVE",
"556 51 OFFCURVE",
"554 103 OFFCURVE",
"554 128 CURVE SMOOTH",
"554 156 OFFCURVE",
"555 182 OFFCURVE",
"557 200 CURVE",
"534 200 LINE",
"520 68 OFFCURVE",
"495 23 OFFCURVE",
"370 23 CURVE SMOOTH",
"297 23 LINE SMOOTH",
"229 23 OFFCURVE",
"216 33 OFFCURVE",
"216 106 CURVE SMOOTH",
"216 602 LINE SMOOTH",
"216 675 OFFCURVE",
"229 685 OFFCURVE",
"297 685 CURVE SMOOTH",
"380 685 LINE SMOOTH",
"486 685 OFFCURVE",
"501 646 OFFCURVE",
"514 528 CURVE",
"537 528 LINE",
"535 543 OFFCURVE",
"534 566 OFFCURVE",
"534 590 CURVE SMOOTH",
"534 613 OFFCURVE",
"536 661 OFFCURVE",
"541 708 CURVE"
);
},
{
closed = 1;
nodes = (
"186 366 LINE",
"186 346 LINE",
"369 346 LINE",
"369 366 LINE"
);
},
{
closed = 1;
nodes = (
"375 498 LINE",
"367 450 OFFCURVE",
"369 366 OFFCURVE",
"282 366 CURVE",
"282 346 LINE",
"369 346 OFFCURVE",
"370 278 OFFCURVE",
"378 214 CURVE",
"401 214 LINE",
"396 290 OFFCURVE",
"395 323 OFFCURVE",
"395 356 CURVE SMOOTH",
"395 389 OFFCURVE",
"393 422 OFFCURVE",
"398 498 CURVE"
);
}
);
width = 609;
},
{
anchors = (
{
name = bottom;
position = "{325, 0}";
},
{
name = ogonek;
position = "{598, 0}";
},
{
name = top;
position = "{320, 708}";
}
);
layerId = "39933D6F-F4A7-4C4E-8677-28C34DBED807";
paths = (
{
closed = 1;
nodes = (
"525 705 OFFCURVE",
"439 705 OFFCURVE",
"378 705 CURVE SMOOTH",
"306 705 OFFCURVE",
"144 705 OFFCURVE",
"28 708 CURVE",
"28 688 LINE",
"88 685 OFFCURVE",
"99 675 OFFCURVE",
"99 602 CURVE SMOOTH",
"99 106 LINE SMOOTH",
"99 33 OFFCURVE",
"89 23 OFFCURVE",
"28 20 CURVE",
"28 0 LINE",
"144 3 OFFCURVE",
"306 3 OFFCURVE",
"378 3 CURVE SMOOTH",
"445 3 OFFCURVE",
"539 3 OFFCURVE",
"607 0 CURVE",
"600 66 OFFCURVE",
"600 135 OFFCURVE",
"600 168 CURVE SMOOTH",
"600 204 OFFCURVE",
"601 236 OFFCURVE",
"603 260 CURVE",
"580 260 LINE",
"548 79 OFFCURVE",
"462 23 OFFCURVE",
"396 23 CURVE SMOOTH",
"363 23 LINE SMOOTH",
"311 23 OFFCURVE",
"302 31 OFFCURVE",
"302 86 CURVE SMOOTH",
"302 622 LINE SMOOTH",
"302 677 OFFCURVE",
"311 685 OFFCURVE",
"363 685 CURVE SMOOTH",
"376 685 LINE SMOOTH",
"458 685 OFFCURVE",
"535 634 OFFCURVE",
"560 468 CURVE",
"583 468 LINE",
"581 485 OFFCURVE",
"580 512 OFFCURVE",
"580 540 CURVE SMOOTH",
"580 573 OFFCURVE",
"582 641 OFFCURVE",
"587 708 CURVE"
);
},
{
closed = 1;
nodes = (
"272 366 LINE",
"272 346 LINE",
"442 346 LINE",
"442 366 LINE"
);
},
{
closed = 1;
nodes = (
"448 498 LINE",
"436 440 OFFCURVE",
"387 366 OFFCURVE",
"312 366 CURVE",
"312 346 LINE",
"387 346 OFFCURVE",
"439 288 OFFCURVE",
"451 214 CURVE",
"474 214 LINE",
"469 290 OFFCURVE",
"468 323 OFFCURVE",
"468 356 CURVE SMOOTH",
"468 389 OFFCURVE",
"466 422 OFFCURVE",
"471 498 CURVE"
);
}
);
width = 650;
},
{
anchors = (
{
name = bottom;
position = "{325, 0}";
},
{
name = ogonek;
position = "{561, 0}";
},
{
name = top;
position = "{306, 708}";
}
);
background = {
anchors = (
{
name = bottom;
position = "{325, 0}";
},
{
name = ogonek;
position = "{561, 0}";
},
{
name = top;
position = "{306, 708}";
}
);
paths = (
{
closed = 1;
nodes = (
"479 705 OFFCURVE",
"393 705 OFFCURVE",
"332 705 CURVE SMOOTH",
"272 705 OFFCURVE",
"140 705 OFFCURVE",
"42 708 CURVE",
"42 707 LINE",
"110 704 OFFCURVE",
"123 694 OFFCURVE",
"123 621 CURVE SMOOTH",
"123 87 LINE SMOOTH",
"123 14 OFFCURVE",
"110 4 OFFCURVE",
"42 1 CURVE",
"42 0 LINE",
"140 3 OFFCURVE",
"272 3 OFFCURVE",
"332 3 CURVE SMOOTH",
"399 3 OFFCURVE",
"493 3 OFFCURVE",
"561 0 CURVE",
"556 51 OFFCURVE",
"554 103 OFFCURVE",
"554 128 CURVE SMOOTH",
"554 156 OFFCURVE",
"555 182 OFFCURVE",
"557 200 CURVE",
"556 200 LINE",
"540 54 OFFCURVE",
"512 4 OFFCURVE",
"370 4 CURVE SMOOTH",
"297 4 LINE SMOOTH",
"229 4 OFFCURVE",
"216 14 OFFCURVE",
"216 87 CURVE SMOOTH",
"216 621 LINE SMOOTH",
"216 694 OFFCURVE",
"229 704 OFFCURVE",
"297 704 CURVE SMOOTH",
"380 704 LINE SMOOTH",
"503 704 OFFCURVE",
"521 660 OFFCURVE",
"536 528 CURVE",
"537 528 LINE",
"535 543 OFFCURVE",
"534 566 OFFCURVE",
"534 590 CURVE SMOOTH",
"534 613 OFFCURVE",
"536 661 OFFCURVE",
"541 708 CURVE"
);
},
{
closed = 1;
nodes = (
"186 366 LINE",
"186 346 LINE",
"369 346 LINE",
"369 366 LINE"
);
},
{
closed = 1;
nodes = (
"397 498 LINE",
"387 450 OFFCURVE",
"390 366 OFFCURVE",
"282 366 CURVE",
"282 346 LINE",
"389 346 OFFCURVE",
"390 278 OFFCURVE",
"400 214 CURVE",
"401 214 LINE",
"396 290 OFFCURVE",
"395 323 OFFCURVE",
"395 356 CURVE SMOOTH",
"395 389 OFFCURVE",
"393 422 OFFCURVE",
"398 498 CURVE"
);
}
);
};
layerId = "DF17D77B-A5C4-4843-826A-BC0F1C4CB224";
paths = (
{
closed = 1;
nodes = (
"479 705 OFFCURVE",
"393 705 OFFCURVE",
"332 705 CURVE SMOOTH",
"272 705 OFFCURVE",
"140 705 OFFCURVE",
"42 708 CURVE",
"42 707 LINE",
"110 704 OFFCURVE",
"123 694 OFFCURVE",
"123 621 CURVE SMOOTH",
"123 87 LINE SMOOTH",
"123 14 OFFCURVE",
"110 4 OFFCURVE",
"42 1 CURVE",
"42 0 LINE",
"140 3 OFFCURVE",
"272 3 OFFCURVE",
"332 3 CURVE SMOOTH",
"399 3 OFFCURVE",
"493 3 OFFCURVE",
"561 0 CURVE",
"556 51 OFFCURVE",
"554 103 OFFCURVE",
"554 128 CURVE SMOOTH",
"554 156 OFFCURVE",
"555 182 OFFCURVE",
"557 200 CURVE",
"556 200 LINE",
"540 54 OFFCURVE",
"512 4 OFFCURVE",
"370 4 CURVE SMOOTH",
"297 4 LINE SMOOTH",
"229 4 OFFCURVE",
"216 14 OFFCURVE",
"216 87 CURVE SMOOTH",
"216 621 LINE SMOOTH",
"216 694 OFFCURVE",
"229 704 OFFCURVE",
"297 704 CURVE SMOOTH",
"380 704 LINE SMOOTH",
"503 704 OFFCURVE",
"521 660 OFFCURVE",
"536 528 CURVE",
"537 528 LINE",
"535 543 OFFCURVE",
"534 566 OFFCURVE",
"534 590 CURVE SMOOTH",
"534 613 OFFCURVE",
"536 661 OFFCURVE",
"541 708 CURVE"
);
},
{
closed = 1;
nodes = (
"186 357 LINE",
"186 356 LINE",
"369 356 LINE",
"369 357 LINE"
);
},
{
closed = 1;
nodes = (
"397 498 LINE",
"387 447 OFFCURVE",
"390 357 OFFCURVE",
"282 357 CURVE",
"282 356 LINE",
"389 356 OFFCURVE",
"390 283 OFFCURVE",
"400 214 CURVE",
"401 214 LINE",
"396 290 OFFCURVE",
"395 323 OFFCURVE",
"395 356 CURVE SMOOTH",
"395 389 OFFCURVE",
"393 422 OFFCURVE",
"398 498 CURVE"
);
}
);
width = 609;
},
{
anchors = (
{
name = bottom;
position = "{325, 0}";
},
{
name = ogonek;
position = "{561, 0}";
},
{
name = top;
position = "{306, 708}";
}
);
layerId = "7300F074-2CFD-43CC-B20F-1BF1EAE6C2C7";
paths = (
{
closed = 1;
nodes = (
"479 705 OFFCURVE",
"393 705 OFFCURVE",
"332 705 CURVE SMOOTH",
"272 705 OFFCURVE",
"140 705 OFFCURVE",
"42 708 CURVE",
"42 638 LINE",
"110 635 OFFCURVE",
"123 625 OFFCURVE",
"123 552 CURVE SMOOTH",
"123 156 LINE SMOOTH",
"123 83 OFFCURVE",
"110 73 OFFCURVE",
"42 70 CURVE",
"42 0 LINE",
"140 3 OFFCURVE",
"272 3 OFFCURVE",
"332 3 CURVE SMOOTH",
"399 3 OFFCURVE",
"493 3 OFFCURVE",
"561 0 CURVE",
"556 51 OFFCURVE",
"554 103 OFFCURVE",
"554 128 CURVE SMOOTH",
"554 175 OFFCURVE",
"555 220 OFFCURVE",
"557 250 CURVE",
"484 250 LINE",
"470 118 OFFCURVE",
"445 73 OFFCURVE",
"320 73 CURVE SMOOTH",
"297 73 LINE SMOOTH",
"229 73 OFFCURVE",
"216 83 OFFCURVE",
"216 156 CURVE SMOOTH",
"216 552 LINE SMOOTH",
"216 625 OFFCURVE",
"229 635 OFFCURVE",
"297 635 CURVE SMOOTH",
"330 635 LINE SMOOTH",
"436 635 OFFCURVE",
"451 595 OFFCURVE",
"464 478 CURVE",
"537 478 LINE",
"535 505 OFFCURVE",
"534 547 OFFCURVE",
"534 590 CURVE SMOOTH",
"534 613 OFFCURVE",
"536 661 OFFCURVE",
"541 708 CURVE"
);
},
{
closed = 1;
nodes = (
"186 391 LINE",
"186 321 LINE",
"319 321 LINE",
"319 391 LINE"
);
},
{
closed = 1;
nodes = (
"325 498 LINE",
"317 459 OFFCURVE",
"319 391 OFFCURVE",
"232 391 CURVE",
"232 321 LINE",
"319 321 OFFCURVE",
"320 266 OFFCURVE",
"328 214 CURVE",
"391 214 LINE",
"386 290 OFFCURVE",
"385 323 OFFCURVE",
"385 356 CURVE SMOOTH",
"385 389 OFFCURVE",
"383 422 OFFCURVE",
"388 498 CURVE"
);
}
);
width = 609;
}
);
leftKerningGroup = I;
rightKerningGroup = E;
unicode = 0045;
},
{
glyphname = Ezh;
lastChange = "2017-11-14 23:51:51 +0000";
layers = (
{
anchors = (
{
name = bottom;
position = "{297, 0}";
},
{
name = top;
position = "{295, 708}";
}
);
background = {
anchors = (
{
name = bottom;
position = "{297, 0}";
},
{
name = top;
position = "{295, 708}";
}
);
paths = (
{
closed = 1;
nodes = (
"477 705 OFFCURVE",
"383 705 OFFCURVE",
"307 705 CURVE SMOOTH",
"234 705 OFFCURVE",
"132 705 OFFCURVE",
"58 708 CURVE",
"63 657 OFFCURVE",
"65 607 OFFCURVE",
"65 574 CURVE SMOOTH",
"65 550 OFFCURVE",
"64 519 OFFCURVE",
"62 498 CURVE",
"85 498 LINE",
"99 637 OFFCURVE",
"124 685 OFFCURVE",
"249 685 CURVE SMOOTH",
"459 685 LINE",
"286 410 LINE",
"286 390 LINE",
"382 366 OFFCURVE",
"456 304 OFFCURVE",
"456 186 CURVE SMOOTH",
"456 87 OFFCURVE",
"404 6 OFFCURVE",
"286 6 CURVE SMOOTH",
"152 6 OFFCURVE",
"89 109 OFFCURVE",
"81 233 CURVE",
"58 233 LINE",
"58 92 OFFCURVE",
"57 34 OFFCURVE",
"54 -7 CURVE",
"77 -7 LINE",
"81 21 OFFCURVE",
"85 37 OFFCURVE",
"100 37 CURVE SMOOTH",
"109 37 OFFCURVE",
"120 31 OFFCURVE",
"133 23 CURVE SMOOTH",
"157 9 OFFCURVE",
"215 -14 OFFCURVE",
"294 -14 CURVE SMOOTH",
"440 -14 OFFCURVE",
"551 64 OFFCURVE",
"551 187 CURVE SMOOTH",
"551 300 OFFCURVE",
"456 362 OFFCURVE",
"359 394 CURVE",
"354 373 LINE",
"550 688 LINE",
"550 708 LINE"
);
}
);
};
hints = (
{
horizontal = 1;
origin = "{0, 14}";
target = "{0, 21}";
},
{
horizontal = 1;
origin = "{0, 44}";
target = "{0, 30}";
}
);
layerId = UUID0;
paths = (
{
closed = 1;
nodes = (
"446 -14 OFFCURVE",
"551 67 OFFCURVE",
"551 186 CURVE SMOOTH",
"551 280 OFFCURVE",
"484 352 OFFCURVE",
"359 394 CURVE",
"354 373 LINE",
"530 688 LINE",
"530 708 LINE",
"475 706 OFFCURVE",
"408 705 OFFCURVE",
"302 705 CURVE SMOOTH",
"196 705 OFFCURVE",
"115 706 OFFCURVE",
"58 708 CURVE",
"65 616 OFFCURVE",
"67 537 OFFCURVE",
"62 498 CURVE",
"85 498 LINE",
"100 648 OFFCURVE",
"133 685 OFFCURVE",
"249 685 CURVE SMOOTH",
"439 685 LINE",
"286 410 LINE",
"286 390 LINE",
"397 362 OFFCURVE",
"456 292 OFFCURVE",
"456 185 CURVE SMOOTH",
"456 74 OFFCURVE",
"392 6 OFFCURVE",
"286 6 CURVE SMOOTH",
"167 6 OFFCURVE",
"90 91 OFFCURVE",
"81 233 CURVE",
"58 233 LINE",
"58 94 OFFCURVE",
"57 34 OFFCURVE",
"54 -7 CURVE",
"77 -7 LINE",
"82 27 OFFCURVE",
"87 37 OFFCURVE",
"99 37 CURVE SMOOTH",
"124 37 OFFCURVE",
"169 -14 OFFCURVE",
"292 -14 CURVE SMOOTH"
);
}
);
width = 594;
},
{
anchors = (
{
name = bottom;
position = "{304, 0}";
},
{
name = top;
position = "{306, 708}";
}
);
background = {
paths = (
{
closed = 1;
nodes = (
"464 705 OFFCURVE",
"348 705 OFFCURVE",
"248 705 CURVE SMOOTH",
"187 705 OFFCURVE",
"101 705 OFFCURVE",
"39 708 CURVE",
"44 641 OFFCURVE",
"46 574 OFFCURVE",
"46 538 CURVE SMOOTH",
"46 513 OFFCURVE",
"45 485 OFFCURVE",
"43 468 CURVE",
"66 468 LINE",
"89 638 OFFCURVE",
"208 685 OFFCURVE",
"290 685 CURVE SMOOTH",
"340 685 LINE",
"210 400 LINE",
"210 380 LINE",
"325 361 OFFCURVE",
"391 299 OFFCURVE",
"391 192 CURVE SMOOTH",
"391 106 OFFCURVE",
"348 16 OFFCURVE",
"242 16 CURVE SMOOTH",
"118 16 OFFCURVE",
"63 141 OFFCURVE",
"56 283 CURVE",
"33 283 LINE",
"33 112 OFFCURVE",
"32 44 OFFCURVE",
"29 -7 CURVE",
"52 -7 LINE",
"56 22 OFFCURVE",
"61 37 OFFCURVE",
"75 37 CURVE SMOOTH",
"85 37 OFFCURVE",
"100 28 OFFCURVE",
"108 23 CURVE SMOOTH",
"142 3 OFFCURVE",
"201 -14 OFFCURVE",
"279 -14 CURVE SMOOTH",
"470 -14 OFFCURVE",
"576 88 OFFCURVE",
"576 200 CURVE SMOOTH",
"576 295 OFFCURVE",
"500 355 OFFCURVE",
"373 398 CURVE",
"404 341 LINE",
"561 688 LINE",
"561 708 LINE"
);
}
);
};
layerId = "39933D6F-F4A7-4C4E-8677-28C34DBED807";
paths = (
{
closed = 1;
nodes = (
"452 -14 OFFCURVE",
"576 74 OFFCURVE",
"576 199 CURVE SMOOTH",
"576 292 OFFCURVE",
"508 352 OFFCURVE",
"373 378 CURVE",
"394 341 LINE",
"561 688 LINE",
"561 708 LINE",
"464 705 OFFCURVE",
"348 705 OFFCURVE",
"248 705 CURVE SMOOTH",
"187 705 OFFCURVE",
"101 705 OFFCURVE",
"39 708 CURVE",
"46 611 OFFCURVE",
"48 500 OFFCURVE",
"43 468 CURVE",
"66 468 LINE",
"84 599 OFFCURVE",
"173 685 OFFCURVE",
"290 685 CURVE SMOOTH",
"350 685 LINE",
"210 400 LINE",
"210 380 LINE",
"330 360 OFFCURVE",
"391 296 OFFCURVE",
"391 191 CURVE SMOOTH",
"391 86 OFFCURVE",
"331 16 OFFCURVE",
"241 16 CURVE SMOOTH",
"134 16 OFFCURVE",
"64 117 OFFCURVE",
"56 283 CURVE",
"33 283 LINE",
"33 118 OFFCURVE",
"32 46 OFFCURVE",
"29 -7 CURVE",
"52 -7 LINE",
"57 26 OFFCURVE",
"62 37 OFFCURVE",
"73 37 CURVE SMOOTH",
"98 37 OFFCURVE",
"141 -14 OFFCURVE",
"275 -14 CURVE SMOOTH"
);
}
);
width = 607;
},
{
anchors = (
{
name = bottom;
position = "{297, 0}";
},
{
name = top;
position = "{295, 708}";
}
);
background = {
anchors = (
{
name = bottom;
position = "{297, 0}";
},
{
name = top;
position = "{295, 708}";
}
);
paths = (
{
closed = 1;
nodes = (
"477 705 OFFCURVE",
"383 705 OFFCURVE",
"307 705 CURVE SMOOTH",
"234 705 OFFCURVE",
"132 705 OFFCURVE",
"58 708 CURVE",
"63 657 OFFCURVE",
"65 607 OFFCURVE",
"65 574 CURVE SMOOTH",
"65 550 OFFCURVE",
"64 519 OFFCURVE",
"62 498 CURVE",
"85 498 LINE",
"99 637 OFFCURVE",
"124 685 OFFCURVE",
"249 685 CURVE SMOOTH",
"459 685 LINE",
"286 410 LINE",
"286 390 LINE",
"382 366 OFFCURVE",
"456 304 OFFCURVE",
"456 186 CURVE SMOOTH",
"456 87 OFFCURVE",
"404 6 OFFCURVE",
"286 6 CURVE SMOOTH",
"152 6 OFFCURVE",
"89 109 OFFCURVE",
"81 233 CURVE",
"58 233 LINE",
"58 92 OFFCURVE",
"57 34 OFFCURVE",
"54 -7 CURVE",
"77 -7 LINE",
"81 21 OFFCURVE",
"85 37 OFFCURVE",
"100 37 CURVE SMOOTH",
"109 37 OFFCURVE",
"120 31 OFFCURVE",
"133 23 CURVE SMOOTH",
"157 9 OFFCURVE",
"215 -14 OFFCURVE",
"294 -14 CURVE SMOOTH",
"440 -14 OFFCURVE",
"551 64 OFFCURVE",
"551 187 CURVE SMOOTH",
"551 300 OFFCURVE",
"456 362 OFFCURVE",
"359 394 CURVE",
"354 373 LINE",
"550 688 LINE",
"550 708 LINE"
);
}
);
};
layerId = "DF17D77B-A5C4-4843-826A-BC0F1C4CB224";
paths = (
{
closed = 1;
nodes = (
"446 -14 OFFCURVE",
"551 70 OFFCURVE",
"551 184 CURVE SMOOTH",
"551 278 OFFCURVE",
"479 351 OFFCURVE",
"358 364 CURVE",
"359 363 LINE",
"530 707 LINE",
"530 708 LINE",
"472 706 OFFCURVE",
"403 705 OFFCURVE",
"300 705 CURVE SMOOTH",
"197 705 OFFCURVE",
"115 706 OFFCURVE",
"58 708 CURVE",
"65 614 OFFCURVE",
"67 538 OFFCURVE",
"62 498 CURVE",
"63 498 LINE",
"81 654 OFFCURVE",
"126 704 OFFCURVE",
"249 704 CURVE SMOOTH",
"439 704 LINE",
"286 391 LINE",
"286 390 LINE",
"392 364 OFFCURVE",
"456 293 OFFCURVE",
"456 189 CURVE SMOOTH",
"456 72 OFFCURVE",
"375 -6 OFFCURVE",
"257 -6 CURVE SMOOTH",
"132 -6 OFFCURVE",
"67 81 OFFCURVE",
"59 237 CURVE",
"58 237 LINE",
"58 82 OFFCURVE",
"57 33 OFFCURVE",
"53 -7 CURVE",
"54 -7 LINE",
"56 21 OFFCURVE",
"69 37 OFFCURVE",
"89 37 CURVE SMOOTH",
"126 37 OFFCURVE",
"178 -14 OFFCURVE",
"295 -14 CURVE SMOOTH"
);
}
);
width = 600;
},
{
anchors = (
{
name = bottom;
position = "{297, 0}";
},
{
name = top;
position = "{295, 708}";
}
);
background = {
anchors = (
{
name = bottom;
position = "{297, 0}";
},
{
name = top;
position = "{295, 708}";
}
);
paths = (
{
closed = 1;
nodes = (
"477 705 OFFCURVE",
"383 705 OFFCURVE",
"307 705 CURVE SMOOTH",
"234 705 OFFCURVE",
"132 705 OFFCURVE",
"58 708 CURVE",
"63 657 OFFCURVE",
"65 607 OFFCURVE",
"65 574 CURVE SMOOTH",
"65 550 OFFCURVE",
"64 519 OFFCURVE",
"62 498 CURVE",
"85 498 LINE",
"99 637 OFFCURVE",
"124 685 OFFCURVE",
"249 685 CURVE SMOOTH",
"459 685 LINE",
"286 410 LINE",
"286 390 LINE",
"382 366 OFFCURVE",
"456 304 OFFCURVE",
"456 186 CURVE SMOOTH",
"456 87 OFFCURVE",
"404 6 OFFCURVE",
"286 6 CURVE SMOOTH",
"152 6 OFFCURVE",
"89 109 OFFCURVE",
"81 233 CURVE",
"58 233 LINE",
"58 92 OFFCURVE",
"57 34 OFFCURVE",
"54 -7 CURVE",
"77 -7 LINE",
"81 21 OFFCURVE",
"85 37 OFFCURVE",
"100 37 CURVE SMOOTH",
"109 37 OFFCURVE",
"120 31 OFFCURVE",
"133 23 CURVE SMOOTH",
"157 9 OFFCURVE",
"215 -14 OFFCURVE",
"294 -14 CURVE SMOOTH",
"440 -14 OFFCURVE",
"551 64 OFFCURVE",
"551 187 CURVE SMOOTH",
"551 300 OFFCURVE",
"456 362 OFFCURVE",
"359 394 CURVE",
"354 373 LINE",
"550 688 LINE",
"550 708 LINE"
);
}
);
};
layerId = "7300F074-2CFD-43CC-B20F-1BF1EAE6C2C7";
paths = (
{
closed = 1;
nodes = (
"446 -14 OFFCURVE",
"551 67 OFFCURVE",
"551 186 CURVE SMOOTH",
"551 280 OFFCURVE",
"484 352 OFFCURVE",
"359 394 CURVE",
"354 373 LINE",
"530 688 LINE",
"530 708 LINE",
"475 706 OFFCURVE",
"408 705 OFFCURVE",
"302 705 CURVE SMOOTH",
"196 705 OFFCURVE",
"115 706 OFFCURVE",
"58 708 CURVE",
"65 616 OFFCURVE",
"67 537 OFFCURVE",
"62 498 CURVE",
"85 498 LINE",
"100 648 OFFCURVE",
"133 685 OFFCURVE",
"249 685 CURVE SMOOTH",
"439 685 LINE",
"286 410 LINE",
"286 390 LINE",
"397 362 OFFCURVE",
"456 292 OFFCURVE",
"456 185 CURVE SMOOTH",
"456 74 OFFCURVE",
"392 6 OFFCURVE",
"286 6 CURVE SMOOTH",
"167 6 OFFCURVE",
"90 91 OFFCURVE",
"81 233 CURVE",
"58 233 LINE",
"58 94 OFFCURVE",
"57 34 OFFCURVE",
"54 -7 CURVE",
"77 -7 LINE",
"82 27 OFFCURVE",
"87 37 OFFCURVE",
"99 37 CURVE SMOOTH",
"124 37 OFFCURVE",
"169 -14 OFFCURVE",
"292 -14 CURVE SMOOTH"
);
}
);
width = 594;
}
);
leftKerningGroup = Ezh;
rightKerningGroup = Ezh;
unicode = 01B7;
},
{
glyphname = F;
lastChange = "2017-11-15 22:31:45 +0000";
layers = (
{
anchors = (
{
name = bottom;
position = "{170, 0}";
},
{
name = top;
position = "{295, 708}";
}
);
hints = (
{
horizontal = 1;
origin = "{0, 30}";
target = "{0, 31}";
},
{
horizontal = 1;
origin = "{0, 39}";
target = "{0, 38}";
},
{
horizontal = 1;
origin = "{2, 11}";
target = "{2, 10}";
}
);
layerId = UUID0;
paths = (
{
closed = 1;
nodes = (
"70 2 OFFCURVE",
"118 3 OFFCURVE",
"170 3 CURVE SMOOTH",
"224 3 OFFCURVE",
"282 2 OFFCURVE",
"317 0 CURVE",
"317 20 LINE",
"233 23 OFFCURVE",
"216 33 OFFCURVE",
"216 106 CURVE SMOOTH",
"216 602 LINE SMOOTH",
"216 675 OFFCURVE",
"229 685 OFFCURVE",
"297 685 CURVE SMOOTH",
"360 685 LINE SMOOTH",
"485 685 OFFCURVE",
"500 637 OFFCURVE",
"514 498 CURVE",
"537 498 LINE",
"535 519 OFFCURVE",
"534 548 OFFCURVE",
"534 580 CURVE SMOOTH",
"534 605 OFFCURVE",
"536 657 OFFCURVE",
"541 708 CURVE",
"479 705 OFFCURVE",
"393 705 OFFCURVE",
"332 705 CURVE SMOOTH",
"272 705 OFFCURVE",
"140 705 OFFCURVE",
"42 708 CURVE",
"42 688 LINE",
"110 685 OFFCURVE",
"123 675 OFFCURVE",
"123 602 CURVE SMOOTH",
"123 106 LINE SMOOTH",
"123 33 OFFCURVE",
"110 23 OFFCURVE",
"42 20 CURVE",
"42 0 LINE"
);
},
{
closed = 1;
nodes = (
"386 336 LINE",
"386 356 LINE",
"186 356 LINE",
"186 336 LINE"
);
},
{
closed = 1;
nodes = (
"408 204 LINE",
"403 280 OFFCURVE",
"402 313 OFFCURVE",
"402 346 CURVE SMOOTH",
"402 379 OFFCURVE",
"400 412 OFFCURVE",
"405 488 CURVE",
"382 488 LINE",
"374 440 OFFCURVE",
"376 356 OFFCURVE",
"289 356 CURVE",
"289 336 LINE",
"376 336 OFFCURVE",
"377 268 OFFCURVE",
"385 204 CURVE"
);
}
);
width = 569;
},
{
anchors = (
{
name = bottom;
position = "{206, 0}";
},
{
name = top;
position = "{304, 708}";
}
);
layerId = "39933D6F-F4A7-4C4E-8677-28C34DBED807";
paths = (
{
closed = 1;
nodes = (
"82 1 OFFCURVE",
"146 3 OFFCURVE",
"207 3 CURVE SMOOTH",
"290 3 OFFCURVE",
"368 1 OFFCURVE",
"413 0 CURVE SMOOTH",
"413 20 LINE",
"321 23 OFFCURVE",
"302 34 OFFCURVE",
"302 116 CURVE SMOOTH",
"302 622 LINE SMOOTH",
"302 677 OFFCURVE",
"311 685 OFFCURVE",
"363 685 CURVE SMOOTH",
"376 685 LINE SMOOTH",
"448 685 OFFCURVE",
"525 634 OFFCURVE",
"560 468 CURVE",
"583 468 LINE",
"581 485 OFFCURVE",
"580 512 OFFCURVE",
"580 540 CURVE SMOOTH",
"580 573 OFFCURVE",
"582 641 OFFCURVE",
"587 708 CURVE",
"525 705 OFFCURVE",
"439 705 OFFCURVE",
"378 705 CURVE SMOOTH",
"306 705 OFFCURVE",
"144 705 OFFCURVE",
"28 708 CURVE",
"28 688 LINE",
"88 685 OFFCURVE",
"99 675 OFFCURVE",
"99 602 CURVE SMOOTH",
"99 106 LINE SMOOTH",
"99 33 OFFCURVE",
"89 23 OFFCURVE",
"28 20 CURVE",
"28 0 LINE"
);
},
{
closed = 1;
nodes = (
"442 346 LINE",
"442 366 LINE",
"272 366 LINE",
"272 346 LINE"
);
},
{
closed = 1;
nodes = (
"474 214 LINE",
"469 290 OFFCURVE",
"468 323 OFFCURVE",
"468 356 CURVE SMOOTH",
"468 389 OFFCURVE",
"466 422 OFFCURVE",
"471 498 CURVE",
"448 498 LINE",
"436 440 OFFCURVE",
"387 366 OFFCURVE",
"312 366 CURVE",
"312 346 LINE",
"387 346 OFFCURVE",
"439 288 OFFCURVE",
"451 214 CURVE"
);
}
);
width = 608;
},
{
anchors = (
{
name = bottom;
position = "{170, 0}";
},
{
name = top;
position = "{295, 708}";
}
);
background = {
anchors = (
{
name = bottom;
position = "{170, 0}";
},
{
name = top;
position = "{295, 708}";
}
);
paths = (
{
closed = 1;
nodes = (
"479 705 OFFCURVE",
"393 705 OFFCURVE",
"332 705 CURVE SMOOTH",
"272 705 OFFCURVE",
"140 705 OFFCURVE",
"42 708 CURVE",
"42 688 LINE",
"110 685 OFFCURVE",
"123 675 OFFCURVE",
"123 602 CURVE SMOOTH",
"123 106 LINE SMOOTH",
"123 33 OFFCURVE",
"110 23 OFFCURVE",
"42 20 CURVE",
"42 0 LINE",
"70 2 OFFCURVE",
"118 3 OFFCURVE",
"170 3 CURVE SMOOTH",
"224 3 OFFCURVE",
"282 2 OFFCURVE",
"317 0 CURVE",
"317 20 LINE",
"233 23 OFFCURVE",
"216 33 OFFCURVE",
"216 106 CURVE SMOOTH",
"216 602 LINE SMOOTH",
"216 675 OFFCURVE",
"229 685 OFFCURVE",
"297 685 CURVE SMOOTH",
"360 685 LINE SMOOTH",
"485 685 OFFCURVE",
"500 637 OFFCURVE",
"514 498 CURVE",
"537 498 LINE",
"535 519 OFFCURVE",
"534 548 OFFCURVE",
"534 580 CURVE SMOOTH",
"534 605 OFFCURVE",
"536 657 OFFCURVE",
"541 708 CURVE"
);
},
{
closed = 1;
nodes = (
"186 356 LINE",
"186 356 OFFCURVE",
"186 336 OFFCURVE",
"186 336 CURVE",
"386 336 LINE",
"386 336 OFFCURVE",
"386 356 OFFCURVE",
"386 356 CURVE"
);
},
{
closed = 1;
nodes = (
"382 488 LINE",
"374 440 OFFCURVE",
"376 356 OFFCURVE",
"289 356 CURVE",
"289 336 LINE",
"376 336 OFFCURVE",
"377 268 OFFCURVE",
"385 204 CURVE",
"408 204 LINE",
"403 280 OFFCURVE",
"402 313 OFFCURVE",
"402 346 CURVE SMOOTH",
"402 379 OFFCURVE",
"400 412 OFFCURVE",
"405 488 CURVE"
);
}
);
};
layerId = "DF17D77B-A5C4-4843-826A-BC0F1C4CB224";
paths = (
{
closed = 1;
nodes = (
"82 1 OFFCURVE",
"128 3 OFFCURVE",
"172 3 CURVE SMOOTH",
"236 3 OFFCURVE",
"297 0 OFFCURVE",
"332 0 CURVE",
"332 1 LINE",
"226 4 OFFCURVE",
"216 6 OFFCURVE",
"216 87 CURVE SMOOTH",
"216 621 LINE SMOOTH",
"216 694 OFFCURVE",
"229 704 OFFCURVE",
"297 704 CURVE SMOOTH",
"380 704 LINE SMOOTH",
"503 704 OFFCURVE",
"521 660 OFFCURVE",
"536 528 CURVE",
"537 528 LINE",
"535 543 OFFCURVE",
"534 566 OFFCURVE",
"534 590 CURVE SMOOTH",
"534 613 OFFCURVE",
"536 661 OFFCURVE",
"541 708 CURVE",
"479 705 OFFCURVE",
"393 705 OFFCURVE",
"332 705 CURVE SMOOTH",
"272 705 OFFCURVE",
"140 705 OFFCURVE",
"42 708 CURVE",
"42 707 LINE",
"110 704 OFFCURVE",
"123 694 OFFCURVE",
"123 621 CURVE SMOOTH",
"123 87 LINE SMOOTH",
"123 14 OFFCURVE",
"110 4 OFFCURVE",
"42 1 CURVE",
"42 0 LINE"
);
},
{
closed = 1;
nodes = (
"369 346 LINE",
"369 347 LINE",
"186 347 LINE",
"186 346 LINE"
);
},
{
closed = 1;
nodes = (
"401 204 LINE",
"396 280 OFFCURVE",
"395 313 OFFCURVE",
"395 346 CURVE SMOOTH",
"395 379 OFFCURVE",
"393 412 OFFCURVE",
"398 488 CURVE",
"397 488 LINE",
"387 437 OFFCURVE",
"390 347 OFFCURVE",
"282 347 CURVE",
"282 346 LINE",
"389 346 OFFCURVE",
"390 273 OFFCURVE",
"400 204 CURVE"
);
}
);
width = 569;
},
{
anchors = (
{
name = bottom;
position = "{170, 0}";
},
{
name = top;
position = "{295, 708}";
}
);
layerId = "7300F074-2CFD-43CC-B20F-1BF1EAE6C2C7";
paths = (
{
closed = 1;
nodes = (
"70 2 OFFCURVE",
"118 3 OFFCURVE",
"170 3 CURVE SMOOTH",
"231 3 OFFCURVE",
"297 2 OFFCURVE",
"337 0 CURVE",
"337 70 LINE",
"236 73 OFFCURVE",
"216 83 OFFCURVE",
"216 156 CURVE SMOOTH",
"216 552 LINE SMOOTH",
"216 625 OFFCURVE",
"229 635 OFFCURVE",
"297 635 CURVE SMOOTH",
"310 635 LINE SMOOTH",
"435 635 OFFCURVE",
"450 587 OFFCURVE",
"464 448 CURVE",
"537 448 LINE",
"535 482 OFFCURVE",
"534 528 OFFCURVE",
"534 580 CURVE SMOOTH",
"534 605 OFFCURVE",
"536 657 OFFCURVE",
"541 708 CURVE",
"479 705 OFFCURVE",
"393 705 OFFCURVE",
"332 705 CURVE SMOOTH",
"272 705 OFFCURVE",
"140 705 OFFCURVE",
"42 708 CURVE",
"42 638 LINE",
"110 635 OFFCURVE",
"123 625 OFFCURVE",
"123 552 CURVE SMOOTH",
"123 156 LINE SMOOTH",
"123 83 OFFCURVE",
"110 73 OFFCURVE",
"42 70 CURVE",
"42 0 LINE"
);
},
{
closed = 1;
nodes = (
"336 311 LINE",
"336 381 LINE",
"186 381 LINE",
"186 311 LINE"
);
},
{
closed = 1;
nodes = (
"398 204 LINE",
"393 280 OFFCURVE",
"392 313 OFFCURVE",
"392 346 CURVE SMOOTH",
"392 379 OFFCURVE",
"390 412 OFFCURVE",
"395 488 CURVE",
"332 488 LINE",
"324 449 OFFCURVE",
"326 381 OFFCURVE",
"239 381 CURVE",
"239 311 LINE",
"326 311 OFFCURVE",
"327 256 OFFCURVE",
"335 204 CURVE"
);
}
);
width = 569;
}
);
leftKerningGroup = I;
unicode = 0046;
},
{
glyphname = G;
lastChange = "2017-11-16 11:54:33 +0000";
layers = (
{
anchors = (
{
name = bottom;
position = "{377, 0}";
},
{
name = top;
position = "{361, 708}";
}
);
background = {
anchors = (
{
name = bottom;
position = "{377, 0}";
},
{
name = top;
position = "{361, 708}";
}
);
paths = (
{
closed = 1;
nodes = (
"190 722 OFFCURVE",
"54 575 OFFCURVE",
"54 342 CURVE SMOOTH",
"54 119 OFFCURVE",
"175 -14 OFFCURVE",
"382 -14 CURVE SMOOTH",
"447 -14 OFFCURVE",
"494 7 OFFCURVE",
"538 40 CURVE SMOOTH",
"558 55 OFFCURVE",
"563 57 OFFCURVE",
"571 57 CURVE SMOOTH",
"588 57 OFFCURVE",
"597 23 OFFCURVE",
"598 0 CURVE",
"618 0 LINE",
"618 198 LINE SMOOTH",
"618 272 OFFCURVE",
"625 281 OFFCURVE",
"669 284 CURVE",
"669 304 LINE",
"645 302 OFFCURVE",
"609 301 OFFCURVE",
"565 301 CURVE SMOOTH",
"520 301 OFFCURVE",
"459 302 OFFCURVE",
"424 304 CURVE",
"424 284 LINE",
"508 281 OFFCURVE",
"525 269 OFFCURVE",
"525 188 CURVE SMOOTH",
"525 92 LINE SMOOTH",
"525 67 OFFCURVE",
"521 54 OFFCURVE",
"496 37 CURVE SMOOTH",
"476 23 OFFCURVE",
"440 6 OFFCURVE",
"392 6 CURVE SMOOTH",
"229 6 OFFCURVE",
"154 113 OFFCURVE",
"154 353 CURVE SMOOTH",
"154 568 OFFCURVE",
"241 704 OFFCURVE",
"374 704 CURVE SMOOTH",
"441 704 OFFCURVE",
"508 675 OFFCURVE",
"547 626 CURVE SMOOTH",
"578 588 OFFCURVE",
"588 534 OFFCURVE",
"597 478 CURVE",
"620 478 LINE",
"620 594 OFFCURVE",
"621 659 OFFCURVE",
"624 708 CURVE",
"601 708 LINE",
"597 666 OFFCURVE",
"589 647 OFFCURVE",
"576 647 CURVE SMOOTH",
"570 647 OFFCURVE",
"564 651 OFFCURVE",
"556 657 CURVE SMOOTH",
"509 691 OFFCURVE",
"463 722 OFFCURVE",
"376 722 CURVE SMOOTH"
);
}
);
};
hints = (
{
horizontal = 1;
origin = "{0, 31}";
target = "{0, 45}";
},
{
horizontal = 1;
origin = "{0, 51}";
target = "{0, 25}";
},
{
horizontal = 1;
origin = "{0, 18}";
target = "{0, 17}";
}
);
layerId = UUID0;
paths = (
{
closed = 1;
nodes = (
"500 -14 OFFCURVE",
"544 57 OFFCURVE",
"571 57 CURVE SMOOTH",
"588 57 OFFCURVE",
"597 23 OFFCURVE",
"598 0 CURVE",
"618 0 LINE",
"618 198 LINE SMOOTH",
"618 272 OFFCURVE",
"625 281 OFFCURVE",
"669 284 CURVE",
"669 304 LINE",
"645 302 OFFCURVE",
"609 301 OFFCURVE",
"565 301 CURVE SMOOTH",
"520 301 OFFCURVE",
"459 302 OFFCURVE",
"424 304 CURVE",
"424 284 LINE",
"508 281 OFFCURVE",
"525 269 OFFCURVE",
"525 188 CURVE SMOOTH",
"525 102 LINE SMOOTH",
"525 35 OFFCURVE",
"457 6 OFFCURVE",
"392 6 CURVE SMOOTH",
"229 6 OFFCURVE",
"154 113 OFFCURVE",
"154 353 CURVE SMOOTH",
"154 568 OFFCURVE",
"241 704 OFFCURVE",
"374 704 CURVE SMOOTH",
"483 704 OFFCURVE",
"583 636 OFFCURVE",
"597 478 CURVE",
"620 478 LINE",
"620 594 OFFCURVE",
"621 659 OFFCURVE",
"624 708 CURVE",
"601 708 LINE",
"597 666 OFFCURVE",
"589 647 OFFCURVE",
"576 647 CURVE SMOOTH",
"555 647 OFFCURVE",
"503 722 OFFCURVE",
"376 722 CURVE SMOOTH",
"190 722 OFFCURVE",
"54 575 OFFCURVE",
"54 342 CURVE SMOOTH",
"54 119 OFFCURVE",
"175 -14 OFFCURVE",
"382 -14 CURVE SMOOTH"
);
}
);
width = 703;
},
{
anchors = (
{
name = bottom;
position = "{419, 0}";
},
{
name = top;
position = "{403, 708}";
}
);
background = {
anchors = (
{
name = bottom;
position = "{419, 0}";
},
{
name = top;
position = "{403, 708}";
}
);
paths = (
{
closed = 1;
nodes = (
"196 722 OFFCURVE",
"36 572 OFFCURVE",
"36 348 CURVE SMOOTH",
"36 120 OFFCURVE",
"161 -14 OFFCURVE",
"412 -14 CURVE SMOOTH",
"469 -14 OFFCURVE",
"529 9 OFFCURVE",
"581 34 CURVE SMOOTH",
"622 54 OFFCURVE",
"638 57 OFFCURVE",
"649 57 CURVE SMOOTH",
"670 57 OFFCURVE",
"679 23 OFFCURVE",
"680 0 CURVE",
"700 0 LINE",
"700 198 LINE SMOOTH",
"700 272 OFFCURVE",
"707 281 OFFCURVE",
"741 284 CURVE",
"741 304 LINE",
"707 302 OFFCURVE",
"651 301 OFFCURVE",
"587 301 CURVE SMOOTH",
"527 301 OFFCURVE",
"441 302 OFFCURVE",
"396 304 CURVE",
"396 284 LINE",
"480 281 OFFCURVE",
"497 265 OFFCURVE",
"497 168 CURVE SMOOTH",
"497 68 LINE SMOOTH",
"497 44 OFFCURVE",
"490 28 OFFCURVE",
"476 18 CURVE SMOOTH",
"464 10 OFFCURVE",
"448 6 OFFCURVE",
"427 6 CURVE SMOOTH",
"330 6 OFFCURVE",
"266 112 OFFCURVE",
"266 352 CURVE SMOOTH",
"266 502 OFFCURVE",
"310 691 OFFCURVE",
"464 691 CURVE SMOOTH",
"499 691 OFFCURVE",
"539 680 OFFCURVE",
"567 661 CURVE SMOOTH",
"633 616 OFFCURVE",
"650 554 OFFCURVE",
"659 458 CURVE",
"682 458 LINE",
"682 584 OFFCURVE",
"683 655 OFFCURVE",
"686 708 CURVE",
"663 708 LINE",
"659 667 OFFCURVE",
"652 648 OFFCURVE",
"638 648 CURVE SMOOTH",
"632 648 OFFCURVE",
"625 651 OFFCURVE",
"618 657 CURVE SMOOTH",
"573 693 OFFCURVE",
"517 722 OFFCURVE",
"424 722 CURVE SMOOTH"
);
}
);
};
layerId = "39933D6F-F4A7-4C4E-8677-28C34DBED807";
paths = (
{
closed = 1;
nodes = (
"519 -14 OFFCURVE",
"603 57 OFFCURVE",
"649 57 CURVE SMOOTH",
"670 57 OFFCURVE",
"679 23 OFFCURVE",
"680 0 CURVE",
"700 0 LINE",
"700 198 LINE SMOOTH",
"700 272 OFFCURVE",
"707 281 OFFCURVE",
"741 284 CURVE",
"741 304 LINE",
"707 302 OFFCURVE",
"651 301 OFFCURVE",
"587 301 CURVE SMOOTH",
"527 301 OFFCURVE",
"441 302 OFFCURVE",
"396 304 CURVE",
"396 284 LINE",
"480 281 OFFCURVE",
"497 265 OFFCURVE",
"497 168 CURVE SMOOTH",
"497 68 LINE SMOOTH",
"497 26 OFFCURVE",
"476 6 OFFCURVE",
"427 6 CURVE SMOOTH",
"330 6 OFFCURVE",
"266 112 OFFCURVE",
"266 352 CURVE SMOOTH",
"266 502 OFFCURVE",
"310 691 OFFCURVE",
"464 691 CURVE SMOOTH",
"584 691 OFFCURVE",
"654 598 OFFCURVE",
"659 458 CURVE",
"682 458 LINE",
"682 584 OFFCURVE",
"683 655 OFFCURVE",
"686 708 CURVE",
"663 708 LINE",
"659 667 OFFCURVE",
"652 648 OFFCURVE",
"638 648 CURVE SMOOTH",
"614 648 OFFCURVE",
"569 722 OFFCURVE",
"424 722 CURVE SMOOTH",
"196 722 OFFCURVE",
"36 572 OFFCURVE",
"36 348 CURVE SMOOTH",
"36 120 OFFCURVE",
"161 -14 OFFCURVE",
"412 -14 CURVE SMOOTH"
);
}
);
width = 756;
},
{
anchors = (
{
name = bottom;
position = "{377, 0}";
},
{
name = top;
position = "{361, 708}";
}
);
background = {
anchors = (
{
name = bottom;
position = "{377, 0}";
},
{
name = top;
position = "{361, 708}";
}
);
paths = (
{
closed = 1;
nodes = (
"190 722 OFFCURVE",
"54 575 OFFCURVE",
"54 342 CURVE SMOOTH",
"54 119 OFFCURVE",
"175 -14 OFFCURVE",
"382 -14 CURVE SMOOTH",
"447 -14 OFFCURVE",
"494 7 OFFCURVE",
"538 40 CURVE SMOOTH",
"558 55 OFFCURVE",
"563 57 OFFCURVE",
"571 57 CURVE SMOOTH",
"588 57 OFFCURVE",
"597 23 OFFCURVE",
"598 0 CURVE",
"618 0 LINE",
"618 198 LINE SMOOTH",
"618 272 OFFCURVE",
"625 281 OFFCURVE",
"669 284 CURVE",
"669 304 LINE",
"645 302 OFFCURVE",
"609 301 OFFCURVE",
"565 301 CURVE SMOOTH",
"520 301 OFFCURVE",
"459 302 OFFCURVE",
"424 304 CURVE",
"424 284 LINE",
"508 281 OFFCURVE",
"525 269 OFFCURVE",
"525 188 CURVE SMOOTH",
"525 92 LINE SMOOTH",
"525 67 OFFCURVE",
"521 54 OFFCURVE",
"496 37 CURVE SMOOTH",
"476 23 OFFCURVE",
"440 6 OFFCURVE",
"392 6 CURVE SMOOTH",
"229 6 OFFCURVE",
"154 113 OFFCURVE",
"154 353 CURVE SMOOTH",
"154 568 OFFCURVE",
"241 704 OFFCURVE",
"374 704 CURVE SMOOTH",
"441 704 OFFCURVE",
"508 675 OFFCURVE",
"547 626 CURVE SMOOTH",
"578 588 OFFCURVE",
"588 534 OFFCURVE",
"597 478 CURVE",
"620 478 LINE",
"620 594 OFFCURVE",
"621 659 OFFCURVE",
"624 708 CURVE",
"601 708 LINE",
"597 666 OFFCURVE",
"589 647 OFFCURVE",
"576 647 CURVE SMOOTH",
"570 647 OFFCURVE",
"564 651 OFFCURVE",
"556 657 CURVE SMOOTH",
"509 691 OFFCURVE",
"463 722 OFFCURVE",
"376 722 CURVE SMOOTH"
);
}
);
};
layerId = "DF17D77B-A5C4-4843-826A-BC0F1C4CB224";
paths = (
{
closed = 1;
nodes = (
"498 -14 OFFCURVE",
"539 57 OFFCURVE",
"581 57 CURVE SMOOTH",
"599 57 OFFCURVE",
"616 31 OFFCURVE",
"617 0 CURVE",
"618 0 LINE",
"618 217 LINE SMOOTH",
"618 289 OFFCURVE",
"623 298 OFFCURVE",
"669 303 CURVE",
"669 304 LINE",
"645 302 OFFCURVE",
"610 301 OFFCURVE",
"565 301 CURVE SMOOTH",
"508 301 OFFCURVE",
"452 302 OFFCURVE",
"424 304 CURVE",
"424 303 LINE",
"511 298 OFFCURVE",
"525 285 OFFCURVE",
"525 207 CURVE SMOOTH",
"525 123 LINE SMOOTH",
"525 34 OFFCURVE",
"469 -13 OFFCURVE",
"362 -13 CURVE SMOOTH",
"220 -13 OFFCURVE",
"154 103 OFFCURVE",
"154 353 CURVE SMOOTH",
"154 575 OFFCURVE",
"240 721 OFFCURVE",
"370 721 CURVE SMOOTH",
"500 721 OFFCURVE",
"595 628 OFFCURVE",
"618 478 CURVE",
"619 478 LINE",
"619 603 OFFCURVE",
"620 662 OFFCURVE",
"623 708 CURVE",
"622 708 LINE",
"618 665 OFFCURVE",
"609 648 OFFCURVE",
"590 648 CURVE SMOOTH",
"551 648 OFFCURVE",
"488 722 OFFCURVE",
"370 722 CURVE SMOOTH",
"183 722 OFFCURVE",
"54 567 OFFCURVE",
"54 342 CURVE SMOOTH",
"54 118 OFFCURVE",
"169 -14 OFFCURVE",
"362 -14 CURVE SMOOTH"
);
}
);
width = 703;
},
{
anchors = (
{
name = bottom;
position = "{377, 0}";
},
{
name = top;
position = "{361, 708}";
}
);
background = {
anchors = (
{
name = bottom;
position = "{377, 0}";
},
{
name = top;
position = "{361, 708}";
}
);
paths = (
{
closed = 1;
nodes = (
"190 722 OFFCURVE",
"54 575 OFFCURVE",
"54 342 CURVE SMOOTH",
"54 119 OFFCURVE",
"175 -14 OFFCURVE",
"382 -14 CURVE SMOOTH",
"447 -14 OFFCURVE",
"494 7 OFFCURVE",
"538 40 CURVE SMOOTH",
"558 55 OFFCURVE",
"563 57 OFFCURVE",
"571 57 CURVE SMOOTH",
"588 57 OFFCURVE",
"597 23 OFFCURVE",
"598 0 CURVE",
"618 0 LINE",
"618 198 LINE SMOOTH",
"618 272 OFFCURVE",
"625 281 OFFCURVE",
"669 284 CURVE",
"669 304 LINE",
"645 302 OFFCURVE",
"609 301 OFFCURVE",
"565 301 CURVE SMOOTH",
"520 301 OFFCURVE",
"459 302 OFFCURVE",
"424 304 CURVE",
"424 284 LINE",
"508 281 OFFCURVE",
"525 269 OFFCURVE",
"525 188 CURVE SMOOTH",
"525 92 LINE SMOOTH",
"525 67 OFFCURVE",
"521 54 OFFCURVE",
"496 37 CURVE SMOOTH",
"476 23 OFFCURVE",
"440 6 OFFCURVE",
"392 6 CURVE SMOOTH",
"229 6 OFFCURVE",
"154 113 OFFCURVE",
"154 353 CURVE SMOOTH",
"154 568 OFFCURVE",
"241 704 OFFCURVE",
"374 704 CURVE SMOOTH",
"441 704 OFFCURVE",
"508 675 OFFCURVE",
"547 626 CURVE SMOOTH",
"578 588 OFFCURVE",
"588 534 OFFCURVE",
"597 478 CURVE",
"620 478 LINE",
"620 594 OFFCURVE",
"621 659 OFFCURVE",
"624 708 CURVE",
"601 708 LINE",
"597 666 OFFCURVE",
"589 647 OFFCURVE",
"576 647 CURVE SMOOTH",
"570 647 OFFCURVE",
"564 651 OFFCURVE",
"556 657 CURVE SMOOTH",
"509 691 OFFCURVE",
"463 722 OFFCURVE",
"376 722 CURVE SMOOTH"
);
}
);
};
layerId = "7300F074-2CFD-43CC-B20F-1BF1EAE6C2C7";
paths = (
{
closed = 1;
nodes = (
"464 -14 OFFCURVE",
"500 37 OFFCURVE",
"524 37 CURVE SMOOTH",
"536 37 OFFCURVE",
"547 20 OFFCURVE",
"548 0 CURVE",
"618 0 LINE",
"618 148 LINE SMOOTH",
"618 221 OFFCURVE",
"624 231 OFFCURVE",
"669 234 CURVE",
"669 304 LINE",
"643 302 OFFCURVE",
"610 301 OFFCURVE",
"561 301 CURVE SMOOTH",
"499 301 OFFCURVE",
"447 302 OFFCURVE",
"424 304 CURVE",
"424 234 LINE",
"501 232 OFFCURVE",
"525 220 OFFCURVE",
"525 180 CURVE SMOOTH",
"525 164 LINE SMOOTH",
"525 104 OFFCURVE",
"448 54 OFFCURVE",
"357 54 CURVE SMOOTH",
"236 54 OFFCURVE",
"154 154 OFFCURVE",
"154 345 CURVE SMOOTH",
"154 539 OFFCURVE",
"238 654 OFFCURVE",
"352 654 CURVE SMOOTH",
"451 654 OFFCURVE",
"536 567 OFFCURVE",
"547 428 CURVE",
"620 428 LINE",
"620 581 OFFCURVE",
"621 653 OFFCURVE",
"624 708 CURVE",
"551 708 LINE",
"547 668 OFFCURVE",
"539 647 OFFCURVE",
"527 647 CURVE SMOOTH",
"505 647 OFFCURVE",
"467 722 OFFCURVE",
"347 722 CURVE SMOOTH",
"174 722 OFFCURVE",
"54 566 OFFCURVE",
"54 341 CURVE SMOOTH",
"54 121 OFFCURVE",
"167 -14 OFFCURVE",
"351 -14 CURVE SMOOTH"
);
}
);
width = 703;
}
);
leftKerningGroup = O;
rightKerningGroup = G;
unicode = 0047;
},
{
color = 6;
glyphname = Gstroke;
lastChange = "2017-11-14 23:51:51 +0000";
layers = (
{
anchors = (
{
name = bottom;
position = "{377, 0}";
},
{
name = top;
position = "{361, 708}";
}
);
background = {
anchors = (
{
name = bottom;
position = "{377, 0}";
},
{
name = top;
position = "{361, 708}";
}
);
hints = (
{
horizontal = 1;
place = "{647, 0}";
},
{
horizontal = 1;
place = "{-14, 0}";
},
{
horizontal = 1;
place = "{284, 20}";
}
);
paths = (
{
closed = 1;
nodes = (
"190 722 OFFCURVE",
"54 575 OFFCURVE",
"54 342 CURVE SMOOTH",
"54 119 OFFCURVE",
"175 -14 OFFCURVE",
"382 -14 CURVE SMOOTH",
"447 -14 OFFCURVE",
"494 7 OFFCURVE",
"538 40 CURVE SMOOTH",
"558 55 OFFCURVE",
"563 57 OFFCURVE",
"571 57 CURVE SMOOTH",
"588 57 OFFCURVE",
"597 23 OFFCURVE",
"598 0 CURVE",
"618 0 LINE",
"618 218 LINE SMOOTH",
"618 292 OFFCURVE",
"625 301 OFFCURVE",
"669 304 CURVE",
"669 324 LINE",
"645 322 OFFCURVE",
"609 321 OFFCURVE",
"565 321 CURVE SMOOTH",
"520 321 OFFCURVE",
"459 322 OFFCURVE",
"424 324 CURVE",
"424 304 LINE",
"508 301 OFFCURVE",
"525 289 OFFCURVE",
"525 208 CURVE SMOOTH",
"525 92 LINE SMOOTH",
"525 67 OFFCURVE",
"521 54 OFFCURVE",
"496 37 CURVE SMOOTH",
"476 23 OFFCURVE",
"440 6 OFFCURVE",
"392 6 CURVE SMOOTH",
"229 6 OFFCURVE",
"154 113 OFFCURVE",
"154 353 CURVE SMOOTH",
"154 568 OFFCURVE",
"241 704 OFFCURVE",
"374 704 CURVE SMOOTH",
"441 704 OFFCURVE",
"508 675 OFFCURVE",
"547 626 CURVE SMOOTH",
"578 588 OFFCURVE",
"588 534 OFFCURVE",
"597 478 CURVE",
"620 478 LINE",
"620 594 OFFCURVE",
"621 659 OFFCURVE",
"624 708 CURVE",
"601 708 LINE",
"597 666 OFFCURVE",
"589 647 OFFCURVE",
"576 647 CURVE SMOOTH",
"570 647 OFFCURVE",
"564 651 OFFCURVE",
"556 657 CURVE SMOOTH",
"509 691 OFFCURVE",
"463 722 OFFCURVE",
"376 722 CURVE SMOOTH"
);
},
{
closed = 1;
nodes = (
"703 168 LINE",
"703 188 LINE",
"408 188 LINE",
"408 168 LINE"
);
}
);
};
hints = (
{
horizontal = 1;
origin = "{0, 31}";
target = "{0, 45}";
},
{
horizontal = 1;
origin = "{0, 51}";
target = "{0, 25}";
},
{
horizontal = 1;
origin = "{0, 18}";
target = "{0, 17}";
}
);
layerId = UUID0;
paths = (
{
closed = 1;
nodes = (
"500 -14 OFFCURVE",
"544 57 OFFCURVE",
"571 57 CURVE SMOOTH",
"588 57 OFFCURVE",
"597 23 OFFCURVE",
"598 0 CURVE",
"618 0 LINE",
"618 218 LINE SMOOTH",
"618 292 OFFCURVE",
"625 301 OFFCURVE",
"669 304 CURVE",
"669 324 LINE",
"645 322 OFFCURVE",
"609 321 OFFCURVE",
"565 321 CURVE SMOOTH",
"520 321 OFFCURVE",
"459 322 OFFCURVE",
"424 324 CURVE",
"424 304 LINE",
"508 301 OFFCURVE",
"525 289 OFFCURVE",
"525 208 CURVE SMOOTH",
"525 102 LINE SMOOTH",
"525 35 OFFCURVE",
"457 6 OFFCURVE",
"392 6 CURVE SMOOTH",
"229 6 OFFCURVE",
"154 113 OFFCURVE",
"154 353 CURVE SMOOTH",
"154 568 OFFCURVE",
"241 704 OFFCURVE",
"374 704 CURVE SMOOTH",
"483 704 OFFCURVE",
"583 636 OFFCURVE",
"597 478 CURVE",
"620 478 LINE",
"620 594 OFFCURVE",
"621 659 OFFCURVE",
"624 708 CURVE",
"601 708 LINE",
"597 666 OFFCURVE",
"589 647 OFFCURVE",
"576 647 CURVE SMOOTH",
"555 647 OFFCURVE",
"503 722 OFFCURVE",
"376 722 CURVE SMOOTH",
"190 722 OFFCURVE",
"54 575 OFFCURVE",
"54 342 CURVE SMOOTH",
"54 119 OFFCURVE",
"175 -14 OFFCURVE",
"382 -14 CURVE SMOOTH"
);
},
{
closed = 1;
nodes = (
"703 168 LINE",
"703 188 LINE",
"408 188 LINE",
"408 168 LINE"
);
}
);
width = 703;
},
{
anchors = (
{
name = bottom;
position = "{419, 0}";
},
{
name = top;
position = "{403, 708}";
}
);
background = {
anchors = (
{
name = bottom;
position = "{419, 0}";
},
{
name = top;
position = "{403, 708}";
}
);
paths = (
{
closed = 1;
nodes = (
"196 722 OFFCURVE",
"36 572 OFFCURVE",
"36 348 CURVE SMOOTH",
"36 120 OFFCURVE",
"161 -14 OFFCURVE",
"412 -14 CURVE SMOOTH",
"469 -14 OFFCURVE",
"529 9 OFFCURVE",
"581 34 CURVE SMOOTH",
"622 54 OFFCURVE",
"638 57 OFFCURVE",
"649 57 CURVE SMOOTH",
"670 57 OFFCURVE",
"679 23 OFFCURVE",
"680 0 CURVE",
"700 0 LINE",
"700 228 LINE SMOOTH",
"700 302 OFFCURVE",
"707 311 OFFCURVE",
"741 314 CURVE",
"741 334 LINE",
"707 332 OFFCURVE",
"651 331 OFFCURVE",
"587 331 CURVE SMOOTH",
"527 331 OFFCURVE",
"441 332 OFFCURVE",
"396 334 CURVE",
"396 314 LINE",
"480 311 OFFCURVE",
"497 295 OFFCURVE",
"497 198 CURVE SMOOTH",
"497 68 LINE SMOOTH",
"497 44 OFFCURVE",
"490 28 OFFCURVE",
"476 18 CURVE SMOOTH",
"464 10 OFFCURVE",
"448 6 OFFCURVE",
"427 6 CURVE SMOOTH",
"330 6 OFFCURVE",
"266 112 OFFCURVE",
"266 352 CURVE SMOOTH",
"266 502 OFFCURVE",
"310 691 OFFCURVE",
"464 691 CURVE SMOOTH",
"499 691 OFFCURVE",
"539 680 OFFCURVE",
"567 661 CURVE SMOOTH",
"633 616 OFFCURVE",
"650 554 OFFCURVE",
"659 458 CURVE",
"682 458 LINE",
"682 584 OFFCURVE",
"683 655 OFFCURVE",
"686 708 CURVE",
"663 708 LINE",
"659 667 OFFCURVE",
"652 648 OFFCURVE",
"638 648 CURVE SMOOTH",
"632 648 OFFCURVE",
"625 651 OFFCURVE",
"618 657 CURVE SMOOTH",
"573 693 OFFCURVE",
"517 722 OFFCURVE",
"424 722 CURVE SMOOTH"
);
},
{
closed = 1;
nodes = (
"756 178 LINE",
"756 198 LINE",
"391 198 LINE",
"391 178 LINE"
);
}
);
};
layerId = "39933D6F-F4A7-4C4E-8677-28C34DBED807";
paths = (
{
closed = 1;
nodes = (
"519 -14 OFFCURVE",
"603 57 OFFCURVE",
"649 57 CURVE SMOOTH",
"670 57 OFFCURVE",
"679 23 OFFCURVE",
"680 0 CURVE",
"700 0 LINE",
"700 228 LINE SMOOTH",
"700 302 OFFCURVE",
"707 311 OFFCURVE",
"741 314 CURVE",
"741 334 LINE",
"707 332 OFFCURVE",
"651 331 OFFCURVE",
"587 331 CURVE SMOOTH",
"527 331 OFFCURVE",
"441 332 OFFCURVE",
"396 334 CURVE",
"396 314 LINE",
"480 311 OFFCURVE",
"497 295 OFFCURVE",
"497 198 CURVE SMOOTH",
"497 68 LINE SMOOTH",
"497 26 OFFCURVE",
"476 6 OFFCURVE",
"427 6 CURVE SMOOTH",
"330 6 OFFCURVE",
"266 112 OFFCURVE",
"266 352 CURVE SMOOTH",
"266 502 OFFCURVE",
"310 691 OFFCURVE",
"464 691 CURVE SMOOTH",
"584 691 OFFCURVE",
"654 598 OFFCURVE",
"659 458 CURVE",
"682 458 LINE",
"682 584 OFFCURVE",
"683 655 OFFCURVE",
"686 708 CURVE",
"663 708 LINE",
"659 667 OFFCURVE",
"652 648 OFFCURVE",
"638 648 CURVE SMOOTH",
"614 648 OFFCURVE",
"569 722 OFFCURVE",
"424 722 CURVE SMOOTH",
"196 722 OFFCURVE",
"36 572 OFFCURVE",
"36 348 CURVE SMOOTH",
"36 120 OFFCURVE",
"161 -14 OFFCURVE",
"412 -14 CURVE SMOOTH"
);
},
{
closed = 1;
nodes = (
"756 178 LINE",
"756 198 LINE",
"391 198 LINE",
"391 178 LINE"
);
}
);
width = 756;
},
{
anchors = (
{
name = bottom;
position = "{377, 0}";
},
{
name = top;
position = "{361, 708}";
}
);
background = {
paths = (
{
closed = 1;
nodes = (
"190 722 OFFCURVE",
"54 575 OFFCURVE",
"54 342 CURVE SMOOTH",
"54 119 OFFCURVE",
"175 -14 OFFCURVE",
"382 -14 CURVE SMOOTH",
"447 -14 OFFCURVE",
"494 7 OFFCURVE",
"538 40 CURVE SMOOTH",
"558 55 OFFCURVE",
"563 57 OFFCURVE",
"571 57 CURVE SMOOTH",
"588 57 OFFCURVE",
"597 23 OFFCURVE",
"598 0 CURVE",
"618 0 LINE",
"618 218 LINE SMOOTH",
"618 292 OFFCURVE",
"625 301 OFFCURVE",
"669 304 CURVE",
"669 324 LINE",
"645 322 OFFCURVE",
"609 321 OFFCURVE",
"565 321 CURVE SMOOTH",
"520 321 OFFCURVE",
"459 322 OFFCURVE",
"424 324 CURVE",
"424 304 LINE",
"508 301 OFFCURVE",
"525 289 OFFCURVE",
"525 208 CURVE SMOOTH",
"525 92 LINE SMOOTH",
"525 67 OFFCURVE",
"521 54 OFFCURVE",
"496 37 CURVE SMOOTH",
"476 23 OFFCURVE",
"440 6 OFFCURVE",
"392 6 CURVE SMOOTH",
"229 6 OFFCURVE",
"154 113 OFFCURVE",
"154 353 CURVE SMOOTH",
"154 568 OFFCURVE",
"241 704 OFFCURVE",
"374 704 CURVE SMOOTH",
"441 704 OFFCURVE",
"508 675 OFFCURVE",
"547 626 CURVE SMOOTH",
"578 588 OFFCURVE",
"588 534 OFFCURVE",
"597 478 CURVE",
"620 478 LINE",
"620 594 OFFCURVE",
"621 659 OFFCURVE",
"624 708 CURVE",
"601 708 LINE",
"597 666 OFFCURVE",
"589 647 OFFCURVE",
"576 647 CURVE SMOOTH",
"570 647 OFFCURVE",
"564 651 OFFCURVE",
"556 657 CURVE SMOOTH",
"509 691 OFFCURVE",
"463 722 OFFCURVE",
"376 722 CURVE SMOOTH"
);
},
{
closed = 1;
nodes = (
"703 168 LINE",
"703 188 LINE",
"408 188 LINE",
"408 168 LINE"
);
}
);
};
layerId = "DF17D77B-A5C4-4843-826A-BC0F1C4CB224";
paths = (
{
closed = 1;
nodes = (
"498 -14 OFFCURVE",
"539 57 OFFCURVE",
"581 57 CURVE SMOOTH",
"604 57 OFFCURVE",
"616 23 OFFCURVE",
"617 0 CURVE",
"618 0 LINE",
"618 237 LINE SMOOTH",
"618 311 OFFCURVE",
"625 318 OFFCURVE",
"669 323 CURVE",
"669 324 LINE",
"645 322 OFFCURVE",
"609 321 OFFCURVE",
"565 321 CURVE SMOOTH",
"520 321 OFFCURVE",
"459 322 OFFCURVE",
"424 324 CURVE",
"424 323 LINE",
"508 318 OFFCURVE",
"525 308 OFFCURVE",
"525 227 CURVE SMOOTH",
"525 123 LINE SMOOTH",
"525 26 OFFCURVE",
"460 -13 OFFCURVE",
"362 -13 CURVE SMOOTH",
"222 -13 OFFCURVE",
"154 100 OFFCURVE",
"154 353 CURVE SMOOTH",
"154 578 OFFCURVE",
"242 721 OFFCURVE",
"370 721 CURVE SMOOTH",
"496 721 OFFCURVE",
"594 632 OFFCURVE",
"618 478 CURVE",
"619 478 LINE",
"619 600 OFFCURVE",
"620 661 OFFCURVE",
"623 708 CURVE",
"622 708 LINE",
"618 665 OFFCURVE",
"609 648 OFFCURVE",
"590 648 CURVE SMOOTH",
"551 648 OFFCURVE",
"488 722 OFFCURVE",
"370 722 CURVE SMOOTH",
"190 722 OFFCURVE",
"54 575 OFFCURVE",
"54 342 CURVE SMOOTH",
"54 119 OFFCURVE",
"168 -14 OFFCURVE",
"362 -14 CURVE SMOOTH"
);
},
{
closed = 1;
nodes = (
"703 177 LINE",
"703 178 LINE",
"408 178 LINE",
"408 177 LINE"
);
}
);
width = 703;
},
{
anchors = (
{
name = bottom;
position = "{377, 0}";
},
{
name = top;
position = "{361, 708}";
}
);
background = {
anchors = (
{
name = bottom;
position = "{377, 0}";
},
{
name = top;
position = "{361, 708}";
}
);
paths = (
{
closed = 1;
nodes = (
"190 722 OFFCURVE",
"54 575 OFFCURVE",
"54 342 CURVE SMOOTH",
"54 119 OFFCURVE",
"175 -14 OFFCURVE",
"382 -14 CURVE SMOOTH",
"447 -14 OFFCURVE",
"494 7 OFFCURVE",
"538 40 CURVE SMOOTH",
"558 55 OFFCURVE",
"563 57 OFFCURVE",
"571 57 CURVE SMOOTH",
"588 57 OFFCURVE",
"597 23 OFFCURVE",
"598 0 CURVE",
"618 0 LINE",
"618 218 LINE SMOOTH",
"618 292 OFFCURVE",
"625 301 OFFCURVE",
"669 304 CURVE",
"669 324 LINE",
"645 322 OFFCURVE",
"609 321 OFFCURVE",
"565 321 CURVE SMOOTH",
"520 321 OFFCURVE",
"459 322 OFFCURVE",
"424 324 CURVE",
"424 304 LINE",
"508 301 OFFCURVE",
"525 289 OFFCURVE",
"525 208 CURVE SMOOTH",
"525 92 LINE SMOOTH",
"525 67 OFFCURVE",
"521 54 OFFCURVE",
"496 37 CURVE SMOOTH",
"476 23 OFFCURVE",
"440 6 OFFCURVE",
"392 6 CURVE SMOOTH",
"229 6 OFFCURVE",
"154 113 OFFCURVE",
"154 353 CURVE SMOOTH",
"154 568 OFFCURVE",
"241 704 OFFCURVE",
"374 704 CURVE SMOOTH",
"441 704 OFFCURVE",
"508 675 OFFCURVE",
"547 626 CURVE SMOOTH",
"578 588 OFFCURVE",
"588 534 OFFCURVE",
"597 478 CURVE",
"620 478 LINE",
"620 594 OFFCURVE",
"621 659 OFFCURVE",
"624 708 CURVE",
"601 708 LINE",
"597 666 OFFCURVE",
"589 647 OFFCURVE",
"576 647 CURVE SMOOTH",
"570 647 OFFCURVE",
"564 651 OFFCURVE",
"556 657 CURVE SMOOTH",
"509 691 OFFCURVE",
"463 722 OFFCURVE",
"376 722 CURVE SMOOTH"
);
},
{
closed = 1;
nodes = (
"703 168 LINE",
"703 188 LINE",
"408 188 LINE",
"408 168 LINE"
);
}
);
};
layerId = "7300F074-2CFD-43CC-B20F-1BF1EAE6C2C7";
paths = (
{
closed = 1;
nodes = (
"500 -14 OFFCURVE",
"544 57 OFFCURVE",
"571 57 CURVE SMOOTH",
"588 57 OFFCURVE",
"597 23 OFFCURVE",
"598 0 CURVE",
"618 0 LINE",
"618 218 LINE SMOOTH",
"618 292 OFFCURVE",
"625 301 OFFCURVE",
"669 304 CURVE",
"669 324 LINE",
"645 322 OFFCURVE",
"609 321 OFFCURVE",
"565 321 CURVE SMOOTH",
"520 321 OFFCURVE",
"459 322 OFFCURVE",
"424 324 CURVE",
"424 304 LINE",
"508 301 OFFCURVE",
"525 289 OFFCURVE",
"525 208 CURVE SMOOTH",
"525 102 LINE SMOOTH",
"525 35 OFFCURVE",
"457 6 OFFCURVE",
"392 6 CURVE SMOOTH",
"229 6 OFFCURVE",
"154 113 OFFCURVE",
"154 353 CURVE SMOOTH",
"154 568 OFFCURVE",
"241 704 OFFCURVE",
"374 704 CURVE SMOOTH",
"483 704 OFFCURVE",
"583 636 OFFCURVE",
"597 478 CURVE",
"620 478 LINE",
"620 594 OFFCURVE",
"621 659 OFFCURVE",
"624 708 CURVE",
"601 708 LINE",
"597 666 OFFCURVE",
"589 647 OFFCURVE",
"576 647 CURVE SMOOTH",
"555 647 OFFCURVE",
"503 722 OFFCURVE",
"376 722 CURVE SMOOTH",
"190 722 OFFCURVE",
"54 575 OFFCURVE",
"54 342 CURVE SMOOTH",
"54 119 OFFCURVE",
"175 -14 OFFCURVE",
"382 -14 CURVE SMOOTH"
);
},
{
closed = 1;
nodes = (
"703 168 LINE",
"703 188 LINE",
"408 188 LINE",
"408 168 LINE"
);
}
);
width = 703;
}
);
leftKerningGroup = O;
rightKerningGroup = G;
unicode = 01E4;
},
{
glyphname = H;
lastChange = "2017-11-15 15:59:59 +0000";
layers = (
{
anchors = (
{
name = bottom;
position = "{379, 0}";
},
{
name = center;
position = "{379, 514}";
},
{
name = top;
position = "{381, 708}";
},
{
name = topleft;
position = "{42, 708}";
}
);
hints = (
{
horizontal = 1;
origin = "{1, 20}";
target = "{1, 21}";
},
{
horizontal = 1;
origin = "{1, 29}";
target = "{1, 28}";
},
{
horizontal = 1;
origin = "{2, 3}";
target = "{2, 2}";
}
);
layerId = UUID0;
paths = (
{
closed = 1;
nodes = (
"491 2 OFFCURVE",
"541 3 OFFCURVE",
"587 3 CURVE SMOOTH",
"639 3 OFFCURVE",
"687 2 OFFCURVE",
"715 0 CURVE",
"715 20 LINE",
"647 23 OFFCURVE",
"634 33 OFFCURVE",
"634 106 CURVE SMOOTH",
"634 602 LINE SMOOTH",
"634 675 OFFCURVE",
"647 685 OFFCURVE",
"715 688 CURVE",
"715 708 LINE",
"687 706 OFFCURVE",
"639 705 OFFCURVE",
"587 705 CURVE SMOOTH",
"541 705 OFFCURVE",
"491 706 OFFCURVE",
"460 708 CURVE",
"460 688 LINE",
"528 685 OFFCURVE",
"541 675 OFFCURVE",
"541 602 CURVE SMOOTH",
"541 106 LINE SMOOTH",
"541 33 OFFCURVE",
"528 23 OFFCURVE",
"460 20 CURVE",
"460 0 LINE"
);
},
{
closed = 1;
nodes = (
"70 2 OFFCURVE",
"118 3 OFFCURVE",
"170 3 CURVE SMOOTH",
"216 3 OFFCURVE",
"266 2 OFFCURVE",
"297 0 CURVE",
"297 20 LINE",
"229 23 OFFCURVE",
"216 33 OFFCURVE",
"216 106 CURVE SMOOTH",
"216 602 LINE SMOOTH",
"216 675 OFFCURVE",
"229 685 OFFCURVE",
"297 688 CURVE",
"297 708 LINE",
"266 706 OFFCURVE",
"216 705 OFFCURVE",
"170 705 CURVE SMOOTH",
"118 705 OFFCURVE",
"70 706 OFFCURVE",
"42 708 CURVE",
"42 688 LINE",
"110 685 OFFCURVE",
"123 675 OFFCURVE",
"123 602 CURVE SMOOTH",
"123 106 LINE SMOOTH",
"123 33 OFFCURVE",
"110 23 OFFCURVE",
"42 20 CURVE",
"42 0 LINE"
);
},
{
closed = 1;
nodes = (
"576 346 LINE",
"576 366 LINE",
"181 366 LINE",
"181 346 LINE"
);
}
);
width = 757;
},
{
anchors = (
{
name = bottom;
position = "{415, 0}";
},
{
name = center;
position = "{415, 519}";
},
{
name = top;
position = "{417, 708}";
},
{
name = topleft;
position = "{28, 708}";
}
);
layerId = "39933D6F-F4A7-4C4E-8677-28C34DBED807";
paths = (
{
closed = 1;
nodes = (
"497 2 OFFCURVE",
"567 3 OFFCURVE",
"633 3 CURVE SMOOTH",
"701 3 OFFCURVE",
"765 2 OFFCURVE",
"801 0 CURVE",
"801 20 LINE",
"741 23 OFFCURVE",
"730 33 OFFCURVE",
"730 106 CURVE SMOOTH",
"730 602 LINE SMOOTH",
"730 675 OFFCURVE",
"740 685 OFFCURVE",
"801 688 CURVE",
"801 708 LINE",
"765 706 OFFCURVE",
"701 705 OFFCURVE",
"633 705 CURVE SMOOTH",
"567 705 OFFCURVE",
"497 706 OFFCURVE",
"456 708 CURVE",
"456 688 LINE",
"516 685 OFFCURVE",
"527 675 OFFCURVE",
"527 602 CURVE SMOOTH",
"527 106 LINE SMOOTH",
"527 33 OFFCURVE",
"517 23 OFFCURVE",
"456 20 CURVE",
"456 0 LINE"
);
},
{
closed = 1;
nodes = (
"66 2 OFFCURVE",
"134 3 OFFCURVE",
"206 3 CURVE SMOOTH",
"268 3 OFFCURVE",
"334 2 OFFCURVE",
"373 0 CURVE",
"373 20 LINE",
"313 23 OFFCURVE",
"302 33 OFFCURVE",
"302 106 CURVE SMOOTH",
"302 602 LINE SMOOTH",
"302 675 OFFCURVE",
"312 685 OFFCURVE",
"373 688 CURVE",
"373 708 LINE",
"334 706 OFFCURVE",
"268 705 OFFCURVE",
"206 705 CURVE SMOOTH",
"134 705 OFFCURVE",
"66 706 OFFCURVE",
"28 708 CURVE",
"28 688 LINE",
"88 685 OFFCURVE",
"99 675 OFFCURVE",
"99 602 CURVE SMOOTH",
"99 106 LINE SMOOTH",
"99 33 OFFCURVE",
"89 23 OFFCURVE",
"28 20 CURVE",
"28 0 LINE"
);
},
{
closed = 1;
nodes = (
"612 346 LINE",
"612 366 LINE",
"217 366 LINE",
"217 346 LINE"
);
}
);
width = 829;
},
{
anchors = (
{
name = bottom;
position = "{379, 0}";
},
{
name = center;
position = "{379, 514}";
},
{
name = top;
position = "{381, 708}";
},
{
name = topleft;
position = "{42, 708}";
}
);
background = {
paths = (
{
closed = 1;
nodes = (
"576 346 LINE",
"576 366 LINE",
"181 366 LINE",
"181 346 LINE"
);
}
);
};
layerId = "DF17D77B-A5C4-4843-826A-BC0F1C4CB224";
paths = (
{
closed = 1;
nodes = (
"491 2 OFFCURVE",
"541 3 OFFCURVE",
"587 3 CURVE SMOOTH",
"639 3 OFFCURVE",
"687 2 OFFCURVE",
"715 0 CURVE",
"715 1 LINE",
"647 6 OFFCURVE",
"634 14 OFFCURVE",
"634 87 CURVE SMOOTH",
"634 621 LINE SMOOTH",
"634 694 OFFCURVE",
"647 702 OFFCURVE",
"715 707 CURVE",
"715 708 LINE",
"687 706 OFFCURVE",
"639 705 OFFCURVE",
"587 705 CURVE SMOOTH",
"541 705 OFFCURVE",
"491 706 OFFCURVE",
"460 708 CURVE",
"460 707 LINE",
"528 702 OFFCURVE",
"541 694 OFFCURVE",
"541 621 CURVE SMOOTH",
"541 87 LINE SMOOTH",
"541 14 OFFCURVE",
"528 6 OFFCURVE",
"460 1 CURVE",
"460 0 LINE"
);
},
{
closed = 1;
nodes = (
"70 2 OFFCURVE",
"118 3 OFFCURVE",
"170 3 CURVE SMOOTH",
"216 3 OFFCURVE",
"266 2 OFFCURVE",
"297 0 CURVE",
"297 1 LINE",
"229 6 OFFCURVE",
"216 14 OFFCURVE",
"216 87 CURVE SMOOTH",
"216 621 LINE SMOOTH",
"216 694 OFFCURVE",
"229 702 OFFCURVE",
"297 707 CURVE",
"297 708 LINE",
"266 706 OFFCURVE",
"216 705 OFFCURVE",
"170 705 CURVE SMOOTH",
"118 705 OFFCURVE",
"70 706 OFFCURVE",
"42 708 CURVE",
"42 707 LINE",
"110 702 OFFCURVE",
"123 694 OFFCURVE",
"123 621 CURVE SMOOTH",
"123 87 LINE SMOOTH",
"123 14 OFFCURVE",
"110 6 OFFCURVE",
"42 1 CURVE",
"42 0 LINE"
);
},
{
closed = 1;
nodes = (
"576 355 LINE",
"576 356 LINE",
"181 356 LINE",
"181 355 LINE"
);
}
);
width = 757;
},
{
anchors = (
{
name = bottom;
position = "{379, 0}";
},
{
name = center;
position = "{379, 514}";
},
{
name = top;
position = "{381, 708}";
},
{
name = topleft;
position = "{42, 708}";
}
);
layerId = "7300F074-2CFD-43CC-B20F-1BF1EAE6C2C7";
paths = (
{
closed = 1;
nodes = (
"491 2 OFFCURVE",
"541 3 OFFCURVE",
"587 3 CURVE SMOOTH",
"639 3 OFFCURVE",
"687 2 OFFCURVE",
"715 0 CURVE",
"715 70 LINE",
"647 73 OFFCURVE",
"634 83 OFFCURVE",
"634 156 CURVE SMOOTH",
"634 552 LINE SMOOTH",
"634 625 OFFCURVE",
"647 635 OFFCURVE",
"715 638 CURVE",
"715 708 LINE",
"687 706 OFFCURVE",
"639 705 OFFCURVE",
"587 705 CURVE SMOOTH",
"541 705 OFFCURVE",
"491 706 OFFCURVE",
"460 708 CURVE",
"460 638 LINE",
"528 635 OFFCURVE",
"541 625 OFFCURVE",
"541 552 CURVE SMOOTH",
"541 156 LINE SMOOTH",
"541 83 OFFCURVE",
"528 73 OFFCURVE",
"460 70 CURVE",
"460 0 LINE"
);
},
{
closed = 1;
nodes = (
"70 2 OFFCURVE",
"118 3 OFFCURVE",
"170 3 CURVE SMOOTH",
"216 3 OFFCURVE",
"266 2 OFFCURVE",
"297 0 CURVE",
"297 70 LINE",
"229 73 OFFCURVE",
"216 83 OFFCURVE",
"216 156 CURVE SMOOTH",
"216 552 LINE SMOOTH",
"216 625 OFFCURVE",
"229 635 OFFCURVE",
"297 638 CURVE",
"297 708 LINE",
"266 706 OFFCURVE",
"216 705 OFFCURVE",
"170 705 CURVE SMOOTH",
"118 705 OFFCURVE",
"70 706 OFFCURVE",
"42 708 CURVE",
"42 638 LINE",
"110 635 OFFCURVE",
"123 625 OFFCURVE",
"123 552 CURVE SMOOTH",
"123 156 LINE SMOOTH",
"123 83 OFFCURVE",
"110 73 OFFCURVE",
"42 70 CURVE",
"42 0 LINE"
);
},
{
closed = 1;
nodes = (
"576 321 LINE",
"576 391 LINE",
"181 391 LINE",
"181 321 LINE"
);
}
);
width = 757;
}
);
leftKerningGroup = I;
leftMetricsKey = I;
rightKerningGroup = I;
rightMetricsKey = I;
unicode = 0048;
},
{
glyphname = I;
lastChange = "2017-11-15 15:59:16 +0000";
layers = (
{
anchors = (
{
name = bottom;
position = "{170, 0}";
},
{
name = ogonek;
position = "{297, 0}";
},
{
name = top;
position = "{170, 708}";
}
);
hints = (
{
horizontal = 1;
origin = "{0, 5}";
target = "{0, 6}";
},
{
horizontal = 1;
origin = "{0, 14}";
target = "{0, 13}";
}
);
layerId = UUID0;
paths = (
{
closed = 1;
nodes = (
"266 706 OFFCURVE",
"216 705 OFFCURVE",
"170 705 CURVE SMOOTH",
"118 705 OFFCURVE",
"70 706 OFFCURVE",
"42 708 CURVE",
"42 688 LINE",
"110 685 OFFCURVE",
"123 675 OFFCURVE",
"123 602 CURVE SMOOTH",
"123 106 LINE SMOOTH",
"123 33 OFFCURVE",
"110 23 OFFCURVE",
"42 20 CURVE",
"42 0 LINE",
"70 2 OFFCURVE",
"118 3 OFFCURVE",
"170 3 CURVE SMOOTH",
"216 3 OFFCURVE",
"266 2 OFFCURVE",
"297 0 CURVE",
"297 20 LINE",
"229 23 OFFCURVE",
"216 33 OFFCURVE",
"216 106 CURVE SMOOTH",
"216 602 LINE SMOOTH",
"216 675 OFFCURVE",
"229 685 OFFCURVE",
"297 688 CURVE",
"297 708 LINE"
);
}
);
width = 339;
},
{
anchors = (
{
name = bottom;
position = "{206, 0}";
},
{
name = ogonek;
position = "{349, 0}";
},
{
name = top;
position = "{206, 708}";
}
);
layerId = "39933D6F-F4A7-4C4E-8677-28C34DBED807";
paths = (
{
closed = 1;
nodes = (
"334 706 OFFCURVE",
"268 705 OFFCURVE",
"206 705 CURVE SMOOTH",
"134 705 OFFCURVE",
"66 706 OFFCURVE",
"28 708 CURVE",
"28 688 LINE",
"88 685 OFFCURVE",
"99 675 OFFCURVE",
"99 602 CURVE SMOOTH",
"99 106 LINE SMOOTH",
"99 33 OFFCURVE",
"89 23 OFFCURVE",
"28 20 CURVE",
"28 0 LINE",
"66 2 OFFCURVE",
"134 3 OFFCURVE",
"206 3 CURVE SMOOTH",
"268 3 OFFCURVE",
"334 2 OFFCURVE",
"373 0 CURVE",
"373 20 LINE",
"313 23 OFFCURVE",
"302 33 OFFCURVE",
"302 106 CURVE SMOOTH",
"302 602 LINE SMOOTH",
"302 675 OFFCURVE",
"312 685 OFFCURVE",
"373 688 CURVE",
"373 708 LINE"
);
}
);
width = 401;
},
{
anchors = (
{
name = bottom;
position = "{170, 0}";
},
{
name = ogonek;
position = "{297, 0}";
},
{
name = top;
position = "{170, 708}";
}
);
layerId = "DF17D77B-A5C4-4843-826A-BC0F1C4CB224";
paths = (
{
closed = 1;
nodes = (
"266 706 OFFCURVE",
"216 705 OFFCURVE",
"170 705 CURVE SMOOTH",
"118 705 OFFCURVE",
"70 706 OFFCURVE",
"42 708 CURVE",
"42 707 LINE",
"110 702 OFFCURVE",
"123 694 OFFCURVE",
"123 621 CURVE SMOOTH",
"123 87 LINE SMOOTH",
"123 14 OFFCURVE",
"110 6 OFFCURVE",
"42 1 CURVE",
"42 0 LINE",
"70 2 OFFCURVE",
"118 3 OFFCURVE",
"170 3 CURVE SMOOTH",
"216 3 OFFCURVE",
"266 2 OFFCURVE",
"297 0 CURVE",
"297 1 LINE",
"229 6 OFFCURVE",
"216 14 OFFCURVE",
"216 87 CURVE SMOOTH",
"216 621 LINE SMOOTH",
"216 694 OFFCURVE",
"229 702 OFFCURVE",
"297 707 CURVE",
"297 708 LINE"
);
}
);
width = 339;
},
{
anchors = (
{
name = bottom;
position = "{170, 0}";
},
{
name = ogonek;
position = "{297, 0}";
},
{
name = top;
position = "{170, 708}";
}
);
layerId = "7300F074-2CFD-43CC-B20F-1BF1EAE6C2C7";
paths = (
{
closed = 1;
nodes = (
"266 706 OFFCURVE",
"216 705 OFFCURVE",
"170 705 CURVE SMOOTH",
"118 705 OFFCURVE",
"70 706 OFFCURVE",
"42 708 CURVE",
"42 638 LINE",
"110 635 OFFCURVE",
"123 625 OFFCURVE",
"123 552 CURVE SMOOTH",
"123 156 LINE SMOOTH",
"123 83 OFFCURVE",
"110 73 OFFCURVE",
"42 70 CURVE",
"42 0 LINE",
"70 2 OFFCURVE",
"118 3 OFFCURVE",
"170 3 CURVE SMOOTH",
"216 3 OFFCURVE",
"266 2 OFFCURVE",
"297 0 CURVE",
"297 70 LINE",
"229 73 OFFCURVE",
"216 83 OFFCURVE",
"216 156 CURVE SMOOTH",
"216 552 LINE SMOOTH",
"216 625 OFFCURVE",
"229 635 OFFCURVE",
"297 638 CURVE",
"297 708 LINE"
);
}
);
width = 339;
}
);
leftKerningGroup = I;
rightKerningGroup = I;
unicode = 0049;
},
{
glyphname = J;
lastChange = "2017-11-15 16:11:40 +0000";
layers = (
{
anchors = (
{
name = bottom;
position = "{163, -181}";
},
{
name = top;
position = "{164, 708}";
}
);
background = {
anchors = (
{
name = bottom;
position = "{163, -181}";
},
{
name = top;
position = "{164, 708}";
}
);
paths = (
{
closed = 1;
nodes = (
"96 -188 OFFCURVE",
"170 -118 OFFCURVE",
"193 -25 CURVE SMOOTH",
"209 42 OFFCURVE",
"210 153 OFFCURVE",
"210 236 CURVE SMOOTH",
"210 602 LINE SMOOTH",
"210 675 OFFCURVE",
"223 685 OFFCURVE",
"291 688 CURVE",
"291 708 LINE",
"260 706 OFFCURVE",
"211 705 OFFCURVE",
"162 705 CURVE SMOOTH",
"113 705 OFFCURVE",
"64 706 OFFCURVE",
"36 708 CURVE",
"36 688 LINE",
"104 685 OFFCURVE",
"117 675 OFFCURVE",
"117 602 CURVE SMOOTH",
"117 52 LINE SMOOTH",
"117 -111 OFFCURVE",
"70 -167 OFFCURVE",
"-20 -169 CURVE",
"-20 -188 LINE"
);
}
);
};
hints = (
{
horizontal = 1;
origin = "{0, 13}";
target = "{0, 14}";
},
{
horizontal = 1;
origin = "{0, 0}";
target = "{0, 21}";
}
);
layerId = UUID0;
paths = (
{
closed = 1;
nodes = (
"145 -180 OFFCURVE",
"210 -83 OFFCURVE",
"210 156 CURVE SMOOTH",
"210 602 LINE SMOOTH",
"210 673 OFFCURVE",
"221 685 OFFCURVE",
"291 688 CURVE",
"291 708 LINE",
"264 706 OFFCURVE",
"220 705 OFFCURVE",
"162 705 CURVE SMOOTH",
"103 705 OFFCURVE",
"60 706 OFFCURVE",
"36 708 CURVE",
"36 688 LINE",
"106 685 OFFCURVE",
"117 673 OFFCURVE",
"117 602 CURVE SMOOTH",
"117 52 LINE SMOOTH",
"117 -101 OFFCURVE",
"76 -167 OFFCURVE",
"-20 -169 CURVE",
"-20 -188 LINE"
);
}
);
width = 326;
},
{
anchors = (
{
name = bottom;
position = "{170, -181}";
},
{
name = top;
position = "{191, 708}";
}
);
background = {
anchors = (
{
name = bottom;
position = "{170, -181}";
},
{
name = top;
position = "{191, 708}";
}
);
paths = (
{
closed = 1;
nodes = (
"152 -188 OFFCURVE",
"250 -117 OFFCURVE",
"280 -25 CURVE SMOOTH",
"302 44 OFFCURVE",
"297 153 OFFCURVE",
"297 236 CURVE SMOOTH",
"297 602 LINE SMOOTH",
"297 675 OFFCURVE",
"307 685 OFFCURVE",
"368 688 CURVE",
"368 708 LINE",
"327 706 OFFCURVE",
"257 705 OFFCURVE",
"190 705 CURVE SMOOTH",
"123 705 OFFCURVE",
"59 706 OFFCURVE",
"23 708 CURVE",
"23 688 LINE",
"83 685 OFFCURVE",
"94 675 OFFCURVE",
"94 602 CURVE SMOOTH",
"94 55 LINE SMOOTH",
"94 -120 OFFCURVE",
"47 -157 OFFCURVE",
"-25 -167 CURVE",
"-25 -188 LINE"
);
}
);
};
layerId = "39933D6F-F4A7-4C4E-8677-28C34DBED807";
paths = (
{
closed = 1;
nodes = (
"200 -183 OFFCURVE",
"297 -94 OFFCURVE",
"297 106 CURVE SMOOTH",
"297 602 LINE SMOOTH",
"297 674 OFFCURVE",
"306 685 OFFCURVE",
"368 688 CURVE",
"368 708 LINE",
"332 706 OFFCURVE",
"266 705 OFFCURVE",
"191 705 CURVE SMOOTH",
"116 705 OFFCURVE",
"56 706 OFFCURVE",
"23 708 CURVE",
"23 688 LINE",
"84 685 OFFCURVE",
"94 673 OFFCURVE",
"94 602 CURVE SMOOTH",
"94 55 LINE SMOOTH",
"94 -95 OFFCURVE",
"62 -155 OFFCURVE",
"-25 -167 CURVE",
"-25 -188 LINE"
);
}
);
width = 390;
},
{
anchors = (
{
name = bottom;
position = "{163, -181}";
},
{
name = top;
position = "{164, 708}";
}
);
background = {
anchors = (
{
name = bottom;
position = "{163, -181}";
},
{
name = top;
position = "{164, 708}";
}
);
paths = (
{
closed = 1;
nodes = (
"96 -188 OFFCURVE",
"170 -118 OFFCURVE",
"193 -25 CURVE SMOOTH",
"209 42 OFFCURVE",
"210 153 OFFCURVE",
"210 236 CURVE SMOOTH",
"210 602 LINE SMOOTH",
"210 675 OFFCURVE",
"223 685 OFFCURVE",
"291 688 CURVE",
"291 708 LINE",
"260 706 OFFCURVE",
"211 705 OFFCURVE",
"162 705 CURVE SMOOTH",
"113 705 OFFCURVE",
"64 706 OFFCURVE",
"36 708 CURVE",
"36 688 LINE",
"104 685 OFFCURVE",
"117 675 OFFCURVE",
"117 602 CURVE SMOOTH",
"117 52 LINE SMOOTH",
"117 -111 OFFCURVE",
"70 -167 OFFCURVE",
"-20 -169 CURVE",
"-20 -188 LINE"
);
}
);
};
layerId = "DF17D77B-A5C4-4843-826A-BC0F1C4CB224";
paths = (
{
closed = 1;
nodes = (
"150 -180 OFFCURVE",
"210 -83 OFFCURVE",
"210 186 CURVE SMOOTH",
"210 621 LINE SMOOTH",
"210 691 OFFCURVE",
"220 702 OFFCURVE",
"291 707 CURVE",
"291 708 LINE",
"263 706 OFFCURVE",
"217 705 OFFCURVE",
"162 705 CURVE SMOOTH",
"106 705 OFFCURVE",
"61 706 OFFCURVE",
"36 708 CURVE",
"36 707 LINE",
"107 702 OFFCURVE",
"117 691 OFFCURVE",
"117 621 CURVE SMOOTH",
"117 52 LINE SMOOTH",
"117 -127 OFFCURVE",
"88 -177 OFFCURVE",
"-20 -187 CURVE",
"-20 -188 LINE"
);
}
);
width = 326;
},
{
anchors = (
{
name = bottom;
position = "{163, -181}";
},
{
name = top;
position = "{164, 708}";
}
);
background = {
anchors = (
{
name = bottom;
position = "{163, -181}";
},
{
name = top;
position = "{164, 708}";
}
);
paths = (
{
closed = 1;
nodes = (
"96 -188 OFFCURVE",
"170 -118 OFFCURVE",
"193 -25 CURVE SMOOTH",
"209 42 OFFCURVE",
"210 153 OFFCURVE",
"210 236 CURVE SMOOTH",
"210 602 LINE SMOOTH",
"210 675 OFFCURVE",
"223 685 OFFCURVE",
"291 688 CURVE",
"291 708 LINE",
"260 706 OFFCURVE",
"211 705 OFFCURVE",
"162 705 CURVE SMOOTH",
"113 705 OFFCURVE",
"64 706 OFFCURVE",
"36 708 CURVE",
"36 688 LINE",
"104 685 OFFCURVE",
"117 675 OFFCURVE",
"117 602 CURVE SMOOTH",
"117 52 LINE SMOOTH",
"117 -111 OFFCURVE",
"70 -167 OFFCURVE",
"-20 -169 CURVE",
"-20 -188 LINE"
);
}
);
};
layerId = "7300F074-2CFD-43CC-B20F-1BF1EAE6C2C7";
paths = (
{
closed = 1;
nodes = (
"145 -180 OFFCURVE",
"210 -83 OFFCURVE",
"210 156 CURVE SMOOTH",
"210 552 LINE SMOOTH",
"210 623 OFFCURVE",
"221 635 OFFCURVE",
"291 638 CURVE",
"291 708 LINE",
"264 706 OFFCURVE",
"220 705 OFFCURVE",
"162 705 CURVE SMOOTH",
"103 705 OFFCURVE",
"60 706 OFFCURVE",
"36 708 CURVE",
"36 638 LINE",
"106 635 OFFCURVE",
"117 623 OFFCURVE",
"117 552 CURVE SMOOTH",
"117 102 LINE SMOOTH",
"117 -51 OFFCURVE",
"76 -117 OFFCURVE",
"-20 -119 CURVE",
"-20 -188 LINE"
);
}
);
width = 326;
}
);
leftKerningGroup = J;
rightKerningGroup = J;
unicode = 004A;
},
{
glyphname = K;
lastChange = "2017-11-14 23:51:51 +0000";
layers = (
{
anchors = (
{
name = bottom;
position = "{346, 0}";
},
{
name = top;
position = "{345, 708}";
}
);
background = {
anchors = (
{
name = bottom;
position = "{346, 0}";
},
{
name = top;
position = "{345, 708}";
}
);
paths = (
{
closed = 1;
nodes = (
"595 706 OFFCURVE",
"564 705 OFFCURVE",
"530 705 CURVE SMOOTH",
"495 705 OFFCURVE",
"453 706 OFFCURVE",
"415 708 CURVE",
"415 688 LINE",
"499 686 OFFCURVE",
"492 640 OFFCURVE",
"426 556 CURVE SMOOTH",
"330 434 LINE SMOOTH",
"305 402 OFFCURVE",
"268 379 OFFCURVE",
"212 378 CURVE",
"212 358 LINE",
"261 356 OFFCURVE",
"280 347 OFFCURVE",
"321 285 CURVE SMOOTH",
"467 65 LINE SMOOTH",
"488 34 OFFCURVE",
"476 22 OFFCURVE",
"431 20 CURVE",
"431 0 LINE",
"480 3 OFFCURVE",
"511 3 OFFCURVE",
"534 3 CURVE SMOOTH",
"567 3 OFFCURVE",
"622 2 OFFCURVE",
"654 0 CURVE",
"654 20 LINE",
"613 30 OFFCURVE",
"588 48 OFFCURVE",
"566 81 CURVE SMOOTH",
"326 417 LINE",
"304 368 LINE",
"497 615 LINE SMOOTH",
"535 664 OFFCURVE",
"574 682 OFFCURVE",
"615 688 CURVE",
"615 708 LINE"
);
},
{
closed = 1;
nodes = (
"266 706 OFFCURVE",
"216 705 OFFCURVE",
"170 705 CURVE SMOOTH",
"118 705 OFFCURVE",
"70 706 OFFCURVE",
"42 708 CURVE",
"42 688 LINE",
"110 685 OFFCURVE",
"123 675 OFFCURVE",
"123 602 CURVE SMOOTH",
"123 106 LINE SMOOTH",
"123 33 OFFCURVE",
"110 23 OFFCURVE",
"42 20 CURVE",
"42 0 LINE",
"70 2 OFFCURVE",
"118 3 OFFCURVE",
"170 3 CURVE SMOOTH",
"216 3 OFFCURVE",
"266 2 OFFCURVE",
"297 0 CURVE",
"297 20 LINE",
"229 23 OFFCURVE",
"216 33 OFFCURVE",
"216 106 CURVE SMOOTH",
"216 602 LINE SMOOTH",
"216 675 OFFCURVE",
"229 685 OFFCURVE",
"297 688 CURVE",
"297 708 LINE"
);
}
);
};
hints = (
{
horizontal = 1;
origin = "{1, 5}";
target = "{1, 6}";
},
{
horizontal = 1;
origin = "{1, 14}";
target = "{1, 13}";
},
{
horizontal = 1;
origin = "{0, 14}";
target = "{0, 13}";
}
);
layerId = UUID0;
paths = (
{
closed = 1;
nodes = (
"595 706 OFFCURVE",
"564 705 OFFCURVE",
"530 705 CURVE SMOOTH",
"495 705 OFFCURVE",
"453 706 OFFCURVE",
"415 708 CURVE",
"415 688 LINE",
"499 686 OFFCURVE",
"492 640 OFFCURVE",
"426 556 CURVE SMOOTH",
"330 434 LINE SMOOTH",
"305 402 OFFCURVE",
"268 379 OFFCURVE",
"212 378 CURVE",
"212 358 LINE",
"261 356 OFFCURVE",
"280 347 OFFCURVE",
"321 285 CURVE SMOOTH",
"467 65 LINE SMOOTH",
"488 34 OFFCURVE",
"476 22 OFFCURVE",
"431 20 CURVE",
"431 0 LINE",
"480 3 OFFCURVE",
"511 3 OFFCURVE",
"534 3 CURVE SMOOTH",
"567 3 OFFCURVE",
"622 2 OFFCURVE",
"654 0 CURVE",
"654 20 LINE",
"613 30 OFFCURVE",
"588 48 OFFCURVE",
"566 81 CURVE SMOOTH",
"387 331 LINE SMOOTH",
"368 359 OFFCURVE",
"348 390 OFFCURVE",
"317 402 CURVE",
"304 368 LINE",
"497 615 LINE SMOOTH",
"535 664 OFFCURVE",
"574 682 OFFCURVE",
"615 688 CURVE",
"615 708 LINE"
);
},
{
closed = 1;
nodes = (
"266 706 OFFCURVE",
"216 705 OFFCURVE",
"170 705 CURVE SMOOTH",
"118 705 OFFCURVE",
"70 706 OFFCURVE",
"42 708 CURVE",
"42 688 LINE",
"110 685 OFFCURVE",
"123 675 OFFCURVE",
"123 602 CURVE SMOOTH",
"123 106 LINE SMOOTH",
"123 33 OFFCURVE",
"110 23 OFFCURVE",
"42 20 CURVE",
"42 0 LINE",
"70 2 OFFCURVE",
"118 3 OFFCURVE",
"170 3 CURVE SMOOTH",
"216 3 OFFCURVE",
"266 2 OFFCURVE",
"297 0 CURVE",
"297 20 LINE",
"229 23 OFFCURVE",
"216 33 OFFCURVE",
"216 106 CURVE SMOOTH",
"216 602 LINE SMOOTH",
"216 675 OFFCURVE",
"229 685 OFFCURVE",
"297 688 CURVE",
"297 708 LINE"
);
}
);
width = 655;
},
{
anchors = (
{
name = bottom;
position = "{432, 0}";
},
{
name = top;
position = "{431, 708}";
}
);
background = {
anchors = (
{
name = bottom;
position = "{432, 0}";
},
{
name = top;
position = "{431, 708}";
}
);
paths = (
{
closed = 1;
nodes = (
"712 706 OFFCURVE",
"681 705 OFFCURVE",
"638 705 CURVE SMOOTH",
"563 705 OFFCURVE",
"525 706 OFFCURVE",
"469 708 CURVE",
"469 689 LINE",
"544 686 OFFCURVE",
"590 626 OFFCURVE",
"507 533 CURVE SMOOTH",
"473 495 LINE SMOOTH",
"399 412 OFFCURVE",
"354 378 OFFCURVE",
"296 376 CURVE",
"296 355 LINE",
"319 353 OFFCURVE",
"328 345 OFFCURVE",
"349 310 CURVE SMOOTH",
"494 65 LINE SMOOTH",
"514 31 OFFCURVE",
"509 23 OFFCURVE",
"447 20 CURVE",
"447 0 LINE",
"516 3 OFFCURVE",
"559 3 OFFCURVE",
"590 3 CURVE SMOOTH",
"647 3 OFFCURVE",
"714 2 OFFCURVE",
"770 0 CURVE",
"770 20 LINE",
"740 36 OFFCURVE",
"726 53 OFFCURVE",
"709 81 CURVE SMOOTH",
"472 476 LINE",
"391 370 LINE",
"575 579 LINE SMOOTH",
"638 650 OFFCURVE",
"694 677 OFFCURVE",
"739 689 CURVE",
"739 708 LINE"
);
},
{
closed = 1;
nodes = (
"334 706 OFFCURVE",
"268 705 OFFCURVE",
"206 705 CURVE SMOOTH",
"134 705 OFFCURVE",
"66 706 OFFCURVE",
"28 708 CURVE",
"28 688 LINE",
"88 685 OFFCURVE",
"99 675 OFFCURVE",
"99 602 CURVE SMOOTH",
"99 106 LINE SMOOTH",
"99 33 OFFCURVE",
"89 23 OFFCURVE",
"28 20 CURVE",
"28 0 LINE",
"66 2 OFFCURVE",
"134 3 OFFCURVE",
"206 3 CURVE SMOOTH",
"268 3 OFFCURVE",
"334 2 OFFCURVE",
"373 0 CURVE",
"373 20 LINE",
"313 23 OFFCURVE",
"302 33 OFFCURVE",
"302 106 CURVE SMOOTH",
"302 602 LINE SMOOTH",
"302 675 OFFCURVE",
"312 685 OFFCURVE",
"373 688 CURVE",
"373 708 LINE"
);
}
);
};
layerId = "39933D6F-F4A7-4C4E-8677-28C34DBED807";
paths = (
{
closed = 1;
nodes = (
"712 706 OFFCURVE",
"681 705 OFFCURVE",
"638 705 CURVE SMOOTH",
"563 705 OFFCURVE",
"525 706 OFFCURVE",
"469 708 CURVE",
"469 689 LINE",
"544 686 OFFCURVE",
"590 626 OFFCURVE",
"507 533 CURVE SMOOTH",
"473 495 LINE SMOOTH",
"399 412 OFFCURVE",
"354 378 OFFCURVE",
"296 376 CURVE",
"296 355 LINE",
"319 353 OFFCURVE",
"328 345 OFFCURVE",
"349 310 CURVE SMOOTH",
"494 65 LINE SMOOTH",
"514 31 OFFCURVE",
"509 23 OFFCURVE",
"447 20 CURVE",
"447 0 LINE",
"516 3 OFFCURVE",
"559 3 OFFCURVE",
"590 3 CURVE SMOOTH",
"647 3 OFFCURVE",
"714 2 OFFCURVE",
"770 0 CURVE",
"770 20 LINE",
"740 36 OFFCURVE",
"726 53 OFFCURVE",
"709 81 CURVE SMOOTH",
"549 347 LINE SMOOTH",
"513 407 OFFCURVE",
"489 434 OFFCURVE",
"454 455 CURVE",
"391 370 LINE",
"575 579 LINE SMOOTH",
"638 650 OFFCURVE",
"694 677 OFFCURVE",
"739 689 CURVE",
"739 708 LINE"
);
},
{
closed = 1;
nodes = (
"334 706 OFFCURVE",
"268 705 OFFCURVE",
"206 705 CURVE SMOOTH",
"134 705 OFFCURVE",
"66 706 OFFCURVE",
"28 708 CURVE",
"28 688 LINE",
"88 685 OFFCURVE",
"99 675 OFFCURVE",
"99 602 CURVE SMOOTH",
"99 106 LINE SMOOTH",
"99 33 OFFCURVE",
"89 23 OFFCURVE",
"28 20 CURVE",
"28 0 LINE",
"66 2 OFFCURVE",
"134 3 OFFCURVE",
"206 3 CURVE SMOOTH",
"268 3 OFFCURVE",
"334 2 OFFCURVE",
"373 0 CURVE",
"373 20 LINE",
"313 23 OFFCURVE",
"302 33 OFFCURVE",
"302 106 CURVE SMOOTH",
"302 602 LINE SMOOTH",
"302 675 OFFCURVE",
"312 685 OFFCURVE",
"373 688 CURVE",
"373 708 LINE"
);
}
);
width = 754;
},
{
anchors = (
{
name = bottom;
position = "{346, 0}";
},
{
name = top;
position = "{345, 708}";
}
);
background = {
anchors = (
{
name = bottom;
position = "{346, 0}";
},
{
name = top;
position = "{345, 708}";
}
);
paths = (
{
closed = 1;
nodes = (
"590 706 OFFCURVE",
"552 705 OFFCURVE",
"517 705 CURVE SMOOTH",
"481 705 OFFCURVE",
"446 706 OFFCURVE",
"415 708 CURVE",
"415 707 LINE",
"499 703 OFFCURVE",
"489 624 OFFCURVE",
"427 541 CURVE SMOOTH",
"338 421 LINE SMOOTH",
"306 379 OFFCURVE",
"268 369 OFFCURVE",
"212 368 CURVE",
"212 367 LINE",
"261 365 OFFCURVE",
"279 354 OFFCURVE",
"321 285 CURVE SMOOTH",
"454 68 LINE SMOOTH",
"483 20 OFFCURVE",
"476 5 OFFCURVE",
"411 1 CURVE",
"411 0 LINE",
"480 3 OFFCURVE",
"511 3 OFFCURVE",
"534 3 CURVE SMOOTH",
"567 3 OFFCURVE",
"622 2 OFFCURVE",
"654 0 CURVE",
"654 1 LINE",
"613 11 OFFCURVE",
"588 28 OFFCURVE",
"552 84 CURVE SMOOTH",
"338 419 LINE",
"334 412 LINE",
"497 632 LINE SMOOTH",
"533 681 OFFCURVE",
"574 701 OFFCURVE",
"615 707 CURVE",
"615 708 LINE"
);
},
{
closed = 1;
nodes = (
"266 706 OFFCURVE",
"216 705 OFFCURVE",
"170 705 CURVE SMOOTH",
"118 705 OFFCURVE",
"70 706 OFFCURVE",
"42 708 CURVE",
"42 707 LINE",
"110 702 OFFCURVE",
"123 694 OFFCURVE",
"123 621 CURVE SMOOTH",
"123 87 LINE SMOOTH",
"123 14 OFFCURVE",
"110 6 OFFCURVE",
"42 1 CURVE",
"42 0 LINE",
"70 2 OFFCURVE",
"118 3 OFFCURVE",
"170 3 CURVE SMOOTH",
"216 3 OFFCURVE",
"266 2 OFFCURVE",
"297 0 CURVE",
"297 1 LINE",
"229 6 OFFCURVE",
"216 14 OFFCURVE",
"216 87 CURVE SMOOTH",
"216 621 LINE SMOOTH",
"216 694 OFFCURVE",
"229 702 OFFCURVE",
"297 707 CURVE",
"297 708 LINE"
);
}
);
};
layerId = "DF17D77B-A5C4-4843-826A-BC0F1C4CB224";
paths = (
{
closed = 1;
nodes = (
"590 706 OFFCURVE",
"552 705 OFFCURVE",
"517 705 CURVE SMOOTH",
"481 705 OFFCURVE",
"446 706 OFFCURVE",
"415 708 CURVE",
"415 707 LINE",
"499 703 OFFCURVE",
"489 624 OFFCURVE",
"427 541 CURVE SMOOTH",
"338 421 LINE SMOOTH",
"306 379 OFFCURVE",
"268 369 OFFCURVE",
"212 368 CURVE",
"212 367 LINE",
"261 365 OFFCURVE",
"279 354 OFFCURVE",
"321 285 CURVE SMOOTH",
"454 68 LINE SMOOTH",
"483 20 OFFCURVE",
"476 5 OFFCURVE",
"411 1 CURVE",
"411 0 LINE",
"480 3 OFFCURVE",
"511 3 OFFCURVE",
"534 3 CURVE SMOOTH",
"567 3 OFFCURVE",
"622 2 OFFCURVE",
"654 0 CURVE",
"654 1 LINE",
"613 11 OFFCURVE",
"588 28 OFFCURVE",
"552 84 CURVE SMOOTH",
"396 328 LINE SMOOTH",
"369 372 OFFCURVE",
"350 393 OFFCURVE",
"326 404 CURVE",
"325 400 LINE",
"497 632 LINE SMOOTH",
"533 681 OFFCURVE",
"574 701 OFFCURVE",
"615 707 CURVE",
"615 708 LINE"
);
},
{
closed = 1;
nodes = (
"266 706 OFFCURVE",
"216 705 OFFCURVE",
"170 705 CURVE SMOOTH",
"118 705 OFFCURVE",
"70 706 OFFCURVE",
"42 708 CURVE",
"42 707 LINE",
"110 702 OFFCURVE",
"123 694 OFFCURVE",
"123 621 CURVE SMOOTH",
"123 87 LINE SMOOTH",
"123 14 OFFCURVE",
"110 6 OFFCURVE",
"42 1 CURVE",
"42 0 LINE",
"70 2 OFFCURVE",
"118 3 OFFCURVE",
"170 3 CURVE SMOOTH",
"216 3 OFFCURVE",
"266 2 OFFCURVE",
"297 0 CURVE",
"297 1 LINE",
"229 6 OFFCURVE",
"216 14 OFFCURVE",
"216 87 CURVE SMOOTH",
"216 621 LINE SMOOTH",
"216 694 OFFCURVE",
"229 702 OFFCURVE",
"297 707 CURVE",
"297 708 LINE"
);
}
);
width = 655;
},
{
anchors = (
{
name = bottom;
position = "{346, 0}";
},
{
name = top;
position = "{345, 708}";
}
);
background = {
anchors = (
{
name = bottom;
position = "{346, 0}";
},
{
name = top;
position = "{345, 708}";
}
);
paths = (
{
closed = 1;
nodes = (
"595 706 OFFCURVE",
"564 705 OFFCURVE",
"530 705 CURVE SMOOTH",
"495 705 OFFCURVE",
"453 706 OFFCURVE",
"415 708 CURVE",
"415 688 LINE",
"499 686 OFFCURVE",
"492 640 OFFCURVE",
"426 556 CURVE SMOOTH",
"330 434 LINE SMOOTH",
"305 402 OFFCURVE",
"268 379 OFFCURVE",
"212 378 CURVE",
"212 358 LINE",
"261 356 OFFCURVE",
"280 347 OFFCURVE",
"321 285 CURVE SMOOTH",
"467 65 LINE SMOOTH",
"488 34 OFFCURVE",
"476 22 OFFCURVE",
"431 20 CURVE",
"431 0 LINE",
"480 3 OFFCURVE",
"511 3 OFFCURVE",
"534 3 CURVE SMOOTH",
"567 3 OFFCURVE",
"622 2 OFFCURVE",
"654 0 CURVE",
"654 20 LINE",
"613 30 OFFCURVE",
"588 48 OFFCURVE",
"566 81 CURVE SMOOTH",
"326 417 LINE",
"304 368 LINE",
"497 615 LINE SMOOTH",
"535 664 OFFCURVE",
"574 682 OFFCURVE",
"615 688 CURVE",
"615 708 LINE"
);
},
{
closed = 1;
nodes = (
"266 706 OFFCURVE",
"216 705 OFFCURVE",
"170 705 CURVE SMOOTH",
"118 705 OFFCURVE",
"70 706 OFFCURVE",
"42 708 CURVE",
"42 688 LINE",
"110 685 OFFCURVE",
"123 675 OFFCURVE",
"123 602 CURVE SMOOTH",
"123 106 LINE SMOOTH",
"123 33 OFFCURVE",
"110 23 OFFCURVE",
"42 20 CURVE",
"42 0 LINE",
"70 2 OFFCURVE",
"118 3 OFFCURVE",
"170 3 CURVE SMOOTH",
"216 3 OFFCURVE",
"266 2 OFFCURVE",
"297 0 CURVE",
"297 20 LINE",
"229 23 OFFCURVE",
"216 33 OFFCURVE",
"216 106 CURVE SMOOTH",
"216 602 LINE SMOOTH",
"216 675 OFFCURVE",
"229 685 OFFCURVE",
"297 688 CURVE",
"297 708 LINE"
);
}
);
};
layerId = "7300F074-2CFD-43CC-B20F-1BF1EAE6C2C7";
paths = (
{
closed = 1;
nodes = (
"595 706 OFFCURVE",
"564 705 OFFCURVE",
"530 705 CURVE SMOOTH",
"495 705 OFFCURVE",
"453 706 OFFCURVE",
"415 708 CURVE",
"415 688 LINE",
"499 686 OFFCURVE",
"492 640 OFFCURVE",
"426 556 CURVE SMOOTH",
"330 434 LINE SMOOTH",
"305 402 OFFCURVE",
"268 379 OFFCURVE",
"212 378 CURVE",
"212 358 LINE",
"261 356 OFFCURVE",
"280 347 OFFCURVE",
"321 285 CURVE SMOOTH",
"467 65 LINE SMOOTH",
"488 34 OFFCURVE",
"476 22 OFFCURVE",
"431 20 CURVE",
"431 0 LINE",
"480 3 OFFCURVE",
"511 3 OFFCURVE",
"534 3 CURVE SMOOTH",
"567 3 OFFCURVE",
"622 2 OFFCURVE",
"654 0 CURVE",
"654 20 LINE",
"613 30 OFFCURVE",
"588 48 OFFCURVE",
"566 81 CURVE SMOOTH",
"387 331 LINE SMOOTH",
"368 359 OFFCURVE",
"348 390 OFFCURVE",
"317 402 CURVE",
"304 368 LINE",
"497 615 LINE SMOOTH",
"535 664 OFFCURVE",
"574 682 OFFCURVE",
"615 688 CURVE",
"615 708 LINE"
);
},
{
closed = 1;
nodes = (
"266 706 OFFCURVE",
"216 705 OFFCURVE",
"170 705 CURVE SMOOTH",
"118 705 OFFCURVE",
"70 706 OFFCURVE",
"42 708 CURVE",
"42 688 LINE",
"110 685 OFFCURVE",
"123 675 OFFCURVE",
"123 602 CURVE SMOOTH",
"123 106 LINE SMOOTH",
"123 33 OFFCURVE",
"110 23 OFFCURVE",
"42 20 CURVE",
"42 0 LINE",
"70 2 OFFCURVE",
"118 3 OFFCURVE",
"170 3 CURVE SMOOTH",
"216 3 OFFCURVE",
"266 2 OFFCURVE",
"297 0 CURVE",
"297 20 LINE",
"229 23 OFFCURVE",
"216 33 OFFCURVE",
"216 106 CURVE SMOOTH",
"216 602 LINE SMOOTH",
"216 675 OFFCURVE",
"229 685 OFFCURVE",
"297 688 CURVE",
"297 708 LINE"
);
}
);
width = 655;
}
);
leftKerningGroup = I;
rightKerningGroup = K;
unicode = 004B;
},
{
glyphname = L;
lastChange = "2017-11-15 16:03:20 +0000";
layers = (
{
anchors = (
{
name = bottom;
position = "{332, 0}";
},
{
name = center;
position = "{171, 354}";
},
{
name = right;
position = "{330, 708}";
},
{
name = top;
position = "{170, 708}";
}
);
hints = (
{
horizontal = 1;
origin = "{0, 5}";
target = "{0, 6}";
},
{
horizontal = 1;
origin = "{0, 14}";
target = "{0, 13}";
}
);
layerId = UUID0;
paths = (
{
closed = 1;
nodes = (
"266 706 OFFCURVE",
"216 705 OFFCURVE",
"170 705 CURVE SMOOTH",
"118 705 OFFCURVE",
"70 706 OFFCURVE",
"42 708 CURVE",
"42 688 LINE",
"110 685 OFFCURVE",
"123 675 OFFCURVE",
"123 602 CURVE SMOOTH",
"123 106 LINE SMOOTH",
"123 33 OFFCURVE",
"110 23 OFFCURVE",
"42 20 CURVE",
"42 0 LINE",
"140 3 OFFCURVE",
"272 3 OFFCURVE",
"332 3 CURVE SMOOTH",
"399 3 OFFCURVE",
"493 3 OFFCURVE",
"561 0 CURVE",
"556 51 OFFCURVE",
"554 103 OFFCURVE",
"554 128 CURVE SMOOTH",
"554 160 OFFCURVE",
"555 189 OFFCURVE",
"557 210 CURVE",
"534 210 LINE",
"520 71 OFFCURVE",
"495 23 OFFCURVE",
"370 23 CURVE SMOOTH",
"297 23 LINE SMOOTH",
"229 23 OFFCURVE",
"216 33 OFFCURVE",
"216 106 CURVE SMOOTH",
"216 602 LINE SMOOTH",
"216 675 OFFCURVE",
"229 685 OFFCURVE",
"297 688 CURVE",
"297 708 LINE"
);
}
);
width = 588;
},
{
anchors = (
{
name = bottom;
position = "{368, 0}";
},
{
name = center;
position = "{204, 354}";
},
{
name = right;
position = "{404, 708}";
},
{
name = top;
position = "{206, 708}";
}
);
layerId = "39933D6F-F4A7-4C4E-8677-28C34DBED807";
paths = (
{
closed = 1;
nodes = (
"342 706 OFFCURVE",
"272 705 OFFCURVE",
"206 705 CURVE SMOOTH",
"134 705 OFFCURVE",
"66 706 OFFCURVE",
"28 708 CURVE",
"28 688 LINE",
"88 685 OFFCURVE",
"99 675 OFFCURVE",
"99 602 CURVE SMOOTH",
"99 106 LINE SMOOTH",
"99 33 OFFCURVE",
"89 23 OFFCURVE",
"28 20 CURVE",
"28 0 LINE",
"144 3 OFFCURVE",
"306 3 OFFCURVE",
"378 3 CURVE SMOOTH",
"445 3 OFFCURVE",
"539 3 OFFCURVE",
"607 0 CURVE",
"600 70 OFFCURVE",
"600 143 OFFCURVE",
"600 178 CURVE SMOOTH",
"600 214 OFFCURVE",
"601 246 OFFCURVE",
"603 270 CURVE",
"580 270 LINE",
"557 141 OFFCURVE",
"456 23 OFFCURVE",
"386 23 CURVE SMOOTH",
"353 23 LINE SMOOTH",
"310 23 OFFCURVE",
"302 31 OFFCURVE",
"302 86 CURVE SMOOTH",
"302 602 LINE SMOOTH",
"302 675 OFFCURVE",
"315 685 OFFCURVE",
"383 688 CURVE",
"383 708 LINE"
);
}
);
width = 626;
},
{
anchors = (
{
name = bottom;
position = "{332, 0}";
},
{
name = center;
position = "{171, 354}";
},
{
name = right;
position = "{330, 708}";
},
{
name = top;
position = "{170, 708}";
}
);
background = {
anchors = (
{
name = bottom;
position = "{332, 0}";
},
{
name = center;
position = "{171, 354}";
},
{
name = right;
position = "{330, 708}";
},
{
name = top;
position = "{170, 708}";
}
);
paths = (
{
closed = 1;
nodes = (
"266 706 OFFCURVE",
"216 705 OFFCURVE",
"170 705 CURVE SMOOTH",
"118 705 OFFCURVE",
"70 706 OFFCURVE",
"42 708 CURVE",
"42 688 LINE",
"110 685 OFFCURVE",
"123 675 OFFCURVE",
"123 602 CURVE SMOOTH",
"123 106 LINE SMOOTH",
"123 33 OFFCURVE",
"110 23 OFFCURVE",
"42 20 CURVE",
"42 0 LINE",
"140 3 OFFCURVE",
"272 3 OFFCURVE",
"332 3 CURVE SMOOTH",
"399 3 OFFCURVE",
"493 3 OFFCURVE",
"561 0 CURVE",
"556 51 OFFCURVE",
"554 103 OFFCURVE",
"554 128 CURVE SMOOTH",
"554 160 OFFCURVE",
"555 189 OFFCURVE",
"557 210 CURVE",
"534 210 LINE",
"520 71 OFFCURVE",
"495 23 OFFCURVE",
"370 23 CURVE SMOOTH",
"297 23 LINE SMOOTH",
"229 23 OFFCURVE",
"216 33 OFFCURVE",
"216 106 CURVE SMOOTH",
"216 602 LINE SMOOTH",
"216 675 OFFCURVE",
"229 685 OFFCURVE",
"297 688 CURVE",
"297 708 LINE"
);
}
);
};
layerId = "DF17D77B-A5C4-4843-826A-BC0F1C4CB224";
paths = (
{
closed = 1;
nodes = (
"266 706 OFFCURVE",
"216 705 OFFCURVE",
"170 705 CURVE SMOOTH",
"118 705 OFFCURVE",
"70 706 OFFCURVE",
"42 708 CURVE",
"42 707 LINE",
"110 702 OFFCURVE",
"123 694 OFFCURVE",
"123 621 CURVE SMOOTH",
"123 87 LINE SMOOTH",
"123 14 OFFCURVE",
"110 4 OFFCURVE",
"42 1 CURVE",
"42 0 LINE",
"140 3 OFFCURVE",
"272 3 OFFCURVE",
"332 3 CURVE SMOOTH",
"399 3 OFFCURVE",
"493 3 OFFCURVE",
"561 0 CURVE",
"556 51 OFFCURVE",
"554 103 OFFCURVE",
"554 128 CURVE SMOOTH",
"554 160 OFFCURVE",
"555 189 OFFCURVE",
"557 210 CURVE",
"556 210 LINE",
"542 56 OFFCURVE",
"495 4 OFFCURVE",
"370 4 CURVE SMOOTH",
"297 4 LINE SMOOTH",
"229 4 OFFCURVE",
"216 14 OFFCURVE",
"216 87 CURVE SMOOTH",
"216 621 LINE SMOOTH",
"216 694 OFFCURVE",
"229 702 OFFCURVE",
"297 707 CURVE",
"297 708 LINE"
);
}
);
width = 588;
},
{
anchors = (
{
name = bottom;
position = "{332, 0}";
},
{
name = center;
position = "{171, 354}";
},
{
name = right;
position = "{330, 708}";
},
{
name = top;
position = "{170, 708}";
}
);
layerId = "7300F074-2CFD-43CC-B20F-1BF1EAE6C2C7";
paths = (
{
closed = 1;
nodes = (
"266 706 OFFCURVE",
"216 705 OFFCURVE",
"170 705 CURVE SMOOTH",
"118 705 OFFCURVE",
"70 706 OFFCURVE",
"42 708 CURVE",
"42 638 LINE",
"110 635 OFFCURVE",
"123 625 OFFCURVE",
"123 552 CURVE SMOOTH",
"123 156 LINE SMOOTH",
"123 83 OFFCURVE",
"110 73 OFFCURVE",
"42 70 CURVE",
"42 0 LINE",
"140 3 OFFCURVE",
"272 3 OFFCURVE",
"332 3 CURVE SMOOTH",
"399 3 OFFCURVE",
"493 3 OFFCURVE",
"561 0 CURVE",
"556 51 OFFCURVE",
"554 103 OFFCURVE",
"554 128 CURVE SMOOTH",
"554 180 OFFCURVE",
"555 226 OFFCURVE",
"557 260 CURVE",
"484 260 LINE",
"470 121 OFFCURVE",
"445 73 OFFCURVE",
"320 73 CURVE SMOOTH",
"297 73 LINE SMOOTH",
"229 73 OFFCURVE",
"216 83 OFFCURVE",
"216 156 CURVE SMOOTH",
"216 552 LINE SMOOTH",
"216 625 OFFCURVE",
"229 635 OFFCURVE",
"297 638 CURVE",
"297 708 LINE"
);
}
);
width = 588;
}
);
leftKerningGroup = I;
rightKerningGroup = L;
unicode = 004C;
},
{
glyphname = M;
lastChange = "2017-11-15 16:24:08 +0000";
layers = (
{
anchors = (
{
name = bottom;
position = "{436, 0}";
},
{
name = top;
position = "{436, 708}";
}
);
hints = (
{
horizontal = 1;
origin = "{0, 14}";
target = "{0, 15}";
},
{
horizontal = 1;
origin = "{0, 23}";
target = "{0, 22}";
}
);
layerId = UUID0;
paths = (
{
closed = 1;
nodes = (
"798 706 OFFCURVE",
"748 705 OFFCURVE",
"702 705 CURVE SMOOTH",
"686 705 OFFCURVE",
"671 705 OFFCURVE",
"655 705 CURVE",
"430 102 LINE",
"447 110 LINE",
"220 708 LINE",
"198 706 OFFCURVE",
"164 705 OFFCURVE",
"135 705 CURVE SMOOTH",
"101 705 OFFCURVE",
"64 706 OFFCURVE",
"42 708 CURVE",
"42 688 LINE",
"110 685 OFFCURVE",
"123 675 OFFCURVE",
"123 602 CURVE SMOOTH",
"123 116 LINE SMOOTH",
"123 43 OFFCURVE",
"110 23 OFFCURVE",
"42 20 CURVE",
"42 0 LINE",
"64 2 OFFCURVE",
"101 3 OFFCURVE",
"135 3 CURVE SMOOTH",
"169 3 OFFCURVE",
"213 2 OFFCURVE",
"237 0 CURVE",
"237 20 LINE",
"159 23 OFFCURVE",
"146 43 OFFCURVE",
"146 116 CURVE SMOOTH",
"146 644 LINE",
"398 -5 LINE",
"414 -5 LINE",
"659 653 LINE",
"655 656 LINE",
"655 106 LINE SMOOTH",
"655 33 OFFCURVE",
"642 23 OFFCURVE",
"574 20 CURVE",
"574 0 LINE",
"602 2 OFFCURVE",
"650 3 OFFCURVE",
"702 3 CURVE SMOOTH",
"748 3 OFFCURVE",
"798 2 OFFCURVE",
"829 0 CURVE",
"829 20 LINE",
"761 23 OFFCURVE",
"748 33 OFFCURVE",
"748 106 CURVE SMOOTH",
"748 602 LINE SMOOTH",
"748 675 OFFCURVE",
"761 685 OFFCURVE",
"829 688 CURVE",
"829 708 LINE"
);
}
);
width = 871;
},
{
anchors = (
{
name = bottom;
position = "{483, 0}";
},
{
name = top;
position = "{483, 708}";
}
);
layerId = "39933D6F-F4A7-4C4E-8677-28C34DBED807";
paths = (
{
closed = 1;
nodes = (
"896 706 OFFCURVE",
"826 705 OFFCURVE",
"760 705 CURVE SMOOTH",
"732 705 OFFCURVE",
"700 705 OFFCURVE",
"673 705 CURVE",
"488 229 LINE",
"518 262 LINE",
"320 708 LINE",
"262 706 OFFCURVE",
"190 705 OFFCURVE",
"113 705 CURVE SMOOTH",
"83 705 OFFCURVE",
"50 706 OFFCURVE",
"30 708 CURVE",
"30 688 LINE",
"90 685 OFFCURVE",
"101 675 OFFCURVE",
"101 602 CURVE SMOOTH",
"101 176 LINE SMOOTH",
"101 63 OFFCURVE",
"91 33 OFFCURVE",
"30 20 CURVE",
"30 0 LINE",
"50 2 OFFCURVE",
"83 3 OFFCURVE",
"113 3 CURVE SMOOTH",
"150 3 OFFCURVE",
"198 2 OFFCURVE",
"225 0 CURVE",
"225 20 LINE",
"130 33 OFFCURVE",
"124 62 OFFCURVE",
"124 196 CURVE SMOOTH",
"124 643 LINE",
"406 1 LINE",
"422 1 LINE",
"673 643 LINE",
"663 641 LINE",
"663 106 LINE SMOOTH",
"663 33 OFFCURVE",
"650 23 OFFCURVE",
"582 20 CURVE",
"582 0 LINE",
"620 2 OFFCURVE",
"688 3 OFFCURVE",
"760 3 CURVE SMOOTH",
"826 3 OFFCURVE",
"896 2 OFFCURVE",
"937 0 CURVE",
"937 20 LINE",
"877 23 OFFCURVE",
"866 33 OFFCURVE",
"866 106 CURVE SMOOTH",
"866 602 LINE SMOOTH",
"866 675 OFFCURVE",
"876 685 OFFCURVE",
"937 688 CURVE",
"937 708 LINE"
);
}
);
width = 965;
},
{
anchors = (
{
name = bottom;
position = "{430, 0}";
},
{
name = top;
position = "{436, 708}";
}
);
background = {
anchors = (
{
name = bottom;
position = "{436, 0}";
},
{
name = top;
position = "{436, 708}";
}
);
paths = (
{
closed = 1;
nodes = (
"798 706 OFFCURVE",
"748 705 OFFCURVE",
"702 705 CURVE SMOOTH",
"686 705 OFFCURVE",
"671 705 OFFCURVE",
"655 705 CURVE",
"430 102 LINE",
"447 110 LINE",
"220 708 LINE",
"198 706 OFFCURVE",
"164 705 OFFCURVE",
"135 705 CURVE SMOOTH",
"101 705 OFFCURVE",
"64 706 OFFCURVE",
"42 708 CURVE",
"42 688 LINE",
"110 685 OFFCURVE",
"123 675 OFFCURVE",
"123 602 CURVE SMOOTH",
"123 116 LINE SMOOTH",
"123 43 OFFCURVE",
"110 23 OFFCURVE",
"42 20 CURVE",
"42 0 LINE",
"64 2 OFFCURVE",
"101 3 OFFCURVE",
"135 3 CURVE SMOOTH",
"169 3 OFFCURVE",
"213 2 OFFCURVE",
"237 0 CURVE",
"237 20 LINE",
"159 23 OFFCURVE",
"146 43 OFFCURVE",
"146 116 CURVE SMOOTH",
"146 644 LINE",
"398 -5 LINE",
"414 -5 LINE",
"659 653 LINE",
"655 656 LINE",
"655 106 LINE SMOOTH",
"655 33 OFFCURVE",
"642 23 OFFCURVE",
"574 20 CURVE",
"574 0 LINE",
"602 2 OFFCURVE",
"650 3 OFFCURVE",
"702 3 CURVE SMOOTH",
"748 3 OFFCURVE",
"798 2 OFFCURVE",
"829 0 CURVE",
"829 20 LINE",
"761 23 OFFCURVE",
"748 33 OFFCURVE",
"748 106 CURVE SMOOTH",
"748 602 LINE SMOOTH",
"748 675 OFFCURVE",
"761 685 OFFCURVE",
"829 688 CURVE",
"829 708 LINE"
);
}
);
};
layerId = "DF17D77B-A5C4-4843-826A-BC0F1C4CB224";
paths = (
{
closed = 1;
nodes = (
"798 706 OFFCURVE",
"748 705 OFFCURVE",
"702 705 CURVE SMOOTH",
"686 705 OFFCURVE",
"671 705 OFFCURVE",
"655 705 CURVE",
"448 116 LINE",
"452 124 LINE",
"215 708 LINE",
"194 706 OFFCURVE",
"162 705 OFFCURVE",
"135 705 CURVE SMOOTH",
"101 705 OFFCURVE",
"64 706 OFFCURVE",
"42 708 CURVE",
"42 707 LINE",
"110 702 OFFCURVE",
"123 694 OFFCURVE",
"123 621 CURVE SMOOTH",
"123 97 LINE SMOOTH",
"123 24 OFFCURVE",
"110 6 OFFCURVE",
"42 1 CURVE",
"42 0 LINE",
"64 2 OFFCURVE",
"101 3 OFFCURVE",
"135 3 CURVE SMOOTH",
"169 3 OFFCURVE",
"213 2 OFFCURVE",
"237 0 CURVE",
"237 1 LINE",
"140 6 OFFCURVE",
"124 24 OFFCURVE",
"124 97 CURVE SMOOTH",
"124 674 LINE",
"406 -5 LINE",
"407 -5 LINE",
"656 704 LINE",
"655 704 LINE",
"655 87 LINE SMOOTH",
"655 14 OFFCURVE",
"642 6 OFFCURVE",
"574 1 CURVE",
"574 0 LINE",
"602 2 OFFCURVE",
"650 3 OFFCURVE",
"702 3 CURVE SMOOTH",
"748 3 OFFCURVE",
"798 2 OFFCURVE",
"829 0 CURVE",
"829 1 LINE",
"761 6 OFFCURVE",
"748 14 OFFCURVE",
"748 87 CURVE SMOOTH",
"748 621 LINE SMOOTH",
"748 694 OFFCURVE",
"761 702 OFFCURVE",
"829 707 CURVE",
"829 708 LINE"
);
}
);
width = 871;
},
{
anchors = (
{
name = bottom;
position = "{436, 0}";
},
{
name = top;
position = "{436, 708}";
}
);
background = {
anchors = (
{
name = bottom;
position = "{436, 0}";
},
{
name = top;
position = "{436, 708}";
}
);
paths = (
{
closed = 1;
nodes = (
"798 706 OFFCURVE",
"748 705 OFFCURVE",
"702 705 CURVE SMOOTH",
"686 705 OFFCURVE",
"671 705 OFFCURVE",
"655 705 CURVE",
"430 102 LINE",
"447 110 LINE",
"220 708 LINE",
"198 706 OFFCURVE",
"164 705 OFFCURVE",
"135 705 CURVE SMOOTH",
"101 705 OFFCURVE",
"64 706 OFFCURVE",
"42 708 CURVE",
"42 688 LINE",
"110 685 OFFCURVE",
"123 675 OFFCURVE",
"123 602 CURVE SMOOTH",
"123 116 LINE SMOOTH",
"123 43 OFFCURVE",
"110 23 OFFCURVE",
"42 20 CURVE",
"42 0 LINE",
"64 2 OFFCURVE",
"101 3 OFFCURVE",
"135 3 CURVE SMOOTH",
"169 3 OFFCURVE",
"213 2 OFFCURVE",
"237 0 CURVE",
"237 20 LINE",
"159 23 OFFCURVE",
"146 43 OFFCURVE",
"146 116 CURVE SMOOTH",
"146 644 LINE",
"398 -5 LINE",
"414 -5 LINE",
"659 653 LINE",
"655 656 LINE",
"655 106 LINE SMOOTH",
"655 33 OFFCURVE",
"642 23 OFFCURVE",
"574 20 CURVE",
"574 0 LINE",
"602 2 OFFCURVE",
"650 3 OFFCURVE",
"702 3 CURVE SMOOTH",
"748 3 OFFCURVE",
"798 2 OFFCURVE",
"829 0 CURVE",
"829 20 LINE",
"761 23 OFFCURVE",
"748 33 OFFCURVE",
"748 106 CURVE SMOOTH",
"748 602 LINE SMOOTH",
"748 675 OFFCURVE",
"761 685 OFFCURVE",
"829 688 CURVE",
"829 708 LINE"
);
}
);
};
layerId = "7300F074-2CFD-43CC-B20F-1BF1EAE6C2C7";
paths = (
{
closed = 1;
nodes = (
"798 706 OFFCURVE",
"748 705 OFFCURVE",
"702 705 CURVE SMOOTH",
"677 705 OFFCURVE",
"655 705 OFFCURVE",
"630 705 CURVE",
"414 65 LINE",
"484 88 LINE",
"270 708 LINE",
"240 706 OFFCURVE",
"194 705 OFFCURVE",
"155 705 CURVE SMOOTH",
"114 705 OFFCURVE",
"69 706 OFFCURVE",
"42 708 CURVE",
"42 638 LINE",
"110 635 OFFCURVE",
"123 625 OFFCURVE",
"123 552 CURVE SMOOTH",
"123 166 LINE SMOOTH",
"123 93 OFFCURVE",
"110 73 OFFCURVE",
"42 70 CURVE",
"42 0 LINE",
"76 2 OFFCURVE",
"133 3 OFFCURVE",
"185 3 CURVE SMOOTH",
"219 3 OFFCURVE",
"263 2 OFFCURVE",
"287 0 CURVE",
"287 70 LINE",
"209 73 OFFCURVE",
"196 93 OFFCURVE",
"196 166 CURVE SMOOTH",
"196 584 LINE",
"398 0 LINE",
"464 0 LINE",
"684 653 LINE",
"655 656 LINE",
"655 156 LINE SMOOTH",
"655 83 OFFCURVE",
"642 73 OFFCURVE",
"574 70 CURVE",
"574 0 LINE",
"602 2 OFFCURVE",
"650 3 OFFCURVE",
"702 3 CURVE SMOOTH",
"748 3 OFFCURVE",
"798 2 OFFCURVE",
"829 0 CURVE",
"829 70 LINE",
"761 73 OFFCURVE",
"748 83 OFFCURVE",
"748 156 CURVE SMOOTH",
"748 552 LINE SMOOTH",
"748 625 OFFCURVE",
"761 635 OFFCURVE",
"829 638 CURVE",
"829 708 LINE"
);
}
);
width = 871;
}
);
leftKerningGroup = I;
rightKerningGroup = I;
unicode = 004D;
},
{
glyphname = N;
lastChange = "2017-11-15 16:20:05 +0000";
layers = (
{
anchors = (
{
name = bottom;
position = "{367, 0}";
},
{
name = top;
position = "{374, 708}";
}
);
hints = (
{
horizontal = 1;
origin = "{0, 17}";
target = "{0, 18}";
},
{
horizontal = 1;
origin = "{0, 26}";
target = "{0, 25}";
}
);
layerId = UUID0;
paths = (
{
closed = 1;
nodes = (
"648 706 OFFCURVE",
"611 705 OFFCURVE",
"577 705 CURVE SMOOTH",
"543 705 OFFCURVE",
"499 706 OFFCURVE",
"475 708 CURVE",
"475 688 LINE",
"553 685 OFFCURVE",
"566 665 OFFCURVE",
"566 592 CURVE SMOOTH",
"566 163 LINE",
"213 708 LINE",
"191 706 OFFCURVE",
"164 705 OFFCURVE",
"135 705 CURVE SMOOTH",
"101 705 OFFCURVE",
"64 706 OFFCURVE",
"42 708 CURVE",
"42 688 LINE",
"110 685 OFFCURVE",
"123 675 OFFCURVE",
"123 602 CURVE SMOOTH",
"123 116 LINE SMOOTH",
"123 43 OFFCURVE",
"110 23 OFFCURVE",
"42 20 CURVE",
"42 0 LINE",
"64 2 OFFCURVE",
"101 3 OFFCURVE",
"135 3 CURVE SMOOTH",
"169 3 OFFCURVE",
"213 2 OFFCURVE",
"237 0 CURVE",
"237 20 LINE",
"159 23 OFFCURVE",
"146 43 OFFCURVE",
"146 116 CURVE SMOOTH",
"146 644 LINE",
"566 -5 LINE",
"574 -5 OFFCURVE",
"581 -5 OFFCURVE",
"589 -5 CURVE",
"589 592 LINE SMOOTH",
"589 665 OFFCURVE",
"602 685 OFFCURVE",
"670 688 CURVE",
"670 708 LINE"
);
}
);
width = 706;
},
{
anchors = (
{
name = bottom;
position = "{375, 0}";
},
{
name = top;
position = "{382, 708}";
}
);
layerId = "39933D6F-F4A7-4C4E-8677-28C34DBED807";
paths = (
{
closed = 1;
nodes = (
"688 706 OFFCURVE",
"655 705 OFFCURVE",
"625 705 CURVE SMOOTH",
"588 705 OFFCURVE",
"540 706 OFFCURVE",
"513 708 CURVE",
"513 688 LINE",
"608 675 OFFCURVE",
"614 646 OFFCURVE",
"614 512 CURVE SMOOTH",
"614 260 LINE",
"205 708 LINE",
"180 706 OFFCURVE",
"146 705 OFFCURVE",
"113 705 CURVE SMOOTH",
"83 705 OFFCURVE",
"50 706 OFFCURVE",
"30 708 CURVE",
"30 688 LINE",
"90 685 OFFCURVE",
"101 675 OFFCURVE",
"101 602 CURVE SMOOTH",
"101 176 LINE SMOOTH",
"101 63 OFFCURVE",
"91 33 OFFCURVE",
"30 20 CURVE",
"30 0 LINE",
"50 2 OFFCURVE",
"83 3 OFFCURVE",
"113 3 CURVE SMOOTH",
"150 3 OFFCURVE",
"198 2 OFFCURVE",
"225 0 CURVE",
"225 20 LINE",
"130 33 OFFCURVE",
"124 62 OFFCURVE",
"124 196 CURVE SMOOTH",
"124 484 LINE",
"567 0 LINE",
"593 2 OFFCURVE",
"617 2 OFFCURVE",
"637 0 CURVE",
"637 532 LINE SMOOTH",
"637 645 OFFCURVE",
"647 675 OFFCURVE",
"708 688 CURVE",
"708 708 LINE"
);
}
);
width = 732;
},
{
anchors = (
{
name = bottom;
position = "{367, 0}";
},
{
name = top;
position = "{374, 708}";
}
);
background = {
paths = (
{
closed = 1;
nodes = (
"648 706 OFFCURVE",
"611 705 OFFCURVE",
"577 705 CURVE SMOOTH",
"543 705 OFFCURVE",
"499 706 OFFCURVE",
"475 708 CURVE",
"475 688 LINE",
"553 685 OFFCURVE",
"566 665 OFFCURVE",
"566 592 CURVE SMOOTH",
"566 164 LINE",
"213 708 LINE",
"191 706 OFFCURVE",
"164 705 OFFCURVE",
"135 705 CURVE SMOOTH",
"101 705 OFFCURVE",
"64 706 OFFCURVE",
"42 708 CURVE",
"42 688 LINE",
"110 685 OFFCURVE",
"123 675 OFFCURVE",
"123 602 CURVE SMOOTH",
"123 116 LINE SMOOTH",
"123 43 OFFCURVE",
"110 23 OFFCURVE",
"42 20 CURVE",
"42 0 LINE",
"64 2 OFFCURVE",
"101 3 OFFCURVE",
"135 3 CURVE SMOOTH",
"169 3 OFFCURVE",
"213 2 OFFCURVE",
"237 0 CURVE",
"237 20 LINE",
"159 23 OFFCURVE",
"146 43 OFFCURVE",
"146 116 CURVE SMOOTH",
"146 644 LINE",
"566 -5 LINE",
"574 -5 OFFCURVE",
"581 -5 OFFCURVE",
"589 -5 CURVE",
"589 592 LINE SMOOTH",
"589 665 OFFCURVE",
"602 685 OFFCURVE",
"670 688 CURVE",
"670 708 LINE"
);
}
);
};
layerId = "DF17D77B-A5C4-4843-826A-BC0F1C4CB224";
paths = (
{
closed = 1;
nodes = (
"650 706 OFFCURVE",
"617 705 OFFCURVE",
"587 705 CURVE SMOOTH",
"550 705 OFFCURVE",
"501 706 OFFCURVE",
"475 708 CURVE",
"475 707 LINE",
"572 702 OFFCURVE",
"588 684 OFFCURVE",
"588 611 CURVE SMOOTH",
"588 164 LINE",
"213 708 LINE",
"191 706 OFFCURVE",
"164 705 OFFCURVE",
"135 705 CURVE SMOOTH",
"101 705 OFFCURVE",
"64 706 OFFCURVE",
"42 708 CURVE",
"42 707 LINE",
"110 702 OFFCURVE",
"123 694 OFFCURVE",
"123 621 CURVE SMOOTH",
"123 97 LINE SMOOTH",
"123 24 OFFCURVE",
"110 7 OFFCURVE",
"42 1 CURVE",
"42 0 LINE",
"62 2 OFFCURVE",
"95 3 OFFCURVE",
"125 3 CURVE SMOOTH",
"162 3 OFFCURVE",
"211 2 OFFCURVE",
"237 0 CURVE",
"237 1 LINE",
"142 6 OFFCURVE",
"124 24 OFFCURVE",
"124 97 CURVE SMOOTH",
"124 669 LINE",
"588 -5 LINE",
"588 -5 OFFCURVE",
"589 -5 OFFCURVE",
"589 -5 CURVE",
"589 611 LINE SMOOTH",
"589 684 OFFCURVE",
"602 702 OFFCURVE",
"670 707 CURVE",
"670 708 LINE"
);
}
);
width = 706;
},
{
anchors = (
{
name = bottom;
position = "{367, 0}";
},
{
name = top;
position = "{374, 708}";
}
);
background = {
anchors = (
{
name = bottom;
position = "{367, 0}";
},
{
name = top;
position = "{374, 708}";
}
);
paths = (
{
closed = 1;
nodes = (
"648 706 OFFCURVE",
"611 705 OFFCURVE",
"577 705 CURVE SMOOTH",
"543 705 OFFCURVE",
"499 706 OFFCURVE",
"475 708 CURVE",
"475 688 LINE",
"553 685 OFFCURVE",
"566 665 OFFCURVE",
"566 592 CURVE SMOOTH",
"566 163 LINE",
"213 708 LINE",
"191 706 OFFCURVE",
"164 705 OFFCURVE",
"135 705 CURVE SMOOTH",
"101 705 OFFCURVE",
"64 706 OFFCURVE",
"42 708 CURVE",
"42 688 LINE",
"110 685 OFFCURVE",
"123 675 OFFCURVE",
"123 602 CURVE SMOOTH",
"123 116 LINE SMOOTH",
"123 43 OFFCURVE",
"110 23 OFFCURVE",
"42 20 CURVE",
"42 0 LINE",
"64 2 OFFCURVE",
"101 3 OFFCURVE",
"135 3 CURVE SMOOTH",
"169 3 OFFCURVE",
"213 2 OFFCURVE",
"237 0 CURVE",
"237 20 LINE",
"159 23 OFFCURVE",
"146 43 OFFCURVE",
"146 116 CURVE SMOOTH",
"146 644 LINE",
"566 -5 LINE",
"574 -5 OFFCURVE",
"581 -5 OFFCURVE",
"589 -5 CURVE",
"589 592 LINE SMOOTH",
"589 665 OFFCURVE",
"602 685 OFFCURVE",
"670 688 CURVE",
"670 708 LINE"
);
}
);
};
layerId = "7300F074-2CFD-43CC-B20F-1BF1EAE6C2C7";
paths = (
{
closed = 1;
nodes = (
"641 706 OFFCURVE",
"592 705 OFFCURVE",
"547 705 CURVE SMOOTH",
"506 705 OFFCURVE",
"454 706 OFFCURVE",
"425 708 CURVE",
"425 638 LINE",
"503 635 OFFCURVE",
"516 615 OFFCURVE",
"516 542 CURVE SMOOTH",
"516 190 LINE",
"213 708 LINE",
"191 706 OFFCURVE",
"164 705 OFFCURVE",
"135 705 CURVE SMOOTH",
"101 705 OFFCURVE",
"64 706 OFFCURVE",
"42 708 CURVE",
"42 638 LINE",
"110 635 OFFCURVE",
"123 625 OFFCURVE",
"123 552 CURVE SMOOTH",
"123 166 LINE SMOOTH",
"123 93 OFFCURVE",
"110 73 OFFCURVE",
"42 70 CURVE",
"42 0 LINE",
"61 2 OFFCURVE",
"136 3 OFFCURVE",
"165 3 CURVE SMOOTH",
"206 3 OFFCURVE",
"258 2 OFFCURVE",
"287 0 CURVE",
"287 70 LINE",
"209 73 OFFCURVE",
"196 93 OFFCURVE",
"196 166 CURVE SMOOTH",
"196 542 LINE",
"516 -5 LINE",
"541 -5 OFFCURVE",
"564 -5 OFFCURVE",
"589 -5 CURVE",
"589 542 LINE SMOOTH",
"589 615 OFFCURVE",
"602 635 OFFCURVE",
"670 638 CURVE",
"670 708 LINE"
);
}
);
width = 706;
}
);
leftKerningGroup = I;
rightKerningGroup = N;
unicode = 004E;
},
{
color = 6;
glyphname = Eng;
lastChange = "2017-11-14 23:51:51 +0000";
layers = (
{
background = {
paths = (
{
closed = 1;
nodes = (
"648 706 OFFCURVE",
"611 705 OFFCURVE",
"577 705 CURVE SMOOTH",
"543 705 OFFCURVE",
"509 706 OFFCURVE",
"485 708 CURVE",
"485 688 LINE",
"553 685 OFFCURVE",
"566 675 OFFCURVE",
"566 602 CURVE SMOOTH",
"566 184 LINE",
"227 708 LINE",
"202 706 OFFCURVE",
"168 705 OFFCURVE",
"135 705 CURVE SMOOTH",
"101 705 OFFCURVE",
"64 706 OFFCURVE",
"42 708 CURVE",
"42 688 LINE",
"110 685 OFFCURVE",
"123 675 OFFCURVE",
"123 602 CURVE SMOOTH",
"123 106 LINE SMOOTH",
"123 33 OFFCURVE",
"110 23 OFFCURVE",
"42 20 CURVE",
"42 0 LINE",
"64 2 OFFCURVE",
"101 3 OFFCURVE",
"135 3 CURVE SMOOTH",
"169 3 OFFCURVE",
"203 2 OFFCURVE",
"227 0 CURVE",
"227 20 LINE",
"159 23 OFFCURVE",
"146 33 OFFCURVE",
"146 106 CURVE SMOOTH",
"146 644 LINE",
"566 -5 LINE",
"569 -5 OFFCURVE",
"571 -5 OFFCURVE",
"574 -5 CURVE",
"589 276 LINE",
"589 602 LINE SMOOTH",
"589 675 OFFCURVE",
"602 685 OFFCURVE",
"670 688 CURVE",
"670 708 LINE"
);
},
{
closed = 1;
nodes = (
"589 445 OFFCURVE",
"566 445 OFFCURVE",
"566 445 CURVE",
"566 52 LINE SMOOTH",
"566 -85 OFFCURVE",
"533 -171 OFFCURVE",
"451 -171 CURVE SMOOTH",
"443 -171 OFFCURVE",
"434 -170 OFFCURVE",
"428 -169 CURVE",
"443 -160 OFFCURVE",
"454 -141 OFFCURVE",
"454 -123 CURVE SMOOTH",
"454 -97 OFFCURVE",
"431 -76 OFFCURVE",
"404 -76 CURVE SMOOTH",
"378 -76 OFFCURVE",
"357 -95 OFFCURVE",
"357 -126 CURVE SMOOTH",
"357 -171 OFFCURVE",
"400 -188 OFFCURVE",
"447 -188 CURVE SMOOTH",
"526 -188 OFFCURVE",
"589 -139 OFFCURVE",
"589 91 CURVE SMOOTH",
"589 445 LINE"
);
}
);
};
components = (
{
name = N;
}
);
hints = (
{
horizontal = 1;
place = "{708, -20}";
},
{
horizontal = 1;
place = "{0, 20}";
},
{
horizontal = 1;
place = "{-188, 17}";
}
);
layerId = UUID0;
paths = (
{
closed = 1;
nodes = (
"413 -173 OFFCURVE",
"392 -164 OFFCURVE",
"392 -150 CURVE SMOOTH",
"392 -132 OFFCURVE",
"422 -114 OFFCURVE",
"422 -85 CURVE SMOOTH",
"422 -62 OFFCURVE",
"404 -46 OFFCURVE",
"379 -46 CURVE SMOOTH",
"349 -46 OFFCURVE",
"327 -69 OFFCURVE",
"327 -101 CURVE SMOOTH",
"327 -150 OFFCURVE",
"379 -188 OFFCURVE",
"447 -188 CURVE SMOOTH",
"545 -188 OFFCURVE",
"589 -133 OFFCURVE",
"589 -9 CURVE SMOOTH",
"589 85 LINE",
"566 85 LINE",
"566 -8 LINE SMOOTH",
"566 -123 OFFCURVE",
"530 -173 OFFCURVE",
"446 -173 CURVE SMOOTH"
);
}
);
width = 706;
},
{
background = {
paths = (
{
closed = 1;
nodes = (
"686 706 OFFCURVE",
"653 705 OFFCURVE",
"623 705 CURVE SMOOTH",
"589 705 OFFCURVE",
"555 706 OFFCURVE",
"531 708 CURVE",
"531 688 LINE",
"599 685 OFFCURVE",
"612 675 OFFCURVE",
"612 602 CURVE SMOOTH",
"612 276 LINE",
"203 708 LINE",
"178 706 OFFCURVE",
"144 705 OFFCURVE",
"111 705 CURVE SMOOTH",
"81 705 OFFCURVE",
"48 706 OFFCURVE",
"28 708 CURVE",
"28 688 LINE",
"88 685 OFFCURVE",
"99 675 OFFCURVE",
"99 602 CURVE SMOOTH",
"99 106 LINE SMOOTH",
"99 33 OFFCURVE",
"88 23 OFFCURVE",
"28 20 CURVE",
"28 0 LINE",
"48 2 OFFCURVE",
"81 3 OFFCURVE",
"111 3 CURVE SMOOTH",
"145 3 OFFCURVE",
"179 2 OFFCURVE",
"203 0 CURVE",
"203 20 LINE",
"135 23 OFFCURVE",
"122 33 OFFCURVE",
"122 106 CURVE SMOOTH",
"122 484 LINE",
"565 0 LINE",
"585 2 OFFCURVE",
"603 2 OFFCURVE",
"619 1 CURVE",
"635 256 LINE",
"635 602 LINE",
"635 675 OFFCURVE",
"646 685 OFFCURVE",
"706 688 CURVE",
"706 708 LINE"
);
},
{
closed = 1;
nodes = (
"635 445 OFFCURVE",
"612 445 OFFCURVE",
"612 445 CURVE",
"612 29 LINE SMOOTH",
"612 -108 OFFCURVE",
"579 -168 OFFCURVE",
"503 -168 CURVE SMOOTH",
"497 -168 OFFCURVE",
"491 -168 OFFCURVE",
"485 -167 CURVE",
"526 -152 OFFCURVE",
"543 -121 OFFCURVE",
"543 -89 CURVE SMOOTH",
"543 -43 OFFCURVE",
"508 -17 OFFCURVE",
"453 -17 CURVE SMOOTH",
"394 -17 OFFCURVE",
"355 -46 OFFCURVE",
"355 -96 CURVE SMOOTH",
"355 -160 OFFCURVE",
"412 -188 OFFCURVE",
"488 -188 CURVE SMOOTH",
"583 -188 OFFCURVE",
"635 -145 OFFCURVE",
"635 46 CURVE SMOOTH",
"635 445 LINE"
);
}
);
};
components = (
{
name = N;
}
);
layerId = "39933D6F-F4A7-4C4E-8677-28C34DBED807";
paths = (
{
closed = 1;
nodes = (
"457 -168 OFFCURVE",
"443 -159 OFFCURVE",
"443 -138 CURVE SMOOTH",
"443 -103 OFFCURVE",
"482 -88 OFFCURVE",
"482 -44 CURVE SMOOTH",
"482 -9 OFFCURVE",
"457 13 OFFCURVE",
"416 13 CURVE SMOOTH",
"366 13 OFFCURVE",
"335 -19 OFFCURVE",
"335 -70 CURVE SMOOTH",
"335 -141 OFFCURVE",
"397 -188 OFFCURVE",
"490 -188 CURVE SMOOTH",
"590 -188 OFFCURVE",
"637 -130 OFFCURVE",
"637 -4 CURVE SMOOTH",
"637 95 LINE",
"614 95 LINE",
"614 -1 LINE SMOOTH",
"614 -117 OFFCURVE",
"576 -168 OFFCURVE",
"489 -168 CURVE SMOOTH"
);
}
);
width = 732;
},
{
background = {
paths = (
{
closed = 1;
nodes = (
"648 706 OFFCURVE",
"611 705 OFFCURVE",
"577 705 CURVE SMOOTH",
"543 705 OFFCURVE",
"509 706 OFFCURVE",
"485 708 CURVE",
"485 688 LINE",
"553 685 OFFCURVE",
"566 675 OFFCURVE",
"566 602 CURVE SMOOTH",
"566 184 LINE",
"227 708 LINE",
"202 706 OFFCURVE",
"168 705 OFFCURVE",
"135 705 CURVE SMOOTH",
"101 705 OFFCURVE",
"64 706 OFFCURVE",
"42 708 CURVE",
"42 688 LINE",
"110 685 OFFCURVE",
"123 675 OFFCURVE",
"123 602 CURVE SMOOTH",
"123 106 LINE SMOOTH",
"123 33 OFFCURVE",
"110 23 OFFCURVE",
"42 20 CURVE",
"42 0 LINE",
"64 2 OFFCURVE",
"101 3 OFFCURVE",
"135 3 CURVE SMOOTH",
"169 3 OFFCURVE",
"203 2 OFFCURVE",
"227 0 CURVE",
"227 20 LINE",
"159 23 OFFCURVE",
"146 33 OFFCURVE",
"146 106 CURVE SMOOTH",
"146 644 LINE",
"566 -5 LINE",
"569 -5 OFFCURVE",
"571 -5 OFFCURVE",
"574 -5 CURVE",
"589 276 LINE",
"589 602 LINE SMOOTH",
"589 675 OFFCURVE",
"602 685 OFFCURVE",
"670 688 CURVE",
"670 708 LINE"
);
},
{
closed = 1;
nodes = (
"589 445 OFFCURVE",
"566 445 OFFCURVE",
"566 445 CURVE",
"566 52 LINE SMOOTH",
"566 -85 OFFCURVE",
"533 -171 OFFCURVE",
"451 -171 CURVE SMOOTH",
"443 -171 OFFCURVE",
"434 -170 OFFCURVE",
"428 -169 CURVE",
"443 -160 OFFCURVE",
"454 -141 OFFCURVE",
"454 -123 CURVE SMOOTH",
"454 -97 OFFCURVE",
"431 -76 OFFCURVE",
"404 -76 CURVE SMOOTH",
"378 -76 OFFCURVE",
"357 -95 OFFCURVE",
"357 -126 CURVE SMOOTH",
"357 -171 OFFCURVE",
"400 -188 OFFCURVE",
"447 -188 CURVE SMOOTH",
"526 -188 OFFCURVE",
"589 -139 OFFCURVE",
"589 91 CURVE SMOOTH",
"589 445 LINE"
);
}
);
};
components = (
{
name = N;
}
);
layerId = "DF17D77B-A5C4-4843-826A-BC0F1C4CB224";
paths = (
{
closed = 1;
nodes = (
"414 -187 OFFCURVE",
"392 -177 OFFCURVE",
"392 -164 CURVE SMOOTH",
"392 -142 OFFCURVE",
"422 -120 OFFCURVE",
"422 -85 CURVE SMOOTH",
"422 -62 OFFCURVE",
"404 -46 OFFCURVE",
"379 -46 CURVE SMOOTH",
"349 -46 OFFCURVE",
"327 -69 OFFCURVE",
"327 -101 CURVE SMOOTH",
"327 -150 OFFCURVE",
"379 -188 OFFCURVE",
"447 -188 CURVE SMOOTH",
"545 -188 OFFCURVE",
"589 -133 OFFCURVE",
"589 -9 CURVE SMOOTH",
"589 65 LINE",
"588 65 LINE",
"588 -8 LINE SMOOTH",
"588 -133 OFFCURVE",
"544 -187 OFFCURVE",
"447 -187 CURVE SMOOTH"
);
}
);
width = 706;
},
{
background = {
paths = (
{
closed = 1;
nodes = (
"648 706 OFFCURVE",
"611 705 OFFCURVE",
"577 705 CURVE SMOOTH",
"543 705 OFFCURVE",
"509 706 OFFCURVE",
"485 708 CURVE",
"485 688 LINE",
"553 685 OFFCURVE",
"566 675 OFFCURVE",
"566 602 CURVE SMOOTH",
"566 184 LINE",
"227 708 LINE",
"202 706 OFFCURVE",
"168 705 OFFCURVE",
"135 705 CURVE SMOOTH",
"101 705 OFFCURVE",
"64 706 OFFCURVE",
"42 708 CURVE",
"42 688 LINE",
"110 685 OFFCURVE",
"123 675 OFFCURVE",
"123 602 CURVE SMOOTH",
"123 106 LINE SMOOTH",
"123 33 OFFCURVE",
"110 23 OFFCURVE",
"42 20 CURVE",
"42 0 LINE",
"64 2 OFFCURVE",
"101 3 OFFCURVE",
"135 3 CURVE SMOOTH",
"169 3 OFFCURVE",
"203 2 OFFCURVE",
"227 0 CURVE",
"227 20 LINE",
"159 23 OFFCURVE",
"146 33 OFFCURVE",
"146 106 CURVE SMOOTH",
"146 644 LINE",
"566 -5 LINE",
"569 -5 OFFCURVE",
"571 -5 OFFCURVE",
"574 -5 CURVE",
"589 276 LINE",
"589 602 LINE SMOOTH",
"589 675 OFFCURVE",
"602 685 OFFCURVE",
"670 688 CURVE",
"670 708 LINE"
);
},
{
closed = 1;
nodes = (
"589 445 OFFCURVE",
"566 445 OFFCURVE",
"566 445 CURVE",
"566 52 LINE SMOOTH",
"566 -85 OFFCURVE",
"533 -171 OFFCURVE",
"451 -171 CURVE SMOOTH",
"443 -171 OFFCURVE",
"434 -170 OFFCURVE",
"428 -169 CURVE",
"443 -160 OFFCURVE",
"454 -141 OFFCURVE",
"454 -123 CURVE SMOOTH",
"454 -97 OFFCURVE",
"431 -76 OFFCURVE",
"404 -76 CURVE SMOOTH",
"378 -76 OFFCURVE",
"357 -95 OFFCURVE",
"357 -126 CURVE SMOOTH",
"357 -171 OFFCURVE",
"400 -188 OFFCURVE",
"447 -188 CURVE SMOOTH",
"526 -188 OFFCURVE",
"589 -139 OFFCURVE",
"589 91 CURVE SMOOTH",
"589 445 LINE"
);
}
);
};
components = (
{
name = N;
}
);
layerId = "7300F074-2CFD-43CC-B20F-1BF1EAE6C2C7";
paths = (
{
closed = 1;
nodes = (
"413 -173 OFFCURVE",
"392 -164 OFFCURVE",
"392 -150 CURVE SMOOTH",
"392 -132 OFFCURVE",
"422 -114 OFFCURVE",
"422 -85 CURVE SMOOTH",
"422 -62 OFFCURVE",
"404 -46 OFFCURVE",
"379 -46 CURVE SMOOTH",
"349 -46 OFFCURVE",
"327 -69 OFFCURVE",
"327 -101 CURVE SMOOTH",
"327 -150 OFFCURVE",
"379 -188 OFFCURVE",
"447 -188 CURVE SMOOTH",
"545 -188 OFFCURVE",
"589 -133 OFFCURVE",
"589 -9 CURVE SMOOTH",
"589 85 LINE",
"566 85 LINE",
"566 -8 LINE SMOOTH",
"566 -123 OFFCURVE",
"530 -173 OFFCURVE",
"446 -173 CURVE SMOOTH"
);
}
);
width = 706;
}
);
leftKerningGroup = I;
leftMetricsKey = N;
rightKerningGroup = N;
rightMetricsKey = N;
unicode = 014A;
},
{
glyphname = O;
lastChange = "2017-11-16 11:54:19 +0000";
layers = (
{
anchors = (
{
name = bottom;
position = "{372, 0}";
},
{
name = center;
position = "{371, 354}";
},
{
name = ogonek;
position = "{473, 0}";
},
{
name = top;
position = "{369, 708}";
},
{
name = topleft;
position = "{20, 708}";
},
{
name = topright;
position = "{721, 708}";
}
);
hints = (
{
horizontal = 1;
origin = "{1, 11}";
target = "{0, 11}";
},
{
horizontal = 1;
origin = "{0, 5}";
target = "{1, 5}";
}
);
layerId = UUID0;
paths = (
{
closed = 1;
nodes = (
"185 722 OFFCURVE",
"53 572 OFFCURVE",
"53 348 CURVE SMOOTH",
"53 119 OFFCURVE",
"180 -14 OFFCURVE",
"370 -14 CURVE SMOOTH",
"556 -14 OFFCURVE",
"688 136 OFFCURVE",
"688 360 CURVE SMOOTH",
"688 589 OFFCURVE",
"561 722 OFFCURVE",
"371 722 CURVE SMOOTH"
);
},
{
closed = 1;
nodes = (
"490 704 OFFCURVE",
"588 569 OFFCURVE",
"588 356 CURVE SMOOTH",
"588 149 OFFCURVE",
"504 4 OFFCURVE",
"374 4 CURVE SMOOTH",
"251 4 OFFCURVE",
"153 139 OFFCURVE",
"153 352 CURVE SMOOTH",
"153 559 OFFCURVE",
"237 704 OFFCURVE",
"367 704 CURVE SMOOTH"
);
}
);
width = 741;
},
{
anchors = (
{
name = bottom;
position = "{415, 0}";
},
{
name = center;
position = "{414, 354}";
},
{
name = ogonek;
position = "{530, 0}";
},
{
name = top;
position = "{412, 708}";
},
{
name = topleft;
position = "{20, 708}";
},
{
name = topright;
position = "{807, 708}";
}
);
layerId = "39933D6F-F4A7-4C4E-8677-28C34DBED807";
paths = (
{
closed = 1;
nodes = (
"192 722 OFFCURVE",
"36 572 OFFCURVE",
"36 348 CURVE SMOOTH",
"36 119 OFFCURVE",
"187 -14 OFFCURVE",
"413 -14 CURVE SMOOTH",
"635 -14 OFFCURVE",
"791 136 OFFCURVE",
"791 360 CURVE SMOOTH",
"791 589 OFFCURVE",
"640 722 OFFCURVE",
"414 722 CURVE SMOOTH"
);
},
{
closed = 1;
nodes = (
"504 704 OFFCURVE",
"581 569 OFFCURVE",
"581 356 CURVE SMOOTH",
"581 149 OFFCURVE",
"517 4 OFFCURVE",
"417 4 CURVE SMOOTH",
"323 4 OFFCURVE",
"246 139 OFFCURVE",
"246 352 CURVE SMOOTH",
"246 559 OFFCURVE",
"310 704 OFFCURVE",
"410 704 CURVE SMOOTH"
);
}
);
width = 827;
},
{
anchors = (
{
name = bottom;
position = "{372, 0}";
},
{
name = center;
position = "{371, 354}";
},
{
name = ogonek;
position = "{463, 0}";
},
{
name = top;
position = "{369, 708}";
},
{
name = topleft;
position = "{20, 708}";
},
{
name = topright;
position = "{721, 708}";
}
);
background = {
anchors = (
{
name = bottom;
position = "{372, 0}";
},
{
name = top;
position = "{369, 708}";
}
);
paths = (
{
closed = 1;
nodes = (
"185 722 OFFCURVE",
"53 572 OFFCURVE",
"53 348 CURVE SMOOTH",
"53 119 OFFCURVE",
"180 -14 OFFCURVE",
"370 -14 CURVE SMOOTH",
"556 -14 OFFCURVE",
"688 136 OFFCURVE",
"688 360 CURVE SMOOTH",
"688 589 OFFCURVE",
"561 722 OFFCURVE",
"371 722 CURVE SMOOTH"
);
},
{
closed = 1;
nodes = (
"490 704 OFFCURVE",
"588 569 OFFCURVE",
"588 356 CURVE SMOOTH",
"588 149 OFFCURVE",
"504 4 OFFCURVE",
"374 4 CURVE SMOOTH",
"251 4 OFFCURVE",
"153 139 OFFCURVE",
"153 352 CURVE SMOOTH",
"153 559 OFFCURVE",
"237 704 OFFCURVE",
"367 704 CURVE SMOOTH"
);
}
);
};
layerId = "DF17D77B-A5C4-4843-826A-BC0F1C4CB224";
paths = (
{
closed = 1;
nodes = (
"185 722 OFFCURVE",
"53 572 OFFCURVE",
"53 348 CURVE SMOOTH",
"53 119 OFFCURVE",
"180 -14 OFFCURVE",
"370 -14 CURVE SMOOTH",
"556 -14 OFFCURVE",
"688 136 OFFCURVE",
"688 360 CURVE SMOOTH",
"688 589 OFFCURVE",
"561 722 OFFCURVE",
"371 722 CURVE SMOOTH"
);
},
{
closed = 1;
nodes = (
"490 721 OFFCURVE",
"588 579 OFFCURVE",
"588 356 CURVE SMOOTH",
"588 139 OFFCURVE",
"504 -13 OFFCURVE",
"374 -13 CURVE SMOOTH",
"251 -13 OFFCURVE",
"153 129 OFFCURVE",
"153 352 CURVE SMOOTH",
"153 569 OFFCURVE",
"237 721 OFFCURVE",
"367 721 CURVE SMOOTH"
);
}
);
width = 741;
},
{
anchors = (
{
name = bottom;
position = "{372, 0}";
},
{
name = center;
position = "{371, 354}";
},
{
name = ogonek;
position = "{473, 0}";
},
{
name = top;
position = "{369, 708}";
},
{
name = topleft;
position = "{20, 708}";
},
{
name = topright;
position = "{721, 708}";
}
);
layerId = "7300F074-2CFD-43CC-B20F-1BF1EAE6C2C7";
paths = (
{
closed = 1;
nodes = (
"185 722 OFFCURVE",
"53 572 OFFCURVE",
"53 348 CURVE SMOOTH",
"53 119 OFFCURVE",
"180 -14 OFFCURVE",
"370 -14 CURVE SMOOTH",
"556 -14 OFFCURVE",
"688 136 OFFCURVE",
"688 360 CURVE SMOOTH",
"688 589 OFFCURVE",
"561 722 OFFCURVE",
"371 722 CURVE SMOOTH"
);
},
{
closed = 1;
nodes = (
"490 654 OFFCURVE",
"588 538 OFFCURVE",
"588 356 CURVE SMOOTH",
"588 178 OFFCURVE",
"504 54 OFFCURVE",
"374 54 CURVE SMOOTH",
"251 54 OFFCURVE",
"153 170 OFFCURVE",
"153 352 CURVE SMOOTH",
"153 530 OFFCURVE",
"237 654 OFFCURVE",
"367 654 CURVE SMOOTH"
);
}
);
width = 741;
}
);
leftKerningGroup = O;
rightKerningGroup = O;
unicode = 004F;
},
{
color = 8;
glyphname = Ohorn;
lastChange = "2017-11-14 23:31:14 +0000";
layers = (
{
background = {
components = (
{
name = O;
}
);
paths = (
{
closed = 1;
nodes = (
"489 681 OFFCURVE",
"508 680 OFFCURVE",
"533 680 CURVE SMOOTH",
"635 680 OFFCURVE",
"699 718 OFFCURVE",
"699 779 CURVE SMOOTH",
"699 812 OFFCURVE",
"678 835 OFFCURVE",
"647 835 CURVE SMOOTH",
"622 835 OFFCURVE",
"604 819 OFFCURVE",
"604 796 CURVE SMOOTH",
"604 767 OFFCURVE",
"632 749 OFFCURVE",
"632 732 CURVE SMOOTH",
"632 711 OFFCURVE",
"595 698 OFFCURVE",
"537 698 CURVE SMOOTH",
"511 698 OFFCURVE",
"495 699 OFFCURVE",
"467 703 CURVE",
"471 684 LINE"
);
}
);
};
components = (
{
name = O;
}
);
guideLines = (
{
position = "{314, 835}";
}
);
layerId = UUID0;
paths = (
{
closed = 1;
nodes = (
"624 680 OFFCURVE",
"679 718 OFFCURVE",
"679 777 CURVE SMOOTH",
"679 813 OFFCURVE",
"658 835 OFFCURVE",
"627 835 CURVE SMOOTH",
"602 835 OFFCURVE",
"584 819 OFFCURVE",
"584 796 CURVE SMOOTH",
"584 767 OFFCURVE",
"612 751 OFFCURVE",
"612 731 CURVE SMOOTH",
"612 711 OFFCURVE",
"585 698 OFFCURVE",
"529 698 CURVE SMOOTH",
"514 698 OFFCURVE",
"495 699 OFFCURVE",
"467 703 CURVE",
"471 684 LINE",
"489 681 OFFCURVE",
"510 680 OFFCURVE",
"526 680 CURVE SMOOTH"
);
}
);
width = 741;
},
{
background = {
components = (
{
name = O;
}
);
paths = (
{
closed = 1;
nodes = (
"528 694 OFFCURVE",
"578 690 OFFCURVE",
"619 690 CURVE SMOOTH",
"712 690 OFFCURVE",
"796 749 OFFCURVE",
"796 812 CURVE SMOOTH",
"796 854 OFFCURVE",
"760 886 OFFCURVE",
"714 886 CURVE SMOOTH",
"675 886 OFFCURVE",
"649 864 OFFCURVE",
"649 830 CURVE SMOOTH",
"649 788 OFFCURVE",
"688 773 OFFCURVE",
"688 746 CURVE SMOOTH",
"688 722 OFFCURVE",
"655 708 OFFCURVE",
"605 708 CURVE SMOOTH",
"551 708 OFFCURVE",
"516 711 OFFCURVE",
"488 716 CURVE",
"488 701 LINE"
);
}
);
};
components = (
{
name = O;
}
);
guideLines = (
{
position = "{314, 886}";
}
);
layerId = "39933D6F-F4A7-4C4E-8677-28C34DBED807";
paths = (
{
closed = 1;
nodes = (
"704 690 OFFCURVE",
"758 747 OFFCURVE",
"758 797 CURVE SMOOTH",
"758 836 OFFCURVE",
"726 865 OFFCURVE",
"685 865 CURVE SMOOTH",
"653 865 OFFCURVE",
"631 847 OFFCURVE",
"631 818 CURVE SMOOTH",
"631 779 OFFCURVE",
"670 766 OFFCURVE",
"670 739 CURVE SMOOTH",
"670 717 OFFCURVE",
"645 707 OFFCURVE",
"593 707 CURVE SMOOTH",
"560 707 OFFCURVE",
"514 711 OFFCURVE",
"488 716 CURVE",
"488 701 LINE",
"528 694 OFFCURVE",
"582 690 OFFCURVE",
"608 690 CURVE SMOOTH"
);
}
);
width = 827;
},
{
background = {
components = (
{
name = O;
}
);
paths = (
{
closed = 1;
nodes = (
"513 694 OFFCURVE",
"539 690 OFFCURVE",
"571 690 CURVE SMOOTH",
"643 690 OFFCURVE",
"699 730 OFFCURVE",
"699 781 CURVE SMOOTH",
"699 812 OFFCURVE",
"676 835 OFFCURVE",
"647 835 CURVE SMOOTH",
"623 835 OFFCURVE",
"604 819 OFFCURVE",
"604 797 CURVE SMOOTH",
"604 773 OFFCURVE",
"628 755 OFFCURVE",
"628 727 CURVE SMOOTH",
"628 702 OFFCURVE",
"610 691 OFFCURVE",
"569 691 CURVE SMOOTH",
"546 691 OFFCURVE",
"518 693 OFFCURVE",
"482 704 CURVE",
"482 703 LINE"
);
}
);
};
components = (
{
name = O;
}
);
guideLines = (
{
position = "{314, 835}";
}
);
layerId = "DF17D77B-A5C4-4843-826A-BC0F1C4CB224";
paths = (
{
closed = 1;
nodes = (
"642 690 OFFCURVE",
"679 737 OFFCURVE",
"679 779 CURVE SMOOTH",
"679 813 OFFCURVE",
"656 835 OFFCURVE",
"627 835 CURVE SMOOTH",
"603 835 OFFCURVE",
"584 819 OFFCURVE",
"584 797 CURVE SMOOTH",
"584 771 OFFCURVE",
"611 754 OFFCURVE",
"611 722 CURVE SMOOTH",
"611 700 OFFCURVE",
"598 691 OFFCURVE",
"564 691 CURVE SMOOTH",
"548 691 OFFCURVE",
"518 693 OFFCURVE",
"482 704 CURVE",
"482 703 LINE",
"513 694 OFFCURVE",
"542 690 OFFCURVE",
"565 690 CURVE SMOOTH"
);
}
);
width = 741;
},
{
background = {
components = (
{
name = O;
}
);
paths = (
{
closed = 1;
nodes = (
"489 681 OFFCURVE",
"508 680 OFFCURVE",
"533 680 CURVE SMOOTH",
"635 680 OFFCURVE",
"699 718 OFFCURVE",
"699 779 CURVE SMOOTH",
"699 812 OFFCURVE",
"678 835 OFFCURVE",
"647 835 CURVE SMOOTH",
"622 835 OFFCURVE",
"604 819 OFFCURVE",
"604 796 CURVE SMOOTH",
"604 767 OFFCURVE",
"632 749 OFFCURVE",
"632 732 CURVE SMOOTH",
"632 711 OFFCURVE",
"595 698 OFFCURVE",
"537 698 CURVE SMOOTH",
"511 698 OFFCURVE",
"495 699 OFFCURVE",
"467 703 CURVE",
"471 684 LINE"
);
}
);
};
components = (
{
name = O;
}
);
guideLines = (
{
position = "{314, 835}";
}
);
layerId = "7300F074-2CFD-43CC-B20F-1BF1EAE6C2C7";
paths = (
{
closed = 1;
nodes = (
"624 680 OFFCURVE",
"679 718 OFFCURVE",
"679 777 CURVE SMOOTH",
"679 813 OFFCURVE",
"658 835 OFFCURVE",
"627 835 CURVE SMOOTH",
"602 835 OFFCURVE",
"584 819 OFFCURVE",
"584 796 CURVE SMOOTH",
"584 767 OFFCURVE",
"612 751 OFFCURVE",
"612 731 CURVE SMOOTH",
"612 711 OFFCURVE",
"585 698 OFFCURVE",
"529 698 CURVE SMOOTH",
"514 698 OFFCURVE",
"495 699 OFFCURVE",
"467 703 CURVE",
"471 684 LINE",
"489 681 OFFCURVE",
"510 680 OFFCURVE",
"526 680 CURVE SMOOTH"
);
}
);
width = 741;
}
);
leftKerningGroup = O;
leftMetricsKey = O;
rightKerningGroup = Ohorn;
unicode = 01A0;
},
{
glyphname = OE;
lastChange = "2017-11-14 23:51:51 +0000";
layers = (
{
anchors = (
{
name = bottom;
position = "{473, 0}";
},
{
name = top;
position = "{464, 708}";
}
);
hints = (
{
horizontal = 1;
origin = "{0, 46}";
target = "{0, 32}";
},
{
horizontal = 1;
origin = "{0, 11}";
target = "{0, 25}";
},
{
horizontal = 1;
origin = "{3, 4}";
target = "{3, 3}";
}
);
layerId = UUID0;
paths = (
{
closed = 1;
nodes = (
"399 -14 OFFCURVE",
"426 -9 OFFCURVE",
"452 1 CURVE",
"531 3 OFFCURVE",
"625 3 OFFCURVE",
"671 3 CURVE SMOOTH",
"732 3 OFFCURVE",
"818 3 OFFCURVE",
"880 0 CURVE",
"875 51 OFFCURVE",
"873 103 OFFCURVE",
"873 128 CURVE SMOOTH",
"873 156 OFFCURVE",
"874 182 OFFCURVE",
"876 200 CURVE",
"853 200 LINE",
"839 68 OFFCURVE",
"814 23 OFFCURVE",
"689 23 CURVE SMOOTH",
"666 23 LINE SMOOTH",
"598 23 OFFCURVE",
"585 33 OFFCURVE",
"585 106 CURVE SMOOTH",
"585 602 LINE SMOOTH",
"585 675 OFFCURVE",
"598 685 OFFCURVE",
"666 685 CURVE SMOOTH",
"699 685 LINE SMOOTH",
"805 685 OFFCURVE",
"820 646 OFFCURVE",
"833 528 CURVE",
"856 528 LINE",
"854 543 OFFCURVE",
"853 566 OFFCURVE",
"853 590 CURVE SMOOTH",
"853 613 OFFCURVE",
"855 661 OFFCURVE",
"860 708 CURVE",
"804 705 OFFCURVE",
"726 705 OFFCURVE",
"671 705 CURVE SMOOTH",
"626 705 OFFCURVE",
"539 705 OFFCURVE",
"459 707 CURVE",
"432 717 OFFCURVE",
"403 722 OFFCURVE",
"371 722 CURVE SMOOTH",
"185 722 OFFCURVE",
"53 572 OFFCURVE",
"53 348 CURVE SMOOTH",
"53 119 OFFCURVE",
"180 -14 OFFCURVE",
"370 -14 CURVE SMOOTH"
);
},
{
closed = 1;
nodes = (
"251 4 OFFCURVE",
"153 139 OFFCURVE",
"153 352 CURVE SMOOTH",
"153 559 OFFCURVE",
"237 704 OFFCURVE",
"367 704 CURVE SMOOTH",
"435 704 OFFCURVE",
"492 675 OFFCURVE",
"492 602 CURVE SMOOTH",
"492 106 LINE SMOOTH",
"492 33 OFFCURVE",
"426 4 OFFCURVE",
"374 4 CURVE SMOOTH"
);
},
{
closed = 1;
nodes = (
"725 346 LINE",
"725 366 LINE",
"555 366 LINE",
"555 346 LINE"
);
},
{
closed = 1;
nodes = (
"747 234 LINE",
"742 300 OFFCURVE",
"741 327 OFFCURVE",
"741 356 CURVE SMOOTH",
"741 385 OFFCURVE",
"739 412 OFFCURVE",
"744 478 CURVE",
"721 478 LINE",
"713 438 OFFCURVE",
"715 366 OFFCURVE",
"628 366 CURVE",
"628 346 LINE",
"715 346 OFFCURVE",
"716 288 OFFCURVE",
"724 234 CURVE"
);
}
);
width = 928;
},
{
anchors = (
{
name = bottom;
position = "{526, 0}";
},
{
name = top;
position = "{520, 708}";
}
);
layerId = "39933D6F-F4A7-4C4E-8677-28C34DBED807";
paths = (
{
closed = 1;
nodes = (
"434 -14 OFFCURVE",
"466 -7 OFFCURVE",
"491 2 CURVE",
"597 3 OFFCURVE",
"710 3 OFFCURVE",
"768 3 CURVE SMOOTH",
"835 3 OFFCURVE",
"929 3 OFFCURVE",
"997 0 CURVE",
"990 58 OFFCURVE",
"990 119 OFFCURVE",
"990 148 CURVE SMOOTH",
"990 184 OFFCURVE",
"991 216 OFFCURVE",
"993 240 CURVE",
"970 240 LINE",
"952 75 OFFCURVE",
"876 23 OFFCURVE",
"826 23 CURVE SMOOTH",
"793 23 LINE SMOOTH",
"734 23 OFFCURVE",
"722 33 OFFCURVE",
"722 106 CURVE SMOOTH",
"722 602 LINE SMOOTH",
"722 675 OFFCURVE",
"734 685 OFFCURVE",
"793 685 CURVE SMOOTH",
"806 685 LINE SMOOTH",
"868 685 OFFCURVE",
"929 638 OFFCURVE",
"950 488 CURVE",
"973 488 LINE",
"971 505 OFFCURVE",
"970 532 OFFCURVE",
"970 560 CURVE SMOOTH",
"970 589 OFFCURVE",
"972 649 OFFCURVE",
"977 708 CURVE",
"915 705 OFFCURVE",
"829 705 OFFCURVE",
"768 705 CURVE SMOOTH",
"710 705 OFFCURVE",
"598 705 OFFCURVE",
"491 706 CURVE",
"464 716 OFFCURVE",
"434 722 OFFCURVE",
"404 722 CURVE SMOOTH",
"188 722 OFFCURVE",
"36 572 OFFCURVE",
"36 348 CURVE SMOOTH",
"36 119 OFFCURVE",
"183 -14 OFFCURVE",
"403 -14 CURVE SMOOTH"
);
},
{
closed = 1;
nodes = (
"318 4 OFFCURVE",
"246 139 OFFCURVE",
"246 352 CURVE SMOOTH",
"246 559 OFFCURVE",
"306 704 OFFCURVE",
"400 704 CURVE SMOOTH",
"442 704 OFFCURVE",
"519 689 OFFCURVE",
"519 612 CURVE SMOOTH",
"519 86 LINE SMOOTH",
"519 28 OFFCURVE",
"452 4 OFFCURVE",
"407 4 CURVE SMOOTH"
);
},
{
closed = 1;
nodes = (
"852 346 LINE",
"852 366 LINE",
"692 366 LINE",
"692 346 LINE"
);
},
{
closed = 1;
nodes = (
"884 224 LINE",
"879 295 OFFCURVE",
"878 325 OFFCURVE",
"878 356 CURVE SMOOTH",
"878 387 OFFCURVE",
"876 417 OFFCURVE",
"881 488 CURVE",
"858 488 LINE",
"847 444 OFFCURVE",
"831 366 OFFCURVE",
"762 366 CURVE",
"762 346 LINE",
"831 346 OFFCURVE",
"850 283 OFFCURVE",
"861 224 CURVE"
);
}
);
width = 1040;
},
{
anchors = (
{
name = bottom;
position = "{473, 0}";
},
{
name = top;
position = "{464, 708}";
}
);
background = {
anchors = (
{
name = bottom;
position = "{473, 0}";
},
{
name = top;
position = "{464, 708}";
}
);
paths = (
{
closed = 1;
nodes = (
"185 722 OFFCURVE",
"53 572 OFFCURVE",
"53 348 CURVE SMOOTH",
"53 119 OFFCURVE",
"180 -14 OFFCURVE",
"370 -14 CURVE SMOOTH",
"399 -14 OFFCURVE",
"426 -9 OFFCURVE",
"452 1 CURVE",
"531 3 OFFCURVE",
"625 3 OFFCURVE",
"671 3 CURVE SMOOTH",
"732 3 OFFCURVE",
"818 3 OFFCURVE",
"880 0 CURVE",
"875 51 OFFCURVE",
"873 103 OFFCURVE",
"873 128 CURVE SMOOTH",
"873 156 OFFCURVE",
"874 182 OFFCURVE",
"876 200 CURVE",
"853 200 LINE",
"839 68 OFFCURVE",
"814 23 OFFCURVE",
"689 23 CURVE SMOOTH",
"666 23 LINE SMOOTH",
"598 23 OFFCURVE",
"585 33 OFFCURVE",
"585 106 CURVE SMOOTH",
"585 602 LINE SMOOTH",
"585 675 OFFCURVE",
"598 685 OFFCURVE",
"666 685 CURVE SMOOTH",
"699 685 LINE SMOOTH",
"805 685 OFFCURVE",
"820 646 OFFCURVE",
"833 528 CURVE",
"856 528 LINE",
"854 543 OFFCURVE",
"853 566 OFFCURVE",
"853 590 CURVE SMOOTH",
"853 613 OFFCURVE",
"855 661 OFFCURVE",
"860 708 CURVE",
"804 705 OFFCURVE",
"726 705 OFFCURVE",
"671 705 CURVE SMOOTH",
"626 705 OFFCURVE",
"539 705 OFFCURVE",
"459 707 CURVE",
"432 717 OFFCURVE",
"403 722 OFFCURVE",
"371 722 CURVE SMOOTH"
);
},
{
closed = 1;
nodes = (
"435 704 OFFCURVE",
"492 675 OFFCURVE",
"492 602 CURVE SMOOTH",
"492 106 LINE SMOOTH",
"492 33 OFFCURVE",
"426 4 OFFCURVE",
"374 4 CURVE SMOOTH",
"251 4 OFFCURVE",
"153 139 OFFCURVE",
"153 352 CURVE SMOOTH",
"153 559 OFFCURVE",
"237 704 OFFCURVE",
"367 704 CURVE SMOOTH"
);
},
{
closed = 1;
nodes = (
"555 366 LINE",
"555 346 LINE",
"725 346 LINE",
"725 366 LINE"
);
},
{
closed = 1;
nodes = (
"721 478 LINE",
"713 438 OFFCURVE",
"715 366 OFFCURVE",
"628 366 CURVE",
"628 346 LINE",
"715 346 OFFCURVE",
"716 288 OFFCURVE",
"724 234 CURVE",
"747 234 LINE",
"742 300 OFFCURVE",
"741 327 OFFCURVE",
"741 356 CURVE SMOOTH",
"741 385 OFFCURVE",
"739 412 OFFCURVE",
"744 478 CURVE"
);
}
);
};
layerId = "DF17D77B-A5C4-4843-826A-BC0F1C4CB224";
paths = (
{
closed = 1;
nodes = (
"399 -14 OFFCURVE",
"426 -9 OFFCURVE",
"452 1 CURVE",
"536 3 OFFCURVE",
"649 3 OFFCURVE",
"701 3 CURVE SMOOTH",
"718 3 OFFCURVE",
"812 3 OFFCURVE",
"880 0 CURVE",
"875 51 OFFCURVE",
"873 103 OFFCURVE",
"873 128 CURVE SMOOTH",
"873 156 OFFCURVE",
"874 182 OFFCURVE",
"876 200 CURVE",
"875 200 LINE",
"859 54 OFFCURVE",
"831 4 OFFCURVE",
"689 4 CURVE SMOOTH",
"666 4 LINE SMOOTH",
"598 4 OFFCURVE",
"585 14 OFFCURVE",
"585 87 CURVE SMOOTH",
"585 621 LINE SMOOTH",
"585 694 OFFCURVE",
"598 704 OFFCURVE",
"666 704 CURVE SMOOTH",
"699 704 LINE SMOOTH",
"822 704 OFFCURVE",
"840 660 OFFCURVE",
"855 528 CURVE",
"856 528 LINE",
"854 543 OFFCURVE",
"853 566 OFFCURVE",
"853 590 CURVE SMOOTH",
"853 613 OFFCURVE",
"855 661 OFFCURVE",
"860 708 CURVE",
"798 705 OFFCURVE",
"712 705 OFFCURVE",
"701 705 CURVE SMOOTH",
"651 705 OFFCURVE",
"541 705 OFFCURVE",
"459 707 CURVE",
"432 717 OFFCURVE",
"403 722 OFFCURVE",
"371 722 CURVE SMOOTH",
"185 722 OFFCURVE",
"53 572 OFFCURVE",
"53 348 CURVE SMOOTH",
"53 119 OFFCURVE",
"180 -14 OFFCURVE",
"370 -14 CURVE SMOOTH"
);
},
{
closed = 1;
nodes = (
"251 -13 OFFCURVE",
"153 129 OFFCURVE",
"153 352 CURVE SMOOTH",
"153 569 OFFCURVE",
"237 721 OFFCURVE",
"367 721 CURVE SMOOTH",
"435 721 OFFCURVE",
"492 692 OFFCURVE",
"492 619 CURVE SMOOTH",
"492 89 LINE SMOOTH",
"492 16 OFFCURVE",
"426 -13 OFFCURVE",
"374 -13 CURVE SMOOTH"
);
},
{
closed = 1;
nodes = (
"726 356 LINE",
"726 357 LINE",
"555 357 LINE",
"555 356 LINE"
);
},
{
closed = 1;
nodes = (
"758 234 LINE",
"753 299 OFFCURVE",
"752 328 OFFCURVE",
"752 356 CURVE SMOOTH",
"752 384 OFFCURVE",
"750 413 OFFCURVE",
"755 478 CURVE",
"754 478 LINE",
"744 434 OFFCURVE",
"747 357 OFFCURVE",
"639 357 CURVE",
"639 356 LINE",
"746 356 OFFCURVE",
"747 293 OFFCURVE",
"757 234 CURVE"
);
}
);
width = 928;
},
{
anchors = (
{
name = bottom;
position = "{473, 0}";
},
{
name = top;
position = "{464, 708}";
}
);
layerId = "7300F074-2CFD-43CC-B20F-1BF1EAE6C2C7";
paths = (
{
closed = 1;
nodes = (
"399 -14 OFFCURVE",
"426 -9 OFFCURVE",
"452 1 CURVE",
"531 3 OFFCURVE",
"625 3 OFFCURVE",
"671 3 CURVE SMOOTH",
"732 3 OFFCURVE",
"818 3 OFFCURVE",
"880 0 CURVE",
"875 51 OFFCURVE",
"873 103 OFFCURVE",
"873 128 CURVE SMOOTH",
"873 156 OFFCURVE",
"874 182 OFFCURVE",
"876 200 CURVE",
"853 200 LINE",
"839 68 OFFCURVE",
"814 23 OFFCURVE",
"689 23 CURVE SMOOTH",
"666 23 LINE SMOOTH",
"598 23 OFFCURVE",
"585 33 OFFCURVE",
"585 106 CURVE SMOOTH",
"585 602 LINE SMOOTH",
"585 675 OFFCURVE",
"598 685 OFFCURVE",
"666 685 CURVE SMOOTH",
"699 685 LINE SMOOTH",
"805 685 OFFCURVE",
"820 646 OFFCURVE",
"833 528 CURVE",
"856 528 LINE",
"854 543 OFFCURVE",
"853 566 OFFCURVE",
"853 590 CURVE SMOOTH",
"853 613 OFFCURVE",
"855 661 OFFCURVE",
"860 708 CURVE",
"804 705 OFFCURVE",
"726 705 OFFCURVE",
"671 705 CURVE SMOOTH",
"626 705 OFFCURVE",
"539 705 OFFCURVE",
"459 707 CURVE",
"432 717 OFFCURVE",
"403 722 OFFCURVE",
"371 722 CURVE SMOOTH",
"185 722 OFFCURVE",
"53 572 OFFCURVE",
"53 348 CURVE SMOOTH",
"53 119 OFFCURVE",
"180 -14 OFFCURVE",
"370 -14 CURVE SMOOTH"
);
},
{
closed = 1;
nodes = (
"251 4 OFFCURVE",
"153 139 OFFCURVE",
"153 352 CURVE SMOOTH",
"153 559 OFFCURVE",
"237 704 OFFCURVE",
"367 704 CURVE SMOOTH",
"435 704 OFFCURVE",
"492 675 OFFCURVE",
"492 602 CURVE SMOOTH",
"492 106 LINE SMOOTH",
"492 33 OFFCURVE",
"426 4 OFFCURVE",
"374 4 CURVE SMOOTH"
);
},
{
closed = 1;
nodes = (
"725 346 LINE",
"725 366 LINE",
"555 366 LINE",
"555 346 LINE"
);
},
{
closed = 1;
nodes = (
"747 234 LINE",
"742 300 OFFCURVE",
"741 327 OFFCURVE",
"741 356 CURVE SMOOTH",
"741 385 OFFCURVE",
"739 412 OFFCURVE",
"744 478 CURVE",
"721 478 LINE",
"713 438 OFFCURVE",
"715 366 OFFCURVE",
"628 366 CURVE",
"628 346 LINE",
"715 346 OFFCURVE",
"716 288 OFFCURVE",
"724 234 CURVE"
);
}
);
width = 928;
}
);
leftKerningGroup = O;
leftMetricsKey = O;
rightKerningGroup = E;
rightMetricsKey = E;
unicode = 0152;
},
{
glyphname = P;
lastChange = "2017-11-15 16:17:00 +0000";
layers = (
{
anchors = (
{
name = bottom;
position = "{170, 0}";
},
{
name = top;
position = "{309, 708}";
}
);
hints = (
{
horizontal = 1;
origin = "{0, 43}";
target = "{0, 0}";
},
{
horizontal = 1;
origin = "{0, 8}";
target = "{0, 7}";
},
{
horizontal = 1;
origin = "{0, 30}";
target = "{0, 29}";
}
);
layerId = UUID0;
paths = (
{
closed = 1;
nodes = (
"42 688 LINE",
"112 685 OFFCURVE",
"123 673 OFFCURVE",
"123 602 CURVE SMOOTH",
"123 106 LINE SMOOTH",
"123 35 OFFCURVE",
"112 23 OFFCURVE",
"42 20 CURVE",
"42 0 LINE",
"68 2 OFFCURVE",
"112 3 OFFCURVE",
"172 3 CURVE SMOOTH",
"232 3 OFFCURVE",
"287 2 OFFCURVE",
"317 0 CURVE",
"317 20 LINE",
"230 23 OFFCURVE",
"216 35 OFFCURVE",
"216 106 CURVE SMOOTH",
"216 602 LINE SMOOTH",
"216 672 OFFCURVE",
"230 688 OFFCURVE",
"290 688 CURVE SMOOTH",
"405 688 OFFCURVE",
"456 631 OFFCURVE",
"456 502 CURVE SMOOTH",
"456 369 OFFCURVE",
"401 306 OFFCURVE",
"283 306 CURVE SMOOTH",
"197 306 LINE",
"197 286 LINE",
"293 286 LINE SMOOTH",
"453 286 OFFCURVE",
"556 374 OFFCURVE",
"556 509 CURVE SMOOTH",
"556 635 OFFCURVE",
"466 707 OFFCURVE",
"315 707 CURVE SMOOTH",
"290 707 OFFCURVE",
"230 705 OFFCURVE",
"161 705 CURVE SMOOTH",
"113 705 OFFCURVE",
"67 706 OFFCURVE",
"42 708 CURVE"
);
}
);
width = 585;
},
{
anchors = (
{
name = bottom;
position = "{206, 0}";
},
{
name = top;
position = "{355, 708}";
}
);
layerId = "39933D6F-F4A7-4C4E-8677-28C34DBED807";
paths = (
{
closed = 1;
nodes = (
"28 688 LINE",
"89 685 OFFCURVE",
"99 673 OFFCURVE",
"99 602 CURVE SMOOTH",
"99 106 LINE SMOOTH",
"99 34 OFFCURVE",
"90 23 OFFCURVE",
"28 20 CURVE",
"28 0 LINE",
"82 1 OFFCURVE",
"143 3 OFFCURVE",
"215 3 CURVE SMOOTH",
"287 3 OFFCURVE",
"368 1 OFFCURVE",
"413 0 CURVE",
"413 23 LINE",
"318 23 OFFCURVE",
"302 36 OFFCURVE",
"302 116 CURVE SMOOTH",
"302 602 LINE SMOOTH",
"302 670 OFFCURVE",
"312 688 OFFCURVE",
"353 688 CURVE SMOOTH",
"422 688 OFFCURVE",
"452 635 OFFCURVE",
"452 508 CURVE SMOOTH",
"452 369 OFFCURVE",
"416 306 OFFCURVE",
"329 306 CURVE SMOOTH",
"233 306 LINE",
"233 286 LINE",
"339 286 LINE SMOOTH",
"536 286 OFFCURVE",
"662 374 OFFCURVE",
"662 508 CURVE SMOOTH",
"662 635 OFFCURVE",
"550 707 OFFCURVE",
"361 707 CURVE SMOOTH",
"330 707 OFFCURVE",
"277 705 OFFCURVE",
"190 705 CURVE SMOOTH",
"129 705 OFFCURVE",
"61 706 OFFCURVE",
"28 708 CURVE"
);
}
);
width = 678;
},
{
anchors = (
{
name = bottom;
position = "{170, 0}";
},
{
name = top;
position = "{309, 708}";
}
);
background = {
anchors = (
{
name = bottom;
position = "{170, 0}";
},
{
name = top;
position = "{309, 708}";
}
);
paths = (
{
closed = 1;
nodes = (
"42 688 LINE",
"110 685 OFFCURVE",
"123 675 OFFCURVE",
"123 602 CURVE SMOOTH",
"123 106 LINE SMOOTH",
"123 33 OFFCURVE",
"110 23 OFFCURVE",
"42 20 CURVE",
"42 0 LINE",
"70 2 OFFCURVE",
"118 3 OFFCURVE",
"170 3 CURVE SMOOTH",
"224 3 OFFCURVE",
"282 2 OFFCURVE",
"317 0 CURVE",
"317 20 LINE",
"233 23 OFFCURVE",
"216 33 OFFCURVE",
"216 106 CURVE SMOOTH",
"216 602 LINE SMOOTH",
"216 671 OFFCURVE",
"229 688 OFFCURVE",
"290 688 CURVE SMOOTH",
"411 688 OFFCURVE",
"456 625 OFFCURVE",
"456 499 CURVE SMOOTH",
"456 397 OFFCURVE",
"425 306 OFFCURVE",
"283 306 CURVE SMOOTH",
"197 306 LINE",
"197 286 LINE",
"293 286 LINE SMOOTH",
"500 286 OFFCURVE",
"556 413 OFFCURVE",
"556 510 CURVE SMOOTH",
"556 626 OFFCURVE",
"476 707 OFFCURVE",
"315 707 CURVE SMOOTH",
"291 707 OFFCURVE",
"227 705 OFFCURVE",
"164 705 CURVE SMOOTH",
"120 705 OFFCURVE",
"70 706 OFFCURVE",
"42 708 CURVE"
);
}
);
};
layerId = "DF17D77B-A5C4-4843-826A-BC0F1C4CB224";
paths = (
{
closed = 1;
nodes = (
"42 707 LINE",
"113 702 OFFCURVE",
"123 691 OFFCURVE",
"123 621 CURVE SMOOTH",
"123 87 LINE SMOOTH",
"123 17 OFFCURVE",
"113 6 OFFCURVE",
"42 1 CURVE",
"42 0 LINE",
"68 2 OFFCURVE",
"112 3 OFFCURVE",
"172 3 CURVE SMOOTH",
"232 3 OFFCURVE",
"287 2 OFFCURVE",
"317 0 CURVE",
"317 1 LINE",
"229 6 OFFCURVE",
"216 17 OFFCURVE",
"216 87 CURVE SMOOTH",
"216 621 LINE SMOOTH",
"216 689 OFFCURVE",
"230 706 OFFCURVE",
"289 706 CURVE SMOOTH",
"404 706 OFFCURVE",
"456 643 OFFCURVE",
"456 504 CURVE SMOOTH",
"456 362 OFFCURVE",
"402 296 OFFCURVE",
"283 296 CURVE SMOOTH",
"197 296 LINE",
"197 295 LINE",
"293 295 LINE SMOOTH",
"453 295 OFFCURVE",
"556 379 OFFCURVE",
"556 510 CURVE SMOOTH",
"556 634 OFFCURVE",
"465 708 OFFCURVE",
"317 708 CURVE SMOOTH",
"287 708 OFFCURVE",
"234 705 OFFCURVE",
"158 705 CURVE SMOOTH",
"114 705 OFFCURVE",
"67 706 OFFCURVE",
"42 708 CURVE"
);
}
);
width = 585;
},
{
anchors = (
{
name = bottom;
position = "{170, 0}";
},
{
name = top;
position = "{309, 708}";
}
);
layerId = "7300F074-2CFD-43CC-B20F-1BF1EAE6C2C7";
paths = (
{
closed = 1;
nodes = (
"42 638 LINE",
"112 635 OFFCURVE",
"123 623 OFFCURVE",
"123 552 CURVE SMOOTH",
"123 156 LINE SMOOTH",
"123 85 OFFCURVE",
"112 73 OFFCURVE",
"42 70 CURVE",
"42 0 LINE",
"68 2 OFFCURVE",
"112 3 OFFCURVE",
"172 3 CURVE SMOOTH",
"232 3 OFFCURVE",
"287 2 OFFCURVE",
"317 0 CURVE",
"317 70 LINE",
"230 73 OFFCURVE",
"216 85 OFFCURVE",
"216 156 CURVE SMOOTH",
"216 552 LINE SMOOTH",
"216 622 OFFCURVE",
"230 638 OFFCURVE",
"290 638 CURVE SMOOTH",
"405 638 OFFCURVE",
"456 590 OFFCURVE",
"456 481 CURVE SMOOTH",
"456 379 OFFCURVE",
"401 331 OFFCURVE",
"283 331 CURVE SMOOTH",
"197 331 LINE",
"197 261 LINE",
"293 261 LINE SMOOTH",
"453 261 OFFCURVE",
"556 351 OFFCURVE",
"556 488 CURVE SMOOTH",
"556 627 OFFCURVE",
"466 707 OFFCURVE",
"315 707 CURVE SMOOTH",
"290 707 OFFCURVE",
"230 705 OFFCURVE",
"161 705 CURVE SMOOTH",
"113 705 OFFCURVE",
"67 706 OFFCURVE",
"42 708 CURVE"
);
}
);
width = 585;
}
);
leftKerningGroup = I;
leftMetricsKey = I;
unicode = 0050;
},
{
glyphname = Thorn;
lastChange = "2017-11-17 20:40:18 +0000";
layers = (
{
components = (
{
name = I;
}
);
hints = (
{
horizontal = 1;
origin = "{0, 9}";
target = "{0, 6}";
},
{
horizontal = 1;
origin = "{0, 0}";
target = "{0, 15}";
}
);
layerId = UUID0;
paths = (
{
closed = 1;
nodes = (
"293 144 LINE SMOOTH",
"455 144 OFFCURVE",
"556 231 OFFCURVE",
"556 370 CURVE SMOOTH",
"556 490 OFFCURVE",
"463 565 OFFCURVE",
"315 565 CURVE SMOOTH",
"176 565 LINE",
"176 545 LINE",
"290 545 LINE SMOOTH",
"405 545 OFFCURVE",
"456 489 OFFCURVE",
"456 364 CURVE SMOOTH",
"456 228 OFFCURVE",
"400 164 OFFCURVE",
"283 164 CURVE SMOOTH",
"177 164 LINE",
"177 144 LINE"
);
}
);
width = 585;
},
{
background = {
paths = (
{
closed = 1;
nodes = (
"312 152 LINE SMOOTH",
"567 152 OFFCURVE",
"635 262 OFFCURVE",
"635 383 CURVE SMOOTH",
"635 513 OFFCURVE",
"537 573 OFFCURVE",
"334 573 CURVE SMOOTH",
"185 573 LINE",
"185 554 LINE",
"309 554 LINE SMOOTH",
"395 554 OFFCURVE",
"425 491 OFFCURVE",
"425 372 CURVE SMOOTH",
"425 265 OFFCURVE",
"404 172 OFFCURVE",
"302 172 CURVE SMOOTH",
"216 172 LINE",
"216 152 LINE"
);
}
);
};
components = (
{
name = I;
}
);
layerId = "39933D6F-F4A7-4C4E-8677-28C34DBED807";
paths = (
{
closed = 1;
nodes = (
"343 546 LINE SMOOTH",
"421 546 OFFCURVE",
"452 495 OFFCURVE",
"452 366 CURVE SMOOTH",
"452 225 OFFCURVE",
"415 164 OFFCURVE",
"329 164 CURVE SMOOTH",
"233 164 LINE",
"233 144 LINE",
"339 144 LINE SMOOTH",
"535 144 OFFCURVE",
"662 231 OFFCURVE",
"662 366 CURVE SMOOTH",
"662 492 OFFCURVE",
"552 565 OFFCURVE",
"361 565 CURVE SMOOTH",
"230 565 LINE",
"230 546 LINE"
);
}
);
width = 678;
},
{
components = (
{
name = I;
}
);
layerId = "DF17D77B-A5C4-4843-826A-BC0F1C4CB224";
paths = (
{
closed = 1;
nodes = (
"293 144 LINE SMOOTH",
"455 144 OFFCURVE",
"556 231 OFFCURVE",
"556 370 CURVE SMOOTH",
"556 490 OFFCURVE",
"463 565 OFFCURVE",
"315 565 CURVE SMOOTH",
"176 565 LINE",
"176 564 LINE",
"290 564 LINE SMOOTH",
"405 564 OFFCURVE",
"456 502 OFFCURVE",
"456 364 CURVE SMOOTH",
"456 216 OFFCURVE",
"400 145 OFFCURVE",
"283 145 CURVE SMOOTH",
"177 145 LINE",
"177 144 LINE"
);
}
);
width = 585;
},
{
components = (
{
name = I;
}
);
layerId = "7300F074-2CFD-43CC-B20F-1BF1EAE6C2C7";
paths = (
{
closed = 1;
nodes = (
"333 164 LINE SMOOTH",
"468 164 OFFCURVE",
"556 243 OFFCURVE",
"556 365 CURVE SMOOTH",
"556 478 OFFCURVE",
"481 545 OFFCURVE",
"355 545 CURVE SMOOTH",
"176 545 LINE",
"176 475 LINE",
"330 475 LINE SMOOTH",
"414 475 OFFCURVE",
"456 436 OFFCURVE",
"456 360 CURVE SMOOTH",
"456 276 OFFCURVE",
"411 234 OFFCURVE",
"323 234 CURVE SMOOTH",
"177 234 LINE",
"177 164 LINE"
);
}
);
width = 585;
}
);
leftKerningGroup = I;
leftMetricsKey = I;
rightMetricsKey = P;
unicode = 00DE;
},
{
color = 8;
glyphname = Q;
lastChange = "2017-11-14 23:51:51 +0000";
layers = (
{
anchors = (
{
name = bottom;
position = "{371, -181}";
}
);
background = {
anchors = (
{
name = bottom;
position = "{371, -181}";
}
);
components = (
{
name = O;
}
);
paths = (
{
closed = 1;
nodes = (
"718 -83 OFFCURVE",
"667 -110 OFFCURVE",
"571 -110 CURVE SMOOTH",
"493 -110 OFFCURVE",
"354 -82 OFFCURVE",
"254 -62 CURVE",
"313 -45 OFFCURVE",
"342 -20 OFFCURVE",
"402 -13 CURVE",
"401 3 LINE",
"322 -4 OFFCURVE",
"290 -38 OFFCURVE",
"219 -57 CURVE",
"194 -52 OFFCURVE",
"166 -49 OFFCURVE",
"144 -49 CURVE SMOOTH",
"107 -49 OFFCURVE",
"90 -57 OFFCURVE",
"90 -70 CURVE SMOOTH",
"90 -84 OFFCURVE",
"109 -90 OFFCURVE",
"136 -90 CURVE SMOOTH",
"162 -90 OFFCURVE",
"193 -84 OFFCURVE",
"219 -75 CURVE",
"225 -77 OFFCURVE",
"234 -79 OFFCURVE",
"243 -82 CURVE SMOOTH",
"371 -125 OFFCURVE",
"459 -188 OFFCURVE",
"565 -188 CURVE SMOOTH",
"633 -188 OFFCURVE",
"675 -166 OFFCURVE",
"700 -143 CURVE SMOOTH",
"726 -119 OFFCURVE",
"747 -84 OFFCURVE",
"763 -29 CURVE",
"748 -23 LINE"
);
}
);
};
components = (
{
name = O;
}
);
hints = (
{
horizontal = 1;
origin = "{0, 27}";
target = up;
type = BottomGhost;
}
);
layerId = UUID0;
paths = (
{
closed = 1;
nodes = (
"773 -130 OFFCURVE",
"710 -160 OFFCURVE",
"624 -160 CURVE SMOOTH",
"540 -160 OFFCURVE",
"438 -133 OFFCURVE",
"254 -62 CURVE",
"313 -45 OFFCURVE",
"342 -19 OFFCURVE",
"402 -12 CURVE",
"401 3 LINE",
"322 -4 OFFCURVE",
"290 -38 OFFCURVE",
"219 -57 CURVE",
"194 -52 OFFCURVE",
"166 -49 OFFCURVE",
"144 -49 CURVE SMOOTH",
"109 -49 OFFCURVE",
"90 -56 OFFCURVE",
"90 -70 CURVE SMOOTH",
"90 -83 OFFCURVE",
"106 -90 OFFCURVE",
"136 -90 CURVE SMOOTH",
"160 -90 OFFCURVE",
"191 -84 OFFCURVE",
"219 -75 CURVE",
"380 -139 OFFCURVE",
"462 -238 OFFCURVE",
"611 -238 CURVE SMOOTH",
"718 -238 OFFCURVE",
"785 -187 OFFCURVE",
"823 -79 CURVE",
"808 -73 LINE"
);
}
);
width = 741;
},
{
anchors = (
{
name = bottom;
position = "{384, -181}";
}
);
background = {
anchors = (
{
name = bottom;
position = "{414, -181}";
}
);
components = (
{
name = O;
}
);
paths = (
{
closed = 1;
nodes = (
"741 -15 OFFCURVE",
"703 -36 OFFCURVE",
"630 -52 CURVE SMOOTH",
"539 -71 OFFCURVE",
"446 -67 OFFCURVE",
"275 -62 CURVE",
"338 -45 OFFCURVE",
"369 -20 OFFCURVE",
"433 -13 CURVE",
"432 3 LINE",
"349 -4 OFFCURVE",
"315 -38 OFFCURVE",
"240 -57 CURVE",
"215 -46 OFFCURVE",
"186 -39 OFFCURVE",
"164 -39 CURVE SMOOTH",
"127 -39 OFFCURVE",
"109 -51 OFFCURVE",
"109 -70 CURVE SMOOTH",
"109 -91 OFFCURVE",
"129 -100 OFFCURVE",
"156 -100 CURVE SMOOTH",
"182 -100 OFFCURVE",
"214 -90 OFFCURVE",
"240 -75 CURVE",
"245 -75 OFFCURVE",
"256 -79 OFFCURVE",
"264 -82 CURVE SMOOTH",
"379 -130 OFFCURVE",
"483 -188 OFFCURVE",
"596 -188 CURVE SMOOTH",
"643 -188 OFFCURVE",
"691 -176 OFFCURVE",
"721 -153 CURVE SMOOTH",
"763 -121 OFFCURVE",
"787 -55 OFFCURVE",
"794 31 CURVE",
"775 36 LINE"
);
}
);
};
components = (
{
name = O;
}
);
layerId = "39933D6F-F4A7-4C4E-8677-28C34DBED807";
paths = (
{
closed = 1;
nodes = (
"777 -83 OFFCURVE",
"719 -102 OFFCURVE",
"604 -102 CURVE SMOOTH",
"517 -102 OFFCURVE",
"428 -91 OFFCURVE",
"275 -62 CURVE",
"338 -45 OFFCURVE",
"369 -20 OFFCURVE",
"433 -13 CURVE",
"432 3 LINE",
"349 -4 OFFCURVE",
"315 -38 OFFCURVE",
"240 -57 CURVE",
"215 -46 OFFCURVE",
"186 -39 OFFCURVE",
"162 -39 CURVE SMOOTH",
"129 -39 OFFCURVE",
"109 -51 OFFCURVE",
"109 -70 CURVE SMOOTH",
"109 -89 OFFCURVE",
"126 -100 OFFCURVE",
"155 -100 CURVE SMOOTH",
"184 -100 OFFCURVE",
"216 -91 OFFCURVE",
"240 -75 CURVE",
"288 -82 OFFCURVE",
"461 -248 OFFCURVE",
"640 -248 CURVE SMOOTH",
"763 -248 OFFCURVE",
"843 -170 OFFCURVE",
"864 -29 CURVE",
"845 -24 LINE"
);
}
);
width = 827;
},
{
anchors = (
{
name = bottom;
position = "{371, -181}";
}
);
background = {
anchors = (
{
name = bottom;
position = "{371, -181}";
}
);
components = (
{
name = O;
}
);
paths = (
{
closed = 1;
nodes = (
"718 -83 OFFCURVE",
"667 -110 OFFCURVE",
"571 -110 CURVE SMOOTH",
"493 -110 OFFCURVE",
"354 -82 OFFCURVE",
"254 -62 CURVE",
"313 -45 OFFCURVE",
"342 -20 OFFCURVE",
"402 -13 CURVE",
"401 3 LINE",
"322 -4 OFFCURVE",
"290 -38 OFFCURVE",
"219 -57 CURVE",
"194 -52 OFFCURVE",
"166 -49 OFFCURVE",
"144 -49 CURVE SMOOTH",
"107 -49 OFFCURVE",
"90 -57 OFFCURVE",
"90 -70 CURVE SMOOTH",
"90 -84 OFFCURVE",
"109 -90 OFFCURVE",
"136 -90 CURVE SMOOTH",
"162 -90 OFFCURVE",
"193 -84 OFFCURVE",
"219 -75 CURVE",
"225 -77 OFFCURVE",
"234 -79 OFFCURVE",
"243 -82 CURVE SMOOTH",
"371 -125 OFFCURVE",
"459 -188 OFFCURVE",
"565 -188 CURVE SMOOTH",
"633 -188 OFFCURVE",
"675 -166 OFFCURVE",
"700 -143 CURVE SMOOTH",
"726 -119 OFFCURVE",
"747 -84 OFFCURVE",
"763 -29 CURVE",
"748 -23 LINE"
);
}
);
};
components = (
{
name = O;
}
);
layerId = "DF17D77B-A5C4-4843-826A-BC0F1C4CB224";
paths = (
{
closed = 1;
nodes = (
"797 -128 OFFCURVE",
"721 -160 OFFCURVE",
"615 -160 CURVE SMOOTH",
"531 -160 OFFCURVE",
"440 -139 OFFCURVE",
"220 -67 CURVE",
"293 -52 OFFCURVE",
"321 -20 OFFCURVE",
"397 -12 CURVE",
"393 -12 LINE",
"323 -18 OFFCURVE",
"295 -49 OFFCURVE",
"219 -66 CURVE",
"193 -62 OFFCURVE",
"181 -61 OFFCURVE",
"173 -61 CURVE SMOOTH",
"157 -61 OFFCURVE",
"150 -64 OFFCURVE",
"150 -69 CURVE SMOOTH",
"150 -74 OFFCURVE",
"155 -77 OFFCURVE",
"167 -77 CURVE SMOOTH",
"178 -77 OFFCURVE",
"196 -73 OFFCURVE",
"219 -68 CURVE",
"348 -114 OFFCURVE",
"454 -238 OFFCURVE",
"611 -238 CURVE SMOOTH",
"720 -238 OFFCURVE",
"800 -177 OFFCURVE",
"833 -69 CURVE",
"832 -69 LINE"
);
}
);
width = 741;
},
{
anchors = (
{
name = bottom;
position = "{371, -181}";
}
);
background = {
anchors = (
{
name = bottom;
position = "{371, -181}";
}
);
components = (
{
name = O;
}
);
paths = (
{
closed = 1;
nodes = (
"718 -83 OFFCURVE",
"667 -110 OFFCURVE",
"571 -110 CURVE SMOOTH",
"493 -110 OFFCURVE",
"354 -82 OFFCURVE",
"254 -62 CURVE",
"313 -45 OFFCURVE",
"342 -20 OFFCURVE",
"402 -13 CURVE",
"401 3 LINE",
"322 -4 OFFCURVE",
"290 -38 OFFCURVE",
"219 -57 CURVE",
"194 -52 OFFCURVE",
"166 -49 OFFCURVE",
"144 -49 CURVE SMOOTH",
"107 -49 OFFCURVE",
"90 -57 OFFCURVE",
"90 -70 CURVE SMOOTH",
"90 -84 OFFCURVE",
"109 -90 OFFCURVE",
"136 -90 CURVE SMOOTH",
"162 -90 OFFCURVE",
"193 -84 OFFCURVE",
"219 -75 CURVE",
"225 -77 OFFCURVE",
"234 -79 OFFCURVE",
"243 -82 CURVE SMOOTH",
"371 -125 OFFCURVE",
"459 -188 OFFCURVE",
"565 -188 CURVE SMOOTH",
"633 -188 OFFCURVE",
"675 -166 OFFCURVE",
"700 -143 CURVE SMOOTH",
"726 -119 OFFCURVE",
"747 -84 OFFCURVE",
"763 -29 CURVE",
"748 -23 LINE"
);
}
);
};
components = (
{
name = O;
}
);
layerId = "7300F074-2CFD-43CC-B20F-1BF1EAE6C2C7";
paths = (
{
closed = 1;
nodes = (
"773 -130 OFFCURVE",
"710 -160 OFFCURVE",
"624 -160 CURVE SMOOTH",
"540 -160 OFFCURVE",
"438 -133 OFFCURVE",
"254 -62 CURVE",
"313 -45 OFFCURVE",
"342 -19 OFFCURVE",
"402 -12 CURVE",
"401 3 LINE",
"322 -4 OFFCURVE",
"290 -38 OFFCURVE",
"219 -57 CURVE",
"194 -52 OFFCURVE",
"166 -49 OFFCURVE",
"144 -49 CURVE SMOOTH",
"109 -49 OFFCURVE",
"90 -56 OFFCURVE",
"90 -70 CURVE SMOOTH",
"90 -83 OFFCURVE",
"106 -90 OFFCURVE",
"136 -90 CURVE SMOOTH",
"160 -90 OFFCURVE",
"191 -84 OFFCURVE",
"219 -75 CURVE",
"380 -139 OFFCURVE",
"462 -238 OFFCURVE",
"611 -238 CURVE SMOOTH",
"718 -238 OFFCURVE",
"785 -187 OFFCURVE",
"823 -79 CURVE",
"808 -73 LINE"
);
}
);
width = 741;
}
);
leftKerningGroup = O;
leftMetricsKey = O;
rightKerningGroup = O;
unicode = 0051;
},
{
glyphname = R;
lastChange = "2017-11-20 14:39:05 +0000";
layers = (
{
anchors = (
{
name = bottom;
position = "{337, 0}";
},
{
name = top;
position = "{296, 708}";
}
);
background = {
paths = (
{
closed = 1;
nodes = (
"42 688 LINE",
"110 685 OFFCURVE",
"123 675 OFFCURVE",
"123 602 CURVE SMOOTH",
"123 106 LINE SMOOTH",
"123 33 OFFCURVE",
"110 23 OFFCURVE",
"42 20 CURVE",
"42 0 LINE",
"70 2 OFFCURVE",
"118 3 OFFCURVE",
"170 3 CURVE SMOOTH",
"216 3 OFFCURVE",
"266 2 OFFCURVE",
"297 0 CURVE",
"297 20 LINE",
"229 23 OFFCURVE",
"216 33 OFFCURVE",
"216 106 CURVE SMOOTH",
"216 602 LINE SMOOTH",
"216 671 OFFCURVE",
"229 688 OFFCURVE",
"290 688 CURVE SMOOTH",
"411 688 OFFCURVE",
"456 627 OFFCURVE",
"456 522 CURVE SMOOTH",
"456 430 OFFCURVE",
"425 356 OFFCURVE",
"283 356 CURVE SMOOTH",
"197 356 LINE",
"197 336 LINE",
"293 336 LINE SMOOTH",
"500 336 OFFCURVE",
"556 454 OFFCURVE",
"556 533 CURVE SMOOTH",
"556 631 OFFCURVE",
"476 707 OFFCURVE",
"315 707 CURVE SMOOTH",
"291 707 OFFCURVE",
"227 705 OFFCURVE",
"164 705 CURVE SMOOTH",
"120 705 OFFCURVE",
"70 706 OFFCURVE",
"42 708 CURVE"
);
},
{
closed = 1;
nodes = (
"203 336 LINE",
"311 336 LINE SMOOTH",
"390 336 OFFCURVE",
"405 279 OFFCURVE",
"424 194 CURVE SMOOTH",
"446 94 LINE SMOOTH",
"465 9 OFFCURVE",
"503 -14 OFFCURVE",
"553 -14 CURVE SMOOTH",
"607 -14 OFFCURVE",
"632 9 OFFCURVE",
"660 50 CURVE",
"645 61 LINE",
"627 38 OFFCURVE",
"615 24 OFFCURVE",
"592 23 CURVE SMOOTH",
"563 22 OFFCURVE",
"552 46 OFFCURVE",
"539 105 CURVE SMOOTH",
"514 207 LINE SMOOTH",
"495 290 OFFCURVE",
"463 324 OFFCURVE",
"374 339 CURVE SMOOTH",
"337 345 OFFCURVE",
"308 348 OFFCURVE",
"201 353 CURVE"
);
}
);
};
hints = (
{
horizontal = 1;
origin = "{0, 43}";
target = "{0, 0}";
},
{
horizontal = 1;
origin = "{0, 8}";
target = "{0, 7}";
},
{
horizontal = 1;
origin = "{0, 31}";
target = "{0, 28}";
}
);
layerId = UUID0;
paths = (
{
closed = 1;
nodes = (
"42 688 LINE",
"112 685 OFFCURVE",
"123 673 OFFCURVE",
"123 602 CURVE SMOOTH",
"123 106 LINE SMOOTH",
"123 35 OFFCURVE",
"112 23 OFFCURVE",
"42 20 CURVE",
"42 0 LINE",
"68 2 OFFCURVE",
"113 3 OFFCURVE",
"170 3 CURVE SMOOTH",
"223 3 OFFCURVE",
"269 2 OFFCURVE",
"297 0 CURVE",
"297 20 LINE",
"227 23 OFFCURVE",
"216 35 OFFCURVE",
"216 106 CURVE SMOOTH",
"216 602 LINE SMOOTH",
"216 672 OFFCURVE",
"230 688 OFFCURVE",
"290 688 CURVE SMOOTH",
"403 688 OFFCURVE",
"456 635 OFFCURVE",
"456 522 CURVE SMOOTH",
"456 408 OFFCURVE",
"402 356 OFFCURVE",
"283 356 CURVE SMOOTH",
"197 356 LINE",
"197 336 LINE",
"293 336 LINE SMOOTH",
"449 336 OFFCURVE",
"556 416 OFFCURVE",
"556 533 CURVE SMOOTH",
"556 640 OFFCURVE",
"463 707 OFFCURVE",
"315 707 CURVE SMOOTH",
"291 707 OFFCURVE",
"227 705 OFFCURVE",
"164 705 CURVE SMOOTH",
"112 705 OFFCURVE",
"67 706 OFFCURVE",
"42 708 CURVE"
);
},
{
closed = 1;
nodes = (
"203 336 LINE",
"311 336 LINE SMOOTH",
"371 336 OFFCURVE",
"399 306 OFFCURVE",
"418 221 CURVE SMOOTH",
"446 94 LINE SMOOTH",
"463 19 OFFCURVE",
"495 -14 OFFCURVE",
"553 -14 CURVE SMOOTH",
"600 -14 OFFCURVE",
"627 2 OFFCURVE",
"660 50 CURVE",
"645 61 LINE",
"622 32 OFFCURVE",
"611 24 OFFCURVE",
"592 23 CURVE SMOOTH",
"566 22 OFFCURVE",
"555 39 OFFCURVE",
"539 105 CURVE SMOOTH",
"514 207 LINE SMOOTH",
"489 315 OFFCURVE",
"441 343 OFFCURVE",
"282 343 CURVE SMOOTH",
"203 343 LINE"
);
}
);
width = 648;
},
{
anchors = (
{
name = bottom;
position = "{383, 0}";
},
{
name = top;
position = "{342, 708}";
}
);
background = {
paths = (
{
closed = 1;
nodes = (
"28 688 LINE",
"88 685 OFFCURVE",
"99 675 OFFCURVE",
"99 602 CURVE SMOOTH",
"99 106 LINE SMOOTH",
"99 33 OFFCURVE",
"89 23 OFFCURVE",
"28 20 CURVE",
"28 0 LINE",
"66 2 OFFCURVE",
"134 3 OFFCURVE",
"206 3 CURVE SMOOTH",
"268 3 OFFCURVE",
"334 2 OFFCURVE",
"373 0 CURVE",
"373 20 LINE",
"313 23 OFFCURVE",
"302 33 OFFCURVE",
"302 106 CURVE SMOOTH",
"302 602 LINE SMOOTH",
"302 671 OFFCURVE",
"311 688 OFFCURVE",
"356 688 CURVE SMOOTH",
"427 688 OFFCURVE",
"452 627 OFFCURVE",
"452 522 CURVE SMOOTH",
"452 430 OFFCURVE",
"431 356 OFFCURVE",
"329 356 CURVE SMOOTH",
"243 356 LINE",
"243 336 LINE",
"339 336 LINE SMOOTH",
"594 336 OFFCURVE",
"662 434 OFFCURVE",
"662 533 CURVE SMOOTH",
"662 651 OFFCURVE",
"564 707 OFFCURVE",
"361 707 CURVE SMOOTH",
"335 707 OFFCURVE",
"267 705 OFFCURVE",
"200 705 CURVE SMOOTH",
"136 705 OFFCURVE",
"66 706 OFFCURVE",
"28 708 CURVE"
);
},
{
closed = 1;
nodes = (
"239 336 LINE",
"347 336 LINE SMOOTH",
"398 336 OFFCURVE",
"415 276 OFFCURVE",
"427 194 CURVE SMOOTH",
"442 94 LINE SMOOTH",
"454 12 OFFCURVE",
"509 -14 OFFCURVE",
"596 -14 CURVE SMOOTH",
"657 -14 OFFCURVE",
"705 -1 OFFCURVE",
"746 40 CURVE",
"733 53 LINE",
"724 44 OFFCURVE",
"715 40 OFFCURVE",
"702 40 CURVE SMOOTH",
"679 40 OFFCURVE",
"667 55 OFFCURVE",
"657 105 CURVE SMOOTH",
"636 209 LINE SMOOTH",
"620 292 OFFCURVE",
"552 333 OFFCURVE",
"410 340 CURVE SMOOTH",
"371 342 OFFCURVE",
"308 350 OFFCURVE",
"237 353 CURVE"
);
}
);
};
layerId = "39933D6F-F4A7-4C4E-8677-28C34DBED807";
paths = (
{
closed = 1;
nodes = (
"28 688 LINE",
"89 685 OFFCURVE",
"99 673 OFFCURVE",
"99 602 CURVE SMOOTH",
"99 106 LINE SMOOTH",
"99 34 OFFCURVE",
"90 23 OFFCURVE",
"28 20 CURVE",
"28 0 LINE",
"63 2 OFFCURVE",
"127 3 OFFCURVE",
"206 3 CURVE SMOOTH",
"277 3 OFFCURVE",
"339 2 OFFCURVE",
"373 0 CURVE",
"373 20 LINE",
"312 23 OFFCURVE",
"302 35 OFFCURVE",
"302 106 CURVE SMOOTH",
"302 602 LINE SMOOTH",
"302 672 OFFCURVE",
"312 688 OFFCURVE",
"356 688 CURVE SMOOTH",
"422 688 OFFCURVE",
"452 636 OFFCURVE",
"452 522 CURVE SMOOTH",
"452 407 OFFCURVE",
"414 356 OFFCURVE",
"329 356 CURVE SMOOTH",
"243 356 LINE",
"243 336 LINE",
"339 336 LINE SMOOTH",
"548 336 OFFCURVE",
"662 406 OFFCURVE",
"662 533 CURVE SMOOTH",
"662 651 OFFCURVE",
"565 707 OFFCURVE",
"361 707 CURVE SMOOTH",
"335 707 OFFCURVE",
"267 705 OFFCURVE",
"200 705 CURVE SMOOTH",
"125 705 OFFCURVE",
"61 706 OFFCURVE",
"28 708 CURVE"
);
},
{
closed = 1;
nodes = (
"239 336 LINE",
"337 336 LINE SMOOTH",
"389 336 OFFCURVE",
"410 310 OFFCURVE",
"421 234 CURVE SMOOTH",
"442 94 LINE SMOOTH",
"453 19 OFFCURVE",
"500 -14 OFFCURVE",
"596 -14 CURVE SMOOTH",
"663 -14 OFFCURVE",
"708 2 OFFCURVE",
"746 40 CURVE",
"733 53 LINE",
"724 44 OFFCURVE",
"715 40 OFFCURVE",
"702 40 CURVE SMOOTH",
"678 40 OFFCURVE",
"667 56 OFFCURVE",
"657 105 CURVE SMOOTH",
"636 209 LINE SMOOTH",
"617 306 OFFCURVE",
"530 343 OFFCURVE",
"320 343 CURVE SMOOTH",
"250 343 LINE"
);
}
);
width = 721;
},
{
anchors = (
{
name = bottom;
position = "{337, 0}";
},
{
name = top;
position = "{296, 708}";
}
);
background = {
anchors = (
{
name = bottom;
position = "{337, 0}";
},
{
name = top;
position = "{296, 708}";
}
);
paths = (
{
closed = 1;
nodes = (
"42 688 LINE",
"110 685 OFFCURVE",
"123 675 OFFCURVE",
"123 602 CURVE SMOOTH",
"123 106 LINE SMOOTH",
"123 33 OFFCURVE",
"110 23 OFFCURVE",
"42 20 CURVE",
"42 0 LINE",
"70 2 OFFCURVE",
"118 3 OFFCURVE",
"170 3 CURVE SMOOTH",
"216 3 OFFCURVE",
"266 2 OFFCURVE",
"297 0 CURVE",
"297 20 LINE",
"229 23 OFFCURVE",
"216 33 OFFCURVE",
"216 106 CURVE SMOOTH",
"216 602 LINE SMOOTH",
"216 671 OFFCURVE",
"229 688 OFFCURVE",
"290 688 CURVE SMOOTH",
"411 688 OFFCURVE",
"456 627 OFFCURVE",
"456 522 CURVE SMOOTH",
"456 430 OFFCURVE",
"425 356 OFFCURVE",
"283 356 CURVE SMOOTH",
"197 356 LINE",
"197 336 LINE",
"293 336 LINE SMOOTH",
"500 336 OFFCURVE",
"556 454 OFFCURVE",
"556 533 CURVE SMOOTH",
"556 631 OFFCURVE",
"476 707 OFFCURVE",
"315 707 CURVE SMOOTH",
"291 707 OFFCURVE",
"227 705 OFFCURVE",
"164 705 CURVE SMOOTH",
"120 705 OFFCURVE",
"70 706 OFFCURVE",
"42 708 CURVE"
);
},
{
closed = 1;
nodes = (
"203 336 LINE",
"311 336 LINE SMOOTH",
"390 336 OFFCURVE",
"405 279 OFFCURVE",
"424 194 CURVE SMOOTH",
"446 94 LINE SMOOTH",
"465 9 OFFCURVE",
"503 -14 OFFCURVE",
"553 -14 CURVE SMOOTH",
"607 -14 OFFCURVE",
"632 9 OFFCURVE",
"660 50 CURVE",
"645 61 LINE",
"627 38 OFFCURVE",
"615 24 OFFCURVE",
"592 23 CURVE SMOOTH",
"563 22 OFFCURVE",
"552 46 OFFCURVE",
"539 105 CURVE SMOOTH",
"514 207 LINE SMOOTH",
"495 290 OFFCURVE",
"463 324 OFFCURVE",
"374 339 CURVE SMOOTH",
"337 345 OFFCURVE",
"308 348 OFFCURVE",
"201 353 CURVE"
);
}
);
};
layerId = "DF17D77B-A5C4-4843-826A-BC0F1C4CB224";
paths = (
{
closed = 1;
nodes = (
"42 707 LINE",
"113 702 OFFCURVE",
"123 691 OFFCURVE",
"123 621 CURVE SMOOTH",
"123 87 LINE SMOOTH",
"123 17 OFFCURVE",
"113 6 OFFCURVE",
"42 1 CURVE",
"42 0 LINE",
"66 2 OFFCURVE",
"111 3 OFFCURVE",
"169 3 CURVE SMOOTH",
"226 3 OFFCURVE",
"271 2 OFFCURVE",
"297 0 CURVE",
"297 1 LINE",
"226 6 OFFCURVE",
"216 17 OFFCURVE",
"216 87 CURVE SMOOTH",
"216 621 LINE SMOOTH",
"216 688 OFFCURVE",
"230 705 OFFCURVE",
"288 705 CURVE SMOOTH",
"399 705 OFFCURVE",
"456 642 OFFCURVE",
"456 520 CURVE SMOOTH",
"456 401 OFFCURVE",
"401 346 OFFCURVE",
"283 346 CURVE SMOOTH",
"197 346 LINE",
"197 345 LINE",
"293 345 LINE SMOOTH",
"449 345 OFFCURVE",
"556 422 OFFCURVE",
"556 534 CURVE SMOOTH",
"556 640 OFFCURVE",
"462 707 OFFCURVE",
"315 707 CURVE SMOOTH",
"290 707 OFFCURVE",
"230 705 OFFCURVE",
"161 705 CURVE SMOOTH",
"108 705 OFFCURVE",
"65 706 OFFCURVE",
"42 708 CURVE"
);
},
{
closed = 1;
nodes = (
"203 345 LINE",
"278 345 LINE SMOOTH",
"375 345 OFFCURVE",
"395 328 OFFCURVE",
"416 232 CURVE SMOOTH",
"446 94 LINE SMOOTH",
"463 18 OFFCURVE",
"496 -14 OFFCURVE",
"557 -14 CURVE SMOOTH",
"602 -14 OFFCURVE",
"630 3 OFFCURVE",
"663 50 CURVE",
"662 50 LINE",
"639 21 OFFCURVE",
"628 13 OFFCURVE",
"609 12 CURVE SMOOTH",
"573 10 OFFCURVE",
"557 32 OFFCURVE",
"541 105 CURVE SMOOTH",
"518 208 LINE SMOOTH",
"493 319 OFFCURVE",
"445 346 OFFCURVE",
"276 346 CURVE SMOOTH",
"203 346 LINE"
);
}
);
width = 648;
},
{
anchors = (
{
name = bottom;
position = "{337, 0}";
},
{
name = top;
position = "{296, 708}";
}
);
background = {
anchors = (
{
name = bottom;
position = "{337, 0}";
},
{
name = top;
position = "{296, 708}";
}
);
paths = (
{
closed = 1;
nodes = (
"42 688 LINE",
"110 685 OFFCURVE",
"123 675 OFFCURVE",
"123 602 CURVE SMOOTH",
"123 106 LINE SMOOTH",
"123 33 OFFCURVE",
"110 23 OFFCURVE",
"42 20 CURVE",
"42 0 LINE",
"70 2 OFFCURVE",
"118 3 OFFCURVE",
"170 3 CURVE SMOOTH",
"216 3 OFFCURVE",
"266 2 OFFCURVE",
"297 0 CURVE",
"297 20 LINE",
"229 23 OFFCURVE",
"216 33 OFFCURVE",
"216 106 CURVE SMOOTH",
"216 602 LINE SMOOTH",
"216 671 OFFCURVE",
"229 688 OFFCURVE",
"290 688 CURVE SMOOTH",
"411 688 OFFCURVE",
"456 627 OFFCURVE",
"456 522 CURVE SMOOTH",
"456 430 OFFCURVE",
"425 356 OFFCURVE",
"283 356 CURVE SMOOTH",
"197 356 LINE",
"197 336 LINE",
"293 336 LINE SMOOTH",
"500 336 OFFCURVE",
"556 454 OFFCURVE",
"556 533 CURVE SMOOTH",
"556 631 OFFCURVE",
"476 707 OFFCURVE",
"315 707 CURVE SMOOTH",
"291 707 OFFCURVE",
"227 705 OFFCURVE",
"164 705 CURVE SMOOTH",
"120 705 OFFCURVE",
"70 706 OFFCURVE",
"42 708 CURVE"
);
},
{
closed = 1;
nodes = (
"203 336 LINE",
"311 336 LINE SMOOTH",
"390 336 OFFCURVE",
"405 279 OFFCURVE",
"418 221 CURVE SMOOTH",
"446 94 LINE SMOOTH",
"465 9 OFFCURVE",
"503 -14 OFFCURVE",
"553 -14 CURVE SMOOTH",
"607 -14 OFFCURVE",
"632 9 OFFCURVE",
"660 50 CURVE",
"645 61 LINE",
"627 38 OFFCURVE",
"615 24 OFFCURVE",
"592 23 CURVE SMOOTH",
"563 22 OFFCURVE",
"552 46 OFFCURVE",
"539 105 CURVE SMOOTH",
"514 207 LINE SMOOTH",
"487 323 OFFCURVE",
"428 343 OFFCURVE",
"282 343 CURVE SMOOTH",
"203 343 LINE"
);
}
);
};
layerId = "7300F074-2CFD-43CC-B20F-1BF1EAE6C2C7";
paths = (
{
closed = 1;
nodes = (
"42 638 LINE",
"112 635 OFFCURVE",
"123 623 OFFCURVE",
"123 552 CURVE SMOOTH",
"123 156 LINE SMOOTH",
"123 85 OFFCURVE",
"112 73 OFFCURVE",
"42 70 CURVE",
"42 0 LINE",
"67 2 OFFCURVE",
"111 3 OFFCURVE",
"170 3 CURVE SMOOTH",
"226 3 OFFCURVE",
"271 2 OFFCURVE",
"297 0 CURVE",
"297 70 LINE",
"227 73 OFFCURVE",
"216 85 OFFCURVE",
"216 156 CURVE SMOOTH",
"216 552 LINE SMOOTH",
"216 622 OFFCURVE",
"230 638 OFFCURVE",
"290 638 CURVE SMOOTH",
"403 638 OFFCURVE",
"456 597 OFFCURVE",
"456 510 CURVE SMOOTH",
"456 422 OFFCURVE",
"402 381 OFFCURVE",
"283 381 CURVE SMOOTH",
"197 381 LINE",
"197 311 LINE",
"293 311 LINE SMOOTH",
"449 311 OFFCURVE",
"556 396 OFFCURVE",
"556 521 CURVE SMOOTH",
"556 636 OFFCURVE",
"464 707 OFFCURVE",
"315 707 CURVE SMOOTH",
"291 707 OFFCURVE",
"227 705 OFFCURVE",
"164 705 CURVE SMOOTH",
"108 705 OFFCURVE",
"65 706 OFFCURVE",
"42 708 CURVE"
);
},
{
closed = 1;
nodes = (
"203 311 LINE",
"311 311 LINE SMOOTH",
"373 311 OFFCURVE",
"406 277 OFFCURVE",
"424 196 CURVE SMOOTH",
"446 94 LINE SMOOTH",
"463 19 OFFCURVE",
"495 -14 OFFCURVE",
"553 -14 CURVE SMOOTH",
"600 -14 OFFCURVE",
"635 9 OFFCURVE",
"660 50 CURVE",
"621 94 LINE",
"604 78 OFFCURVE",
"594 73 OFFCURVE",
"579 73 CURVE SMOOTH",
"555 72 OFFCURVE",
"542 87 OFFCURVE",
"533 126 CURVE SMOOTH",
"520 182 LINE SMOOTH",
"490 309 OFFCURVE",
"440 343 OFFCURVE",
"282 343 CURVE SMOOTH",
"203 343 LINE"
);
}
);
width = 648;
}
);
leftKerningGroup = I;
rightKerningGroup = R;
unicode = 0052;
},
